<svg width="20" height="20" viewBox="0 0 20 20" fill="none" xmlns="http://www.w3.org/2000/svg">
<g clip-path="url(#clip0_22236_17176)">
<path d="M14.5889 6.39859C14.1721 5.94355 13.5241 5.32937 13.2485 6.71617C13.1547 7.18769 12.9357 7.55117 12.748 7.84383C12.5457 6.81992 11.937 5.76011 11.3635 5.04554C11.1489 4.7782 10.3874 3.71543 10.2411 1.93746C10.2193 1.67211 9.90409 1.5475 9.70694 1.72648C7.82288 3.43679 6.78874 5.78906 6.75034 8.43722C6.75034 8.43722 5.96581 7.77593 5.5396 6.5457C5.42483 6.21441 4.98069 6.15121 4.788 6.44414C4.751 6.50039 4.71671 6.55672 4.68577 6.6114C3.23214 9.18172 2.53288 12.303 3.17932 15.2069C4.26018 20.0701 11.4099 21.4297 15.1951 18.3731C18.8984 15.3826 17.7212 9.81664 14.5889 6.39859Z" fill="url(#paint0_linear_22236_17176)"/>
<path d="M4.18538 15.5113C3.54643 12.5763 4.22276 9.42462 5.64225 6.81407C5.60635 6.72747 5.57182 6.6379 5.53956 6.54478C5.42479 6.21349 4.98065 6.15028 4.78796 6.44321C4.75096 6.49946 4.71671 6.55579 4.68577 6.61048C3.23214 9.18079 2.53288 12.3021 3.17932 15.206C3.67233 17.4242 5.42811 18.913 7.5512 19.5868C5.89495 18.7845 4.59792 17.4092 4.18538 15.5113Z" fill="#CCCCCC"/>
<path d="M7.76106 8.38824C7.83953 5.98485 8.70883 3.82977 10.2647 2.17422C10.254 2.08305 10.2461 2.00153 10.2409 1.93965C10.2186 1.67203 9.91496 1.53782 9.71867 1.71524C7.89895 3.36047 6.7898 5.68895 6.75 8.43692L7.09059 8.70141C7.25832 8.83168 7.48559 8.82602 7.64578 8.70668C7.74137 8.62567 7.75508 8.5034 7.76106 8.38824Z" fill="#CCCCCC"/>
<path d="M13.4496 9.95432C13.1418 9.61822 12.6632 9.16455 12.4596 10.1889C12.3904 10.5371 12.2285 10.8056 12.09 11.0218C11.9406 10.2655 11.491 9.48272 11.0674 8.95494C10.9088 8.75748 10.3464 7.97252 10.2383 6.6592C10.2222 6.46318 9.98943 6.37119 9.8438 6.50338C8.4522 7.76662 7.68833 9.50412 7.66001 11.4601C7.66001 11.4601 7.08052 10.9716 6.76575 10.0629C6.68099 9.81826 6.3529 9.77158 6.2106 9.98795C6.18329 10.0295 6.15794 10.0711 6.13509 10.1115C5.06138 12.01 4.5449 14.3154 5.02236 16.4603C5.82072 20.0524 11.1017 21.0566 13.8974 18.7989C16.6327 16.5901 15.7633 12.479 13.4496 9.95432Z" fill="#909090"/>
<path d="M6.0181 16.7421C5.59536 14.6454 6.03322 12.3956 6.96154 10.5222C6.89079 10.3836 6.82376 10.2305 6.76572 10.063C6.68095 9.81833 6.35286 9.77161 6.21056 9.98798C6.18325 10.0295 6.1579 10.0711 6.13505 10.1116C5.06138 12.0101 4.54493 14.3155 5.02232 16.4604C5.39365 18.131 6.7347 19.2415 8.34423 19.7247C7.20068 19.1512 6.30029 18.1436 6.0181 16.7421Z" fill="#A5A5A5"/>
<path d="M12.4038 13.2003C12.1955 12.9728 11.8714 12.6656 11.7336 13.3591C11.6868 13.5949 11.5772 13.7766 11.4834 13.9229C11.3822 13.4109 11.0779 12.881 10.7911 12.5238C10.6838 12.3901 10.3031 11.8587 10.2299 10.9697C10.2189 10.837 10.0614 10.7747 9.96281 10.8642C9.02078 11.7194 8.50371 12.8956 8.48453 14.2196C8.48453 14.2196 8.09223 13.8889 7.87918 13.2739C7.8218 13.1082 7.59973 13.0766 7.5034 13.2231C7.48488 13.2512 7.46777 13.2794 7.45227 13.3067C6.72547 14.5919 6.37582 16.1525 6.69902 17.6045C7.23945 20.0361 10.8143 20.7159 12.7069 19.1876C13.355 18.6642 13.7568 17.9267 13.8383 17.111C13.9613 15.8755 13.4858 14.381 12.4038 13.2003Z" fill="#CFCFCF"/>
<path d="M11.4331 16.2116C11.317 16.0848 11.1365 15.9137 11.0597 16.3C11.0336 16.4314 10.9726 16.5326 10.9203 16.6142C10.8639 16.3289 10.6944 16.0337 10.5346 15.8347C10.4749 15.7602 10.2627 15.4641 10.2219 14.9689C10.2158 14.8949 10.128 14.8603 10.0731 14.9101C9.54834 15.3865 9.26021 16.0418 9.24955 16.7794C9.24955 16.7794 9.03099 16.5952 8.91228 16.2525C8.88029 16.1602 8.75658 16.1426 8.70295 16.2242C8.69264 16.2399 8.6831 16.2556 8.67451 16.2708C8.26959 16.9869 8.07478 17.8563 8.25486 18.6653C8.66494 20.5102 12.0262 20.4543 12.2324 18.3903C12.3008 17.702 12.0359 16.8693 11.4331 16.2116Z" fill="url(#paint1_linear_22236_17176)"/>
<path d="M9.03529 19.0314C8.85521 18.3077 9.05002 17.53 9.45494 16.8895C9.46353 16.8758 9.4731 16.8618 9.48338 16.8478C9.53705 16.7748 9.66076 16.7905 9.69271 16.8731C9.81142 17.1796 10.03 17.3444 10.03 17.3444C10.0388 16.8023 10.2352 16.3101 10.5959 15.9153C10.5153 15.8036 10.2685 15.5342 10.2219 14.9689C10.2158 14.8949 10.128 14.8603 10.0731 14.9101C9.54834 15.3865 9.26021 16.0418 9.24955 16.7794C9.24955 16.7794 9.03099 16.5952 8.91228 16.2526C8.88033 16.1603 8.75658 16.1426 8.70295 16.2243C8.69264 16.24 8.6831 16.2557 8.67451 16.2709C8.26959 16.9869 8.07478 17.8564 8.25486 18.6653C8.4215 19.4151 9.10611 19.8657 9.86299 19.9745C9.45471 19.774 9.14092 19.4565 9.03529 19.0314Z" fill="#DEDEDE"/>
<path d="M7.21098 2.65801C8.05571 1.97094 8.05383 0.685508 7.21098 0C6.36626 0.687031 6.36809 1.9725 7.21098 2.65801Z" fill="#ABABAB"/>
<path d="M17.3352 8.17168C18.1799 7.48461 18.178 6.19918 17.3352 5.51367C16.9491 5.82766 16.4923 7.48617 17.3352 8.17168Z" fill="#ABABAB"/>
<path d="M2.37417 8.69691C2.98296 8.20172 2.98163 7.27535 2.37417 6.78125C2.09593 7.00754 1.76671 8.20285 2.37417 8.69691Z" fill="#ABABAB"/>
<path d="M12.917 4.57387C13.5258 4.07867 13.5245 3.1523 12.917 2.6582C12.3082 3.15336 12.3096 4.0798 12.917 4.57387Z" fill="#ABABAB"/>
<path d="M8.43301 11.1459C8.57281 9.49545 9.20309 8.02791 10.2614 6.90912C10.2507 6.82803 10.2416 6.74479 10.2346 6.6592C10.2185 6.46318 9.9857 6.37119 9.84008 6.50338C8.73734 7.5044 8.02961 8.80346 7.76891 10.2728L7.76852 10.2727C7.74918 10.3817 7.7252 10.5404 7.71004 10.6651C7.71008 10.6653 7.71012 10.6653 7.7102 10.6654C7.67852 10.9258 7.66016 11.1908 7.65625 11.4601C7.6857 11.4658 8.35242 11.8085 8.43301 11.1459Z" fill="#A5A5A5"/>
<path d="M7.6732 17.9489C7.3859 16.5925 7.63059 15.146 8.19902 13.8927C8.08891 13.7383 7.9684 13.5309 7.87922 13.2734C7.8218 13.1077 7.59976 13.0761 7.5034 13.2226C7.48492 13.2507 7.46773 13.2789 7.45227 13.3062C6.72547 14.5914 6.37582 16.152 6.69902 17.604C6.95215 18.7427 7.87078 19.4973 8.97043 19.8207C8.33035 19.3958 7.84617 18.7669 7.6732 17.9489Z" fill="#C3C3C3"/>
<path d="M9.52137 13.6269C9.6166 12.9462 9.895 12.1962 10.3332 11.5692C10.2855 11.3922 10.248 11.1922 10.2296 10.9697C10.2187 10.837 10.0611 10.7747 9.96258 10.8642C9.37563 11.3971 8.95434 12.0548 8.715 12.795L8.71438 12.7949C8.67672 12.9112 8.62348 13.1038 8.59121 13.2559C8.59148 13.2558 8.59176 13.2558 8.59203 13.2557C8.52594 13.566 8.48918 13.888 8.48438 14.2196C9.01141 14.2853 9.44738 14.1548 9.52137 13.6269Z" fill="#C3C3C3"/>
</g>
<defs>
<linearGradient id="paint0_linear_22236_17176" x1="10.2178" y1="1.64258" x2="10.2178" y2="19.9998" gradientUnits="userSpaceOnUse">
<stop stop-color="#B2B2B2"/>
<stop offset="1" stop-color="#5B5B5B"/>
</linearGradient>
<linearGradient id="paint1_linear_22236_17176" x1="10.2152" y1="14.8867" x2="10.2152" y2="19.9963" gradientUnits="userSpaceOnUse">
<stop stop-color="#CCCCCC"/>
<stop offset="1" stop-color="#9E9E9E"/>
</linearGradient>
<clipPath id="clip0_22236_17176">
<rect width="20" height="20" fill="white"/>
</clipPath>
</defs>
</svg>
