<svg width="120" height="34" viewBox="0 0 120 34" fill="none" xmlns="http://www.w3.org/2000/svg">
<g clip-path="url(#clip0_22224_15611)">
<rect width="120" height="34" fill="url(#paint0_linear_22224_15611)"/>
<g style="mix-blend-mode:luminosity" clip-path="url(#clip1_22224_15611)">
<path d="M12.3105 -4.13876L13.0363 -4.88449C13.2441 -5.09796 13.6055 -5.00114 13.6787 -4.71237L13.9344 -3.70363C14.1873 -2.70579 15.2137 -2.11323 16.2043 -2.39307L17.2058 -2.67601C17.4924 -2.75701 17.757 -2.49246 17.676 -2.2058L17.393 -1.20433C17.1132 -0.213702 17.7057 0.812649 18.7036 1.0656L19.7123 1.32129C20.0011 1.39448 20.0979 1.75586 19.8845 1.96363L19.1387 2.68943C18.401 3.40743 18.401 4.59254 19.1387 5.3105L19.8845 6.03631C20.0979 6.24408 20.0011 6.60545 19.7123 6.67865L18.7036 6.93434C17.7058 7.18729 17.1132 8.21364 17.393 9.20427L17.676 10.2057C17.757 10.4924 17.4924 10.7569 17.2058 10.6759L16.2043 10.393C15.2137 10.1131 14.1873 10.7057 13.9344 11.7036L13.6787 12.7123C13.6055 13.0011 13.2441 13.0979 13.0363 12.8844L12.3105 12.1387C11.5925 11.401 10.4074 11.401 9.68947 12.1387L8.96367 12.8844C8.75589 13.0979 8.39452 13.0011 8.32133 12.7123L8.06563 11.7036C7.81268 10.7057 6.78633 10.1132 5.7957 10.393L4.79424 10.6759C4.50758 10.7569 4.24302 10.4924 4.32402 10.2057L4.60696 9.20427C4.88684 8.21364 4.29428 7.18729 3.29641 6.93434L2.28767 6.67865C1.9989 6.60545 1.90208 6.24408 2.11554 6.03631L2.86128 5.3105C3.59896 4.59251 3.59896 3.40739 2.86128 2.68943L2.11551 1.96363C1.90204 1.75586 1.99886 1.39448 2.28763 1.32129L3.29637 1.0656C4.29421 0.812649 4.88677 -0.213702 4.60693 -1.20433L4.32399 -2.2058C4.24299 -2.49246 4.50754 -2.75701 4.7942 -2.67601L5.79567 -2.39307C6.7863 -2.11319 7.81265 -2.70575 8.0656 -3.70363L8.32129 -4.71237C8.39448 -5.00114 8.75586 -5.09796 8.96363 -4.88449L9.68943 -4.13876C10.4074 -3.40107 11.5925 -3.40107 12.3105 -4.13876Z" fill="#FFE177"/>
<path d="M19.1421 2.68884L19.8878 1.96304C20.1013 1.75527 20.0045 1.3939 19.7157 1.3207L18.707 1.06501C17.7091 0.812063 17.1166 -0.214288 17.3964 -1.20492L17.6794 -2.20638C17.7604 -2.49305 17.4958 -2.7576 17.2092 -2.6766L16.2077 -2.39366C16.0824 -2.35826 15.9565 -2.33692 15.8316 -2.32848C16.3986 -1.20513 16.7183 0.0643249 16.7183 1.40859C16.7184 5.98436 12.9883 9.71443 8.4125 9.71443C7.06823 9.71443 5.79877 9.39469 4.67543 8.82769C4.66699 8.95253 4.64565 9.07842 4.61025 9.20376L4.32731 10.2052C4.24631 10.4919 4.51086 10.7564 4.79752 10.6754L5.79899 10.3925C6.78962 10.1126 7.81597 10.7052 8.06892 11.703L8.32461 12.7118C8.39781 13.0006 8.75918 13.0974 8.96695 12.8839L9.69275 12.1382C10.4107 11.4005 11.5959 11.4005 12.3138 12.1382L13.0396 12.8839C13.2474 13.0974 13.6088 13.0006 13.682 12.7118L13.9377 11.703C14.1906 10.7052 15.217 10.1126 16.2076 10.3925L17.2091 10.6754C17.4957 10.7564 17.7603 10.4919 17.6793 10.2052L17.3963 9.20376C17.1165 8.21312 17.709 7.18677 18.7068 6.93382L19.7156 6.67813C20.0044 6.60493 20.1012 6.24356 19.8877 6.03579L19.142 5.30999C18.4044 4.59196 18.4044 3.40684 19.1421 2.68884Z" fill="#FFD15B"/>
<path d="M19.1421 2.68884L19.8878 1.96304C20.1013 1.75527 20.0045 1.3939 19.7157 1.3207L18.707 1.06501C17.7091 0.812063 17.1166 -0.214288 17.3964 -1.20492L17.6794 -2.20638C17.7604 -2.49305 17.4958 -2.7576 17.2092 -2.6766L16.2077 -2.39366C16.0824 -2.35826 15.9565 -2.33692 15.8316 -2.32848C16.3986 -1.20513 16.7183 0.0643249 16.7183 1.40859C16.7184 5.98436 12.9883 9.71443 8.4125 9.71443C7.06823 9.71443 5.79877 9.39469 4.67543 8.82769C4.66699 8.95253 4.64565 9.07842 4.61025 9.20376L4.32731 10.2052C4.24631 10.4919 4.51086 10.7564 4.79752 10.6754L5.79899 10.3925C6.78962 10.1126 7.81597 10.7052 8.06892 11.703L8.32461 12.7118C8.39781 13.0006 8.75918 13.0974 8.96695 12.8839L9.69275 12.1382C10.4107 11.4005 11.5959 11.4005 12.3138 12.1382L13.0396 12.8839C13.2474 13.0974 13.6088 13.0006 13.682 12.7118L13.9377 11.703C14.1906 10.7052 15.217 10.1126 16.2076 10.3925L17.2091 10.6754C17.4957 10.7564 17.7603 10.4919 17.6793 10.2052L17.3963 9.20376C17.1165 8.21312 17.709 7.18677 18.7068 6.93382L19.7156 6.67813C20.0044 6.60493 20.1012 6.24356 19.8877 6.03579L19.142 5.30999C18.4044 4.59196 18.4044 3.40684 19.1421 2.68884Z" fill="#FFD15B"/>
<path d="M11.0022 10.0962C14.3689 10.0962 17.0982 7.36695 17.0982 4.00025C17.0982 0.633548 14.3689 -2.0957 11.0022 -2.0957C7.6355 -2.0957 4.90625 0.633548 4.90625 4.00025C4.90625 7.36695 7.6355 10.0962 11.0022 10.0962Z" fill="#FFC344"/>
<path d="M14.6508 -0.880859C15.414 0.13723 15.8663 1.40191 15.8663 2.77226C15.8663 6.13897 13.137 8.86821 9.77031 8.86821C8.39995 8.86821 7.13528 8.416 6.11719 7.65272C7.22914 9.13586 9.0013 10.0956 10.9976 10.0956C14.3644 10.0956 17.0936 7.3663 17.0936 3.9996C17.0936 2.00325 16.1339 0.231098 14.6508 -0.880859Z" fill="#FEB237"/>
</g>
<path opacity="0.8" d="M45.4396 34.9446C44.8206 34.8629 44.2485 34.8376 43.8029 34.8612C43.7335 34.5336 43.2554 34.2571 42.6484 34.2175C42.0331 34.1776 41.5061 34.397 41.3902 34.7193C41.1429 34.4941 40.7939 34.3513 40.4036 34.3513C40.0467 34.3513 39.7249 34.4716 39.483 34.6641C39.1992 34.3218 38.7488 34.0933 38.2322 34.0547C38.0679 33.6395 37.6142 33.3391 37.0736 33.3391C36.8861 33.3391 36.71 33.3781 36.551 33.4424C36.1584 32.8467 35.4135 32.444 34.5575 32.444C33.9796 32.444 33.4535 32.6285 33.0501 32.9301C32.5047 32.5775 31.8283 32.3659 31.0915 32.3659C30.6223 32.3659 30.1775 32.4526 29.7743 32.6056C29.6303 31.6421 28.6706 30.8975 27.5057 30.8975C27.3389 30.8975 27.1764 30.9133 27.02 30.9423C27.0204 30.9273 27.0224 30.9124 27.0224 30.897C27.0224 29.8148 25.9975 28.9377 24.7327 28.9377C24.5622 28.9377 24.3972 28.9551 24.2372 28.985C23.612 27.0121 21.5112 25.5595 19.007 25.5595C17.8275 25.5595 16.7395 25.885 15.8495 26.4315C15.6361 24.7237 13.948 23.3934 11.8949 23.3934C10.7363 23.3934 9.69663 23.8198 8.96933 24.4959C8.64501 21.3924 5.60232 18.9594 1.89049 18.9594C0.183387 18.9594 -1.38215 19.4749 -2.60804 20.3325C-4.29051 18.3161 -7.04655 17 -10.164 17C-14.6455 17 -18.384 19.7163 -19.2539 23.33C-19.8896 23.1733 -20.5591 23.0849 -21.2537 23.0849C-24.9608 23.0849 -28.0111 25.4717 -28.4319 28.546C-28.8649 28.4178 -29.3279 28.3445 -29.8126 28.3445C-31.3825 28.3445 -32.7497 29.0804 -33.476 30.1693C-33.9202 30.0572 -34.3885 29.9944 -34.8751 29.9944C-36.6011 29.9944 -38.1186 30.7526 -39.0019 31.9C-39.3383 31.7062 -39.7431 31.5931 -40.1786 31.5931C-41.1385 31.5931 -41.9474 32.1422 -42.2032 32.8927C-42.3952 32.8204 -42.607 32.779 -42.8309 32.779C-43.5402 32.779 -44.1317 33.1844 -44.3253 33.7379C-44.8222 33.8226 -45.2392 34.0868 -45.4928 34.4461C-45.5102 34.4454 -45.5261 34.4415 -45.5437 34.4415C-45.9338 34.4415 -46.2826 34.5842 -46.5297 34.8098C-46.6456 34.4872 -47.1726 34.2677 -47.7883 34.3076C-48.3953 34.3474 -48.8739 34.624 -48.9428 34.9511C-49.3884 34.9279 -49.9609 34.9532 -50.5795 35.0349C-51.9335 35.2132 -52.9872 35.5902 -52.9357 35.8774C-52.8891 36.1351 -51.9695 36.2316 -50.8049 36.1204C-50.5565 36.3005 -50.037 36.4356 -49.424 36.4538C-48.8782 36.47 -48.3951 36.3892 -48.1108 36.2539C-47.9121 36.4609 -47.6138 36.5957 -47.2763 36.5957C-47.0014 36.5957 -46.7536 36.5056 -46.5626 36.3614C-46.3138 36.6058 -45.9518 36.763 -45.5439 36.763C-45.2672 36.763 -45.0107 36.6913 -44.7967 36.5702C-44.55 36.6809 -44.2741 36.7494 -43.9759 36.7494C-43.4638 36.7494 -43.0052 36.5612 -42.6809 36.2644C-42.2949 36.6849 -41.6963 36.9559 -41.0232 36.9559C-40.2916 36.9559 -39.6473 36.6369 -39.2687 36.1533C-38.4485 37.5169 -36.7913 38.4513 -34.8753 38.4513C-33.3293 38.4513 -31.95 37.8432 -31.0439 36.8925C-30.3888 38.2319 -28.8438 39.1731 -27.0402 39.1731C-25.0943 39.1731 -23.4482 38.0777 -22.8979 36.5684C-22.2774 37.9697 -20.6986 38.9674 -18.8433 38.9674C-17.1896 38.9674 -15.7526 38.1751 -15.0205 37.0108C-13.7528 38.7998 -11.4625 39.9991 -8.83851 39.9991C-6.81909 39.9991 -4.99525 39.2897 -3.68346 38.148C-2.87441 39.258 -1.43927 39.9985 0.201808 39.9985C1.56948 39.9985 2.7933 39.4834 3.63236 38.6707C5.00686 39.6899 6.79882 40.3077 8.76071 40.3077C11.1262 40.3077 13.2454 39.4095 14.6818 37.9915C15.5695 38.6008 16.6948 38.9672 17.9215 38.9672C19.6402 38.9672 21.1587 38.2484 22.1021 37.147C22.8219 37.7618 23.815 38.1422 24.913 38.1422C26.3322 38.1422 27.5746 37.5047 28.279 36.5481C28.8423 37.3772 29.889 37.9357 31.0911 37.9357C32.0355 37.9357 32.8828 37.5902 33.4769 37.0412C33.8593 37.2943 34.337 37.446 34.8582 37.446C35.6896 37.446 36.4144 37.0607 36.8068 36.4884C37.1218 36.7894 37.5739 36.9819 38.0824 36.9819C38.6617 36.9819 39.1708 36.7354 39.4821 36.36C39.7241 36.5521 40.0459 36.6727 40.4027 36.6727C40.8113 36.6727 41.1731 36.5151 41.4219 36.2711C41.6129 36.4151 41.8607 36.505 42.1355 36.505C42.4735 36.505 42.7707 36.3706 42.97 36.1636C43.2546 36.2989 43.7371 36.3793 44.2839 36.3632C44.8959 36.3453 45.4156 36.2102 45.6646 36.0297C46.8294 36.1409 47.7488 36.0446 47.7954 35.7871C47.8473 35.5001 46.793 35.1231 45.4396 34.9446Z" fill="#A1A1A1"/>
<path opacity="0.8" d="M154.119 34.5368C154.119 34.0898 152.243 33.7258 149.87 33.6952C149.87 33.6837 149.872 33.6721 149.872 33.66C149.872 32.8523 149.155 32.1986 148.272 32.1986C147.914 32.1986 147.586 32.3071 147.32 32.4881C147.315 32.4816 147.311 32.4757 147.307 32.4695C146.95 30.8512 145.385 29.6326 143.51 29.6326C143.19 29.6326 142.88 29.6719 142.583 29.7387C142.208 28.9866 141.38 28.4633 140.417 28.4633C139.712 28.4633 139.081 28.7441 138.646 29.1888C138.157 28.5538 137.35 28.1384 136.437 28.1384C136.304 28.1384 136.174 28.1499 136.046 28.1671C136.136 27.8679 136.188 27.5543 136.188 27.229C136.188 25.2734 134.453 23.6888 132.314 23.6888C131.194 23.6888 130.189 24.1251 129.481 24.8183C128.969 23.7336 127.789 22.9738 126.413 22.9738C125.238 22.9738 124.206 23.5303 123.61 24.3692C123.207 23.7851 122.497 23.3962 121.687 23.3962C121.463 23.3962 121.248 23.4266 121.044 23.4817C120.53 22.6001 119.515 22 118.345 22C117.212 22 116.225 22.5646 115.697 23.4019C115.656 23.3999 115.614 23.3962 115.573 23.3962C114.738 23.3962 114.011 23.808 113.615 24.42C112.913 23.8074 111.964 23.429 110.917 23.429C109.765 23.429 108.732 23.8867 108.017 24.611C107.012 23.9499 105.78 23.5591 104.448 23.5591C102.615 23.5591 100.971 24.2973 99.8505 25.4648C99.4086 25.285 98.9205 25.1828 98.4054 25.1828C96.4427 25.1828 94.8511 26.6364 94.8511 28.4306C94.8511 28.4984 94.8578 28.5646 94.8624 28.631C94.677 28.5867 94.4833 28.5603 94.2825 28.5603C93.4061 28.5603 92.6467 29.0142 92.2664 29.6782C91.8039 29.4636 91.2824 29.34 90.7282 29.34C89.2615 29.34 88.0145 30.1879 87.5321 31.3749C87.438 31.3622 87.3425 31.3539 87.2452 31.3539C86.2162 31.3539 85.3703 32.0669 85.2654 32.9817C85.2382 32.9802 85.211 32.9781 85.1834 32.9781C84.5549 32.9781 84.0282 33.3704 83.8774 33.902C83.7241 33.8928 83.5673 33.8869 83.4062 33.8869C82.125 33.8869 81.0495 34.1929 80.7319 34.608C80.6293 34.6042 80.5263 34.6018 80.4205 34.6018C78.8895 34.6018 77.6484 35.0376 77.6484 35.5759C77.6484 36.1142 78.8895 36.5503 80.4205 36.5503C80.6183 36.5503 80.8109 36.543 80.9973 36.5288C81.4513 36.8493 82.3901 37.0701 83.4774 37.0701C83.584 37.0701 83.689 37.0675 83.7924 37.0633C83.9189 37.5872 84.4295 37.9798 85.0413 37.9798C85.1808 37.9798 85.3148 37.9585 85.4406 37.9207C85.8802 38.4676 86.5873 38.8238 87.3869 38.8238C87.7876 38.8238 88.1643 38.7334 88.4974 38.5758C88.8551 38.8898 89.3398 39.0837 89.8746 39.0837C90.4166 39.0837 90.9072 38.8853 91.266 38.5646C91.8912 39.2764 92.8498 39.7333 93.9266 39.7333C94.8125 39.7333 95.6163 39.4226 96.2229 38.9169C96.5044 39.4752 97.12 39.8633 97.8365 39.8633C98.4766 39.8633 99.0358 39.5532 99.3488 39.0893C99.8627 39.3725 100.462 39.5384 101.106 39.5384C101.899 39.5384 102.625 39.2894 103.205 38.876C103.53 39.2026 103.997 39.4093 104.519 39.4093C105.03 39.4093 105.489 39.2103 105.814 38.8946C106.307 39.594 107.165 40.0579 108.144 40.0579C108.916 40.0579 109.614 39.7694 110.117 39.3037C111.041 39.9653 112.394 40.3828 113.902 40.3828C115.759 40.3828 117.38 39.7502 118.257 38.8086C118.793 39.615 119.76 40.1557 120.869 40.1557C121.238 40.1557 121.589 40.0931 121.917 39.9836C122.322 40.5921 123.053 41 123.89 41C124.719 41 125.446 40.5985 125.853 39.9977C126.768 40.607 127.895 40.9674 129.114 40.9674C131.02 40.9674 132.7 40.0894 133.699 38.7514C134.307 39.3353 135.164 39.7009 136.116 39.7009C137.109 39.7009 137.999 39.3031 138.611 38.6739C138.83 38.7484 139.067 38.7915 139.315 38.7915C139.599 38.7915 139.869 38.7374 140.115 38.6407C140.777 38.8188 141.54 38.9213 142.354 38.9213C144.672 38.9213 146.581 38.0983 146.877 37.0319C146.915 37.0343 146.953 37.0373 146.992 37.0373C147.535 37.0373 148.014 36.7896 148.303 36.4118C148.527 36.5206 148.782 36.5827 149.054 36.5827C149.849 36.5827 150.507 36.0515 150.631 35.3567C152.632 35.2667 154.119 34.9344 154.119 34.5368Z" fill="#A1A1A1"/>
<path opacity="0.8" d="M107.057 39.5368C107.057 39.0898 105.181 38.7258 102.807 38.6952C102.808 38.6837 102.809 38.6721 102.809 38.66C102.809 37.8523 102.093 37.1986 101.21 37.1986C100.852 37.1986 100.523 37.3071 100.257 37.4881C100.253 37.4816 100.248 37.4757 100.244 37.4695C99.8872 35.8512 98.3229 34.6326 96.4471 34.6326C96.1271 34.6326 95.8178 34.6719 95.5204 34.7387C95.1454 33.9866 94.3178 33.4633 93.3545 33.4633C92.65 33.4633 92.0188 33.7441 91.5831 34.1888C91.0943 33.5538 90.2877 33.1384 89.3742 33.1384C89.241 33.1384 89.1112 33.1499 88.9834 33.1671C89.0733 32.8679 89.1255 32.5543 89.1255 32.229C89.1255 30.2734 87.3909 28.6888 85.2512 28.6888C84.1316 28.6888 83.1266 29.1251 82.419 29.8183C81.9064 28.7336 80.726 27.9738 79.3509 27.9738C78.1752 27.9738 77.1433 28.5303 76.5477 29.3692C76.1449 28.7851 75.4349 28.3962 74.624 28.3962C74.4005 28.3962 74.1852 28.4266 73.9814 28.4817C73.4673 27.6001 72.4521 27 71.2827 27C70.1493 27 69.1621 27.5646 68.6344 28.4019C68.593 28.3999 68.5518 28.3962 68.51 28.3962C67.6757 28.3962 66.9481 28.808 66.5521 29.42C65.8503 28.8074 64.9012 28.429 63.8541 28.429C62.7023 28.429 61.6699 28.8867 60.9544 29.611C59.9498 28.9499 58.7178 28.5591 57.3852 28.5591C55.5521 28.5591 53.9085 29.2973 52.788 30.4648C52.3461 30.285 51.858 30.1828 51.3429 30.1828C49.3802 30.1828 47.7886 31.6364 47.7886 33.4306C47.7886 33.4984 47.7953 33.5646 47.7999 33.631C47.6145 33.5867 47.4208 33.5603 47.22 33.5603C46.3436 33.5603 45.5842 34.0142 45.2039 34.6782C44.7414 34.4636 44.2199 34.34 43.6657 34.34C42.199 34.34 40.952 35.1879 40.4696 36.3749C40.3755 36.3622 40.28 36.3539 40.1827 36.3539C39.1537 36.3539 38.3078 37.0669 38.2029 37.9817C38.1757 37.9802 38.1485 37.9781 38.1209 37.9781C37.4924 37.9781 36.9657 38.3704 36.8149 38.902C36.6616 38.8928 36.5048 38.8869 36.3437 38.8869C35.0625 38.8869 33.987 39.1929 33.6694 39.608C33.5668 39.6042 33.4638 39.6018 33.358 39.6018C31.827 39.6018 30.5859 40.0376 30.5859 40.5759C30.5859 41.1142 31.827 41.5503 33.358 41.5503C33.5558 41.5503 33.7484 41.543 33.9348 41.5288C34.3888 41.8493 35.3276 42.0701 36.4149 42.0701C36.5215 42.0701 36.6265 42.0675 36.7299 42.0633C36.8564 42.5872 37.367 42.9798 37.9788 42.9798C38.1183 42.9798 38.2523 42.9585 38.3781 42.9207C38.8177 43.4676 39.5248 43.8238 40.3244 43.8238C40.7251 43.8238 41.1018 43.7334 41.4349 43.5758C41.7926 43.8898 42.2773 44.0837 42.8121 44.0837C43.3541 44.0837 43.8447 43.8853 44.2035 43.5646C44.8287 44.2764 45.7873 44.7333 46.8641 44.7333C47.75 44.7333 48.5538 44.4226 49.1604 43.9169C49.4419 44.4752 50.0575 44.8633 50.774 44.8633C51.4141 44.8633 51.9733 44.5532 52.2863 44.0893C52.8002 44.3725 53.4 44.5384 54.0439 44.5384C54.836 44.5384 55.5629 44.2894 56.1423 43.876C56.4672 44.2026 56.9346 44.4093 57.4561 44.4093C57.9673 44.4093 58.4269 44.2103 58.7513 43.8946C59.2447 44.594 60.103 45.0579 61.0813 45.0579C61.8533 45.0579 62.5514 44.7694 63.054 44.3037C63.9787 44.9653 65.3316 45.3828 66.8397 45.3828C68.6962 45.3828 70.3178 44.7502 71.1944 43.8086C71.7304 44.615 72.698 45.1557 73.8061 45.1557C74.1751 45.1557 74.527 45.0931 74.854 44.9836C75.2598 45.5921 75.99 46 76.8271 46C77.6568 46 78.3831 45.5985 78.7903 44.9977C79.7055 45.607 80.8321 45.9674 82.0517 45.9674C83.9572 45.9674 85.6379 45.0894 86.636 43.7514C87.2446 44.3353 88.1015 44.7009 89.0536 44.7009C90.047 44.7009 90.9362 44.3031 91.5482 43.6739C91.7676 43.7484 92.0045 43.7915 92.2527 43.7915C92.5367 43.7915 92.8068 43.7374 93.0526 43.6407C93.7147 43.8188 94.4774 43.9213 95.2913 43.9213C97.6091 43.9213 99.519 43.0983 99.8144 42.0319C99.8527 42.0343 99.8908 42.0373 99.9298 42.0373C100.473 42.0373 100.951 41.7896 101.241 41.4118C101.465 41.5206 101.72 41.5827 101.991 41.5827C102.787 41.5827 103.445 41.0515 103.568 40.3567C105.569 40.2667 107.057 39.9344 107.057 39.5368Z" fill="#A1A1A1"/>
<path opacity="0.8" d="M80.0018 40.5368C80.0018 40.0898 78.1259 39.7258 75.7524 39.6952C75.7529 39.6837 75.7544 39.6721 75.7544 39.66C75.7544 38.8523 75.0382 38.1986 74.1553 38.1986C73.7973 38.1986 73.4683 38.3071 73.2023 38.4881C73.1981 38.4816 73.1937 38.4757 73.1897 38.4695C72.8325 36.8512 71.2682 35.6326 69.3924 35.6326C69.0724 35.6326 68.7631 35.6719 68.4657 35.7387C68.0907 34.9866 67.2631 34.4633 66.2998 34.4633C65.5953 34.4633 64.9641 34.7441 64.5284 35.1888C64.0397 34.5538 63.233 34.1384 62.3196 34.1384C62.1863 34.1384 62.0565 34.1499 61.9287 34.1671C62.0186 33.8679 62.0708 33.5543 62.0708 33.229C62.0708 31.2734 60.3362 29.6888 58.1965 29.6888C57.077 29.6888 56.0719 30.1251 55.3643 30.8183C54.8517 29.7336 53.6714 28.9738 52.2962 28.9738C51.1205 28.9738 50.0886 29.5303 49.493 30.3692C49.0902 29.7851 48.3802 29.3962 47.5693 29.3962C47.3458 29.3962 47.1306 29.4266 46.9267 29.4817C46.4127 28.6001 45.3974 28 44.228 28C43.0946 28 42.1074 28.5646 41.5797 29.4019C41.5384 29.3999 41.4971 29.3962 41.4554 29.3962C40.621 29.3962 39.8934 29.808 39.4974 30.42C38.7956 29.8074 37.8465 29.429 36.7994 29.429C35.6476 29.429 34.6152 29.8867 33.8997 30.611C32.8951 29.9499 31.6631 29.5591 30.3305 29.5591C28.4974 29.5591 26.8538 30.2973 25.7333 31.4648C25.2914 31.285 24.8033 31.1828 24.2882 31.1828C22.3255 31.1828 20.734 32.6364 20.734 34.4306C20.734 34.4984 20.7406 34.5646 20.7452 34.631C20.5598 34.5867 20.3661 34.5603 20.1653 34.5603C19.2889 34.5603 18.5295 35.0142 18.1492 35.6782C17.6867 35.4636 17.1652 35.34 16.611 35.34C15.1443 35.34 13.8973 36.1879 13.4149 37.3749C13.3208 37.3622 13.2253 37.3539 13.1281 37.3539C12.099 37.3539 11.2531 38.0669 11.1483 38.9817C11.121 38.9802 11.0938 38.9781 11.0662 38.9781C10.4377 38.9781 9.91097 39.3704 9.76016 39.902C9.60696 39.8928 9.4501 39.8869 9.28902 39.8869C8.00785 39.8869 6.93234 40.1929 6.61469 40.608C6.51213 40.6042 6.40915 40.6018 6.30336 40.6018C4.77233 40.6018 3.53125 41.0376 3.53125 41.5759C3.53125 42.1142 4.77233 42.5503 6.30336 42.5503C6.50116 42.5503 6.69375 42.543 6.88015 42.5288C7.33413 42.8493 8.27289 43.0701 9.36021 43.0701C9.46685 43.0701 9.57179 43.0675 9.67519 43.0633C9.80167 43.5872 10.3123 43.9798 10.9242 43.9798C11.0636 43.9798 11.1976 43.9585 11.3234 43.9207C11.763 44.4676 12.4701 44.8238 13.2697 44.8238C13.6704 44.8238 14.0471 44.7334 14.3803 44.5758C14.7379 44.8898 15.2227 45.0837 15.7574 45.0837C16.2994 45.0837 16.79 44.8853 17.1488 44.5646C17.774 45.2764 18.7326 45.7333 19.8094 45.7333C20.6953 45.7333 21.4991 45.4226 22.1057 44.9169C22.3872 45.4752 23.0029 45.8633 23.7193 45.8633C24.3594 45.8633 24.9186 45.5532 25.2317 45.0893C25.7456 45.3725 26.3453 45.5384 26.9892 45.5384C27.7813 45.5384 28.5082 45.2894 29.0876 44.876C29.4125 45.2026 29.8799 45.4093 30.4014 45.4093C30.9126 45.4093 31.3722 45.2103 31.6966 44.8946C32.19 45.594 33.0483 46.0579 34.0266 46.0579C34.7986 46.0579 35.4967 45.7694 35.9993 45.3037C36.924 45.9653 38.277 46.3828 39.7851 46.3828C41.6415 46.3828 43.2631 45.7502 44.1397 44.8086C44.6757 45.615 45.6433 46.1557 46.7514 46.1557C47.1204 46.1557 47.4723 46.0931 47.7993 45.9836C48.2051 46.5921 48.9353 47 49.7724 47C50.6021 47 51.3285 46.5985 51.7356 45.9977C52.6509 46.607 53.7774 46.9674 54.997 46.9674C56.9025 46.9674 58.5832 46.0894 59.5813 44.7514C60.1899 45.3353 61.0468 45.7009 61.9989 45.7009C62.9923 45.7009 63.8815 45.3031 64.4935 44.6739C64.713 44.7484 64.9499 44.7915 65.198 44.7915C65.4821 44.7915 65.7522 44.7374 65.9979 44.6407C66.66 44.8188 67.4227 44.9213 68.2366 44.9213C70.5544 44.9213 72.4643 44.0983 72.7597 43.0319C72.798 43.0343 72.8361 43.0373 72.8751 43.0373C73.418 43.0373 73.8966 42.7896 74.186 42.4118C74.4101 42.5206 74.6653 42.5827 74.9365 42.5827C75.732 42.5827 76.39 42.0515 76.5135 41.3567C78.5144 41.2667 80.0018 40.9344 80.0018 40.5368Z" fill="#A1A1A1"/>
</g>
<defs>
<linearGradient id="paint0_linear_22224_15611" x1="60" y1="0" x2="60" y2="34" gradientUnits="userSpaceOnUse">
<stop stop-color="#ECECEC"/>
<stop offset="1" stop-color="#AAAAAA"/>
</linearGradient>
<clipPath id="clip0_22224_15611">
<rect width="120" height="34" fill="white"/>
</clipPath>
<clipPath id="clip1_22224_15611">
<rect width="18" height="18" fill="white" transform="translate(2 -5)"/>
</clipPath>
</defs>
</svg>
