<svg width="18" height="18" viewBox="0 0 18 18" fill="none" xmlns="http://www.w3.org/2000/svg">
<rect width="18" height="18" rx="2" fill="#DC5A37"/>
<g clip-path="url(#clip0_19835_14507)">
<path d="M8.58241 14.7824C8.58227 14.7824 8.58247 14.7824 8.58233 14.7824C6.76709 14.7824 5.2398 14.6972 4.04986 14.5929C3.31636 14.5285 2.8571 13.7692 3.1383 13.0887C3.91831 11.201 4.88133 9.33627 6.01106 7.52776C6.78005 6.29671 7.5224 5.2591 8.15016 4.44272C8.58796 3.87337 9.44445 3.87321 9.88228 4.44253C10.5069 5.25483 11.2453 6.28657 12.0105 7.51004C13.1344 9.30721 14.0938 11.1602 14.8726 13.0363C15.1553 13.7174 14.6943 14.4778 13.9596 14.5424C12.1456 14.7018 10.3428 14.7824 8.58241 14.7824Z" fill="white"/>
<path d="M9.27274 4.04589C9.05973 4.10189 8.86034 4.23546 8.7129 4.44631C8.13702 5.2699 7.45607 6.31681 6.75072 7.55879C5.71433 9.38336 4.83088 11.2646 4.11549 13.1689C3.88165 13.791 4.20572 14.4783 4.76939 14.6502C4.51736 14.632 4.27753 14.6126 4.04989 14.5928C3.31629 14.5284 2.85721 13.7692 3.13822 13.0884C3.91826 11.201 4.88141 9.33622 6.01115 7.52767C6.78016 6.29671 7.52241 5.25888 8.15022 4.44273C8.42735 4.08225 8.87256 3.94991 9.27274 4.04589Z" fill="#E5E5E5"/>
<path d="M14.0859 9.4384V9.35927C14.0859 9.08014 14.3021 8.84868 14.5806 8.82956L15.4372 8.7708C15.744 8.74975 16.0044 8.99297 16.0044 9.30051V9.49716C16.0044 9.8047 15.744 10.0479 15.4372 10.0269L14.5806 9.9681C14.3021 9.94902 14.0859 9.71755 14.0859 9.4384Z" fill="white"/>
<path d="M13.4233 6.89306L13.3837 6.82451C13.2441 6.58277 13.3156 6.27425 13.5472 6.11847L14.2596 5.6393C14.5148 5.46766 14.862 5.54805 15.0158 5.81438L15.1141 5.9847C15.2679 6.25103 15.1639 6.5919 14.8876 6.72709L14.1164 7.10448C13.8657 7.2272 13.5628 7.13481 13.4233 6.89306Z" fill="white"/>
<path d="M11.5763 5.01844L11.5077 4.97888C11.266 4.83932 11.1736 4.5364 11.2963 4.28569L11.6737 3.51448C11.8089 3.23826 12.1498 3.1343 12.4161 3.28805L12.5864 3.38638C12.8528 3.54016 12.9331 3.88732 12.7615 4.14251L12.2823 4.85496C12.1266 5.08656 11.818 5.15801 11.5763 5.01844Z" fill="white"/>
<path d="M3.91849 9.4384V9.35927C3.91849 9.08014 3.70237 8.84868 3.42387 8.82956L2.56727 8.7708C2.26048 8.74975 2 8.99297 2 9.30051V9.49716C2 9.8047 2.26048 10.0479 2.56727 10.0269L3.42387 9.9681C3.70234 9.94902 3.91849 9.71755 3.91849 9.4384Z" fill="white"/>
<path d="M4.58241 6.89306L4.62197 6.82451C4.76153 6.58277 4.69009 6.27425 4.45848 6.11847L3.74604 5.6393C3.49084 5.46766 3.14369 5.54805 2.98991 5.81438L2.89158 5.9847C2.7378 6.25103 2.84178 6.5919 3.11801 6.72709L3.88921 7.10448C4.13993 7.2272 4.44284 7.13481 4.58241 6.89306Z" fill="white"/>
<path d="M6.42412 5.01844L6.49267 4.97888C6.73442 4.83932 6.82678 4.5364 6.70409 4.28569L6.32669 3.51448C6.19151 3.23826 5.85064 3.1343 5.58431 3.28805L5.41399 3.38638C5.14766 3.54016 5.06727 3.88732 5.23891 4.14251L5.71808 4.85496C5.87385 5.08656 6.18237 5.15801 6.42412 5.01844Z" fill="white"/>
<path d="M8.7001 6.92556C8.90435 6.90502 9.10861 6.90502 9.31287 6.92556C9.5713 6.95156 9.76913 7.16739 9.77867 7.42693C9.80982 8.27593 9.80982 9.12492 9.77867 9.97392C9.76916 10.2335 9.5713 10.4493 9.31287 10.4753C9.10861 10.4958 8.90435 10.4958 8.7001 10.4753C8.44167 10.4493 8.24384 10.2335 8.2343 9.97392C8.20315 9.12492 8.20315 8.27593 8.2343 7.42693C8.24384 7.16736 8.44167 6.95153 8.7001 6.92556Z" fill="#DC5A37"/>
<path d="M8.71489 11.4074C8.90928 11.3981 9.10366 11.3981 9.29805 11.4074C9.56594 11.4202 9.78108 11.6358 9.79316 11.9037C9.80495 12.1649 9.80495 12.4261 9.79316 12.6873C9.78108 12.9552 9.56594 13.1709 9.29805 13.1837C9.10366 13.193 8.90928 13.193 8.71489 13.1837C8.447 13.1709 8.23186 12.9552 8.21978 12.6873C8.20799 12.4261 8.20799 12.1649 8.21978 11.9037C8.23186 11.6358 8.447 11.4202 8.71489 11.4074Z" fill="#DC5A37"/>
</g>
<defs>
<clipPath id="clip0_19835_14507">
<rect width="14" height="14" fill="white" transform="translate(2 2)"/>
</clipPath>
</defs>
</svg>
