<svg width="20" height="20" viewBox="0 0 20 20" fill="none" xmlns="http://www.w3.org/2000/svg">
<path d="M14.2309 2.91929H12.6716C12.4863 2.91929 12.3359 2.76892 12.3359 2.58367C12.3359 2.39841 12.4863 2.24805 12.6716 2.24805H14.2309C14.4162 2.24805 14.5665 2.39841 14.5665 2.58367C14.5665 2.76892 14.4162 2.91929 14.2309 2.91929Z" fill="#FC6559"/>
<path d="M13.5942 4.34702H12.6716C12.4863 4.34702 12.3359 4.19666 12.3359 4.0114C12.3359 3.82615 12.4863 3.67578 12.6716 3.67578H13.5942C13.7794 3.67578 13.9298 3.82615 13.9298 4.0114C13.9298 4.19666 13.7794 4.34702 13.5942 4.34702Z" fill="#FC6559"/>
<path d="M13.5942 7.20054H12.6716C12.4863 7.20054 12.3359 7.05017 12.3359 6.86492C12.3359 6.67966 12.4863 6.5293 12.6716 6.5293H13.5942C13.7794 6.5293 13.9298 6.67966 13.9298 6.86492C13.9298 7.05017 13.7794 7.20054 13.5942 7.20054Z" fill="#FC6559"/>
<path d="M14.2309 5.7728H12.6716C12.4863 5.7728 12.3359 5.62244 12.3359 5.43718C12.3359 5.25193 12.4863 5.10156 12.6716 5.10156H14.2309C14.4162 5.10156 14.5665 5.25193 14.5665 5.43718C14.5665 5.62244 14.4162 5.7728 14.2309 5.7728Z" fill="#FC6559"/>
<path d="M13.5942 10.0541H12.6716C12.4863 10.0541 12.3359 9.90369 12.3359 9.71843C12.3359 9.53318 12.4863 9.38281 12.6716 9.38281H13.5942C13.7794 9.38281 13.9298 9.53318 13.9298 9.71843C13.9298 9.90369 13.7794 10.0541 13.5942 10.0541Z" fill="#FC6559"/>
<path d="M14.2309 8.62632H12.6716C12.4863 8.62632 12.3359 8.47596 12.3359 8.2907C12.3359 8.10544 12.4863 7.95508 12.6716 7.95508H14.2309C14.4162 7.95508 14.5665 8.10544 14.5665 8.2907C14.5665 8.47596 14.4162 8.62632 14.2309 8.62632Z" fill="#FC6559"/>
<path d="M5.82812 14.7672C5.82812 17.2967 7.94685 19.3314 10.5064 19.1934C12.7696 19.0714 14.6084 17.1977 14.6907 14.9326C14.7507 13.2808 13.9078 11.8204 12.6155 11.012V2.35458C12.6155 1.05418 11.5613 0 10.2609 0C8.9605 0 7.90631 1.05418 7.90631 2.35458V11.012C6.65732 11.7933 5.82812 13.1837 5.82812 14.7672Z" fill="#E4E3FF"/>
<path d="M14.6956 14.9315C14.6126 17.1976 12.7729 19.069 10.5106 19.1914C10.2935 19.2032 10.0843 19.1993 9.875 19.1795C12.078 18.994 13.8428 17.1502 13.9257 14.9315C13.9849 13.2812 13.144 11.8204 11.853 11.0111V2.35301C11.853 1.18441 11.0041 0.217137 9.8829 0.0355188C10.0092 0.0118316 10.1356 0 10.2659 0C11.5648 0 12.6189 1.05412 12.6189 2.35301V11.0111C13.9138 11.8204 14.7548 13.2812 14.6956 14.9315Z" fill="#D0D0F7"/>
<path d="M8.6631 12.0116L9.1563 11.7031V6.76784C9.1563 6.15609 9.65223 5.66016 10.264 5.66016C10.8758 5.66016 11.3717 6.15609 11.3717 6.76784V11.7029L11.9572 12.0694C13.2862 12.9007 13.8696 14.6489 13.1175 16.1972C12.6834 17.0906 11.8239 17.7335 10.8452 17.9028C10.6495 17.9366 10.4546 17.9535 10.264 17.9535C8.39384 17.9535 6.89492 16.3338 7.0963 14.4235C7.20172 13.4235 7.8106 12.5449 8.6631 12.0116Z" fill="#FC6559"/>
<g opacity="0.3">
<path d="M8.57943 16.7286C8.50039 16.7286 8.42155 16.6972 8.36314 16.6348C7.80486 16.0379 7.54596 15.2661 7.63406 14.461C7.7023 13.8393 8.01267 13.2379 8.50772 12.7673C8.62608 12.6542 8.81327 12.6592 8.92623 12.7779C9.039 12.8965 9.03419 13.0838 8.91563 13.1964C8.52179 13.5708 8.27581 14.0427 8.2228 14.5256C8.15359 15.1562 8.35716 15.7615 8.79572 16.2303C8.90734 16.3496 8.90117 16.537 8.78165 16.6488C8.72459 16.7022 8.65191 16.7286 8.57943 16.7286Z" fill="white"/>
</g>
<path d="M13.1142 16.1955C12.6799 17.0917 11.8193 17.7352 10.8402 17.901C10.6467 17.9366 10.4493 17.9524 10.2598 17.9524C10.0703 17.9524 9.88472 17.9366 9.70312 17.905C9.711 17.905 9.71891 17.901 9.72681 17.901C10.7059 17.7352 11.5626 17.0917 11.9969 16.1955C12.751 14.6479 12.1667 12.8989 10.8362 12.0698L10.2519 11.7027V6.76762C10.2519 6.45966 10.1256 6.1833 9.92817 5.98194C9.86103 5.91483 9.78602 5.8556 9.70312 5.81218C9.86498 5.71348 10.0545 5.6582 10.2598 5.6582C10.5677 5.6582 10.8441 5.78062 11.0415 5.98194C11.2428 6.1833 11.3652 6.45966 11.3652 6.76762V11.7027L11.9535 12.0698C13.28 12.8989 13.8643 14.6479 13.1142 16.1955Z" fill="#F05543"/>
<g opacity="0.5">
<path d="M8.86321 2.70269V4.86193C8.86321 5.04069 8.74162 5.18572 8.59176 5.18572C8.4419 5.18572 8.32031 5.04069 8.32031 4.86193V2.70269C8.32031 2.52394 8.4419 2.37891 8.59176 2.37891C8.74162 2.37891 8.86321 2.52394 8.86321 2.70269Z" fill="white"/>
<path d="M8.86321 5.64996V5.79645C8.86321 5.97521 8.74162 6.12023 8.59176 6.12023C8.4419 6.12023 8.32031 5.97521 8.32031 5.79645V5.64996C8.32031 5.4712 8.4419 5.32617 8.59176 5.32617C8.74162 5.32617 8.86321 5.4712 8.86321 5.64996Z" fill="white"/>
</g>
</svg>
