<svg width="120" height="34" viewBox="0 0 120 34" fill="none" xmlns="http://www.w3.org/2000/svg">
<g clip-path="url(#clip0_22224_14648)">
<rect width="120" height="34" fill="url(#paint0_linear_22224_14648)"/>
<g opacity="0.6">
<path d="M-5.95009 32.4133C-6.4283 34.4571 -5.62466 36.6854 -3.88103 38.1504C-4.08928 36.5644 -4.39357 34.3708 -3.29517 33.0144C-2.72562 32.311 -2.00134 31.6866 -1.59862 30.9043C-0.94397 29.6325 -1.30611 28.0323 -2.46907 27.0576C-1.37415 27.851 -0.252243 28.6726 0.410431 29.7582C1.24068 31.1183 1.22597 32.6707 1.51357 34.1473C1.6451 34.8223 1.8437 35.3486 2.18227 35.9424C2.39174 36.31 3.23311 37.0525 3.23358 37.4341C3.23019 34.6686 3.56148 30.9151 5.66197 28.8031C7.01892 27.4388 8.96022 26.6018 10.5273 25.4112C12.0944 24.2207 13.3261 22.3561 12.5749 20.6876C12.655 20.8652 13.7822 21.2432 14.0157 21.3818C14.5013 21.6702 14.9529 21.9997 15.3642 22.362C16.1598 23.0628 16.8051 23.8882 17.2512 24.7854C18.3378 26.9704 16.9041 29.2112 17.5841 31.4033C17.8023 32.1069 18.2474 33.0508 18.9246 33.5295C19.5699 33.9857 20.1597 33.9468 20.3951 34.7711C20.3622 34.656 20.7049 34.0648 20.7847 33.9382C20.9528 33.6714 21.2486 33.4613 21.4255 33.1916C21.6111 32.9085 21.7294 32.5837 21.6914 32.2612C21.6535 31.939 21.4657 31.646 21.3239 31.3454C21.6028 31.4213 21.8761 31.5175 22.1212 31.6536C22.445 31.8334 22.7109 32.0773 22.9733 32.3188C23.4225 32.7321 23.5333 33.2731 23.7429 33.8028C24.2633 31.3343 26.8519 29.2567 28.7527 27.4734C27.7614 29.3924 27.4119 31.5375 27.6911 33.6168C27.8625 34.8925 28.9784 37.4512 30.3361 38.1751C30.2414 37.6306 30.4519 37.1204 30.7067 36.629C31.2549 35.5716 31.9443 34.6892 32.7403 33.776C33.138 33.3197 33.5814 32.8957 34.0618 32.5013C34.3178 32.2911 35.0668 31.9238 35.1904 31.6528C34.8412 32.4191 34.9096 33.5864 35.218 34.3528C35.4045 34.8165 36.6831 36.1373 35.9418 36.6154C37.1031 35.8665 38.8185 34.8822 38.9062 33.6011C38.9935 32.327 38.2791 31.0851 38.2519 29.8146C38.1853 26.696 40.7905 23.9625 43.7736 22.1461C41.6085 24.3696 41.021 27.7775 42.866 30.2006C43.716 31.3168 44.9971 32.1662 45.7921 33.3113C46.3786 34.1561 46.5267 35.1245 46.2024 36.0593C46.0241 36.5734 45.7475 36.7379 45.6938 37.2582C45.6492 37.691 45.9948 38.1539 45.8862 38.6102C46.3119 36.8222 49.0298 36.7284 49.2649 34.6893C49.3786 33.7027 48.8872 32.6797 47.9936 32.0425C50.9128 32.7689 52.9346 35.4936 52.4481 38.0458C53.7445 36.9909 53.416 35.163 52.721 33.7566C52.0259 32.3503 51.0389 30.9134 51.3272 29.4078C51.5847 28.0636 52.8022 27.0213 53.957 26.0771C53.8466 27.0065 53.856 27.9627 54.191 28.8524C54.7969 30.4614 56.3659 31.6442 57.7704 32.8397C58.3125 33.3011 59.2932 34.1617 60.1746 35.4318C59.8162 33.5903 60.5976 31.9872 60.9028 31.3995C61.925 29.4313 63.9125 27.9822 66.3451 27.3961C67.6949 27.0709 69.1428 27.0089 70.4073 26.4924C71.6719 25.9759 72.7316 24.7702 72.2887 23.6386C73.9175 25.9261 71.5653 28.7119 71.1315 31.3602C70.7237 33.849 72.2695 36.4869 74.8519 37.7097C74.3712 35.6485 74.9338 33.4267 76.3698 31.7162C77.4589 30.4187 79.0618 29.3346 79.4629 27.7776C80.086 25.359 79.1758 22.4807 77.0738 20.7505C82.3495 22.2697 86.5783 26.1797 87.9166 30.7756C88.9815 28.0598 91.333 25.7259 94.3264 24.4138C92.3971 28.3853 93.3282 33.2514 96.6386 36.4984C96.3756 35.2983 96.8248 33.7825 97.4198 32.7559C98.0574 31.6561 99.6682 30.8801 100.613 29.9745C101.491 29.1332 102.159 28.1346 102.561 27.0633C102.61 28.5641 102.857 30.1197 103.816 31.3805C104.775 32.6412 106.784 33.3431 108.355 33.377C106.611 30.844 104.767 27.6982 105.764 24.8881C106.531 22.7252 108.779 21.222 110.903 19.8643C107.891 22.6728 111.316 23.7975 112.427 25.5103C112.359 23.6151 113.414 21.7901 114.877 20.3586C116.34 18.9272 118.193 17.8301 120.025 16.7486C118.777 18.7062 119.705 21.1361 120.911 23.1123C122.473 25.6698 124.375 27.633 123.576 30.3855C123.811 30.1321 124.136 29.9112 124.443 29.7238C126.797 28.2865 129.075 27.2306 129.703 24.6056C130.317 22.0406 128.874 19.5045 128.718 16.961C128.61 15.2066 128.748 13.4411 129.129 11.7144C129.319 10.8512 129.569 9.99763 129.88 9.16023C130.068 8.65398 130.815 7.64093 130.764 7.14062C131.133 10.7616 134.931 13.3011 137.471 16.225C139.777 18.8802 141.148 22.115 141.362 25.4104L146.317 21.3217C148.193 19.7744 150.211 17.8844 150.177 15.7331C150.563 21.1432 147.098 26.4652 147.839 31.8739C150.385 28.32 155.079 25.9485 159.969 25.7461C153.356 27.7929 158.097 40.0341 148.561 43.9987H-6.67381C-10.4516 40.5283 -8.86432 34.5037 -5.95009 32.4133Z" fill="url(#paint1_linear_22224_14648)"/>
<path d="M24.0079 40.1001C24.0224 40.1626 24.0383 40.2246 24.0556 40.2859C24.2908 41.1193 25.1277 41.3326 25.3313 42.1873C25.3958 42.4583 25.3319 42.7714 25.2015 43.1029C25.7052 42.9394 25.8898 42.4317 26.1805 42.0458C26.6848 41.376 27.6426 41.0085 28.5781 41.0071C28.1311 41.33 27.8865 41.8409 27.9215 42.3371C27.9579 42.8521 27.8655 43.3706 27.4756 43.7954C27.4099 43.867 27.3328 43.9359 27.2328 43.9675C27.1561 43.9918 27.0723 43.9922 26.9905 43.9922C23.6127 43.9922 1.33327 43.9922 -0.77976 43.9922C-1.02999 43.735 -1.25843 43.3883 -1.42649 43.0157C-1.5449 42.7533 -1.6403 42.4705 -1.87176 42.2697C-1.43488 42.649 -0.870626 42.9208 -0.264759 43.0484C0.18523 43.1431 0.924038 43.1301 1.25759 43.44C0.271841 42.5237 -0.179934 41.3367 0.427727 40.1462C0.489153 40.0258 0.560387 39.9083 0.603415 39.7821C0.720322 39.4394 0.615686 39.0652 0.418385 38.7502C0.916214 39.5447 1.25722 40.4326 1.94046 41.134C2.22353 41.4246 2.58359 41.7605 2.96187 41.9612C3.39572 42.1913 3.95111 42.2898 4.16785 42.2833C4.30514 41.9242 4.19427 41.6723 4.00735 41.3573C3.81553 41.0341 3.71786 40.6469 3.88007 40.293C3.97018 40.0964 4.04858 40.0196 4.12303 39.8183C4.20663 39.5921 4.11642 39.3351 3.93044 39.1583C3.74447 38.9815 3.4749 38.8793 3.19985 38.84C4.17673 38.9794 5.20889 39.2306 5.69908 40.0551C5.88666 40.3707 6.02734 40.8183 6.04905 41.2016C6.09405 40.443 6.37071 39.8743 6.55074 39.1134C6.74738 38.2824 7.12888 37.4901 7.61198 36.751C8.56905 35.2867 9.91477 34.0279 11.3176 32.8642C11.5618 32.6616 11.8396 32.4525 11.9728 32.1478C12.1657 31.7066 11.9636 30.3795 11.8987 29.9121C13.0935 31.7099 12.521 33.2018 12.0322 34.4704C11.5959 35.6028 12.013 37.1993 12.4898 38.2918C12.6922 38.7555 12.9957 39.0898 13.3563 39.4668C13.5335 39.652 14.248 40.2577 14.1094 40.511C14.3135 40.1381 14.2766 39.7607 14.0863 39.3825C13.9971 39.2053 13.9251 38.9282 13.9083 38.7359C13.8717 38.317 13.9813 37.9554 14.0883 37.6486C14.1578 37.4493 14.259 37.259 14.3686 37.0736C14.4407 36.9517 14.6861 36.7113 14.6921 36.581C14.6513 37.4739 15.2559 38.2803 15.953 38.9491C16.4031 39.3809 16.8063 39.8911 16.9832 40.4589C17.1786 41.0858 17.2483 41.7 17.0433 42.3319C17.1804 41.9094 17.4816 41.5264 17.8888 41.2572C18.2101 41.0448 18.5886 40.905 18.9305 40.7171C19.8114 40.233 21.0899 38.4953 20.4775 37.5918C21.145 38.5764 21.3429 39.7836 21.0176 40.8857C21.9333 39.382 22.4752 38.1675 23.8676 36.9078C24.4407 36.3893 25.1215 35.9242 25.3207 34.7761C25.4929 36.3634 24.4422 37.001 24.0765 38.0906C23.8628 38.7271 23.856 39.4434 24.0079 40.1001Z" fill="url(#paint2_linear_22224_14648)"/>
<path d="M147.676 43.998H104.014C103.334 42.9303 103.063 41.8617 103.158 40.884C103.286 39.5663 103.627 38.2137 103.432 37.0197C103.625 38.2019 104.408 39.3059 105.548 40.0033C106.309 40.4689 106.985 40.6737 107.873 40.8098C108.411 40.8923 109.968 40.9301 110.302 41.3277C109.39 40.2408 109.112 38.7882 109.571 37.5117C109.645 38.2199 110.282 38.8135 111.028 39.1354C111.774 39.4574 112.621 39.5558 113.45 39.6495C112.494 38.4222 112.292 36.8331 112.715 35.4058C113.175 33.8522 114.402 32.8423 115.332 31.5244C115.858 30.7779 117.153 28.1809 115.923 27.4469C117.415 28.3368 119.013 29.353 119.458 30.8555C119.806 32.0314 119.385 33.358 120.048 34.4314C120.403 35.005 121.196 35.4155 121.89 35.6384C122.656 35.8845 123.394 35.7832 124.024 36.3448C124.116 35.169 124.89 34.1762 126.247 33.7659C126.673 33.6372 127.128 33.5794 127.536 33.4148C127.944 33.2503 128.315 32.9384 128.333 32.5548C128.438 33.0222 128.187 33.4913 127.904 33.902C127.622 34.3127 127.293 34.7219 127.22 35.1935C127.124 35.8117 127.502 36.3452 127.62 36.9302C127.675 35.381 129.209 34.1865 130.464 33.2095C131.983 32.0257 133.399 30.7748 134.336 29.1948C134.532 28.8638 134.715 28.5223 134.801 28.159C134.948 27.5396 134.47 24.972 133.958 24.5039C135.337 25.7629 136.879 27.4428 137.468 29.1188C137.956 30.5095 137.851 32.2634 137.633 33.694C137.4 35.2218 137.507 36.6592 137.654 38.184C137.464 36.207 138.398 33.9179 140.159 32.5998C140.983 31.9836 141.908 31.4582 142.734 30.8332C143.366 30.3556 143.928 29.7391 143.988 29.0224C144.097 29.7606 143.7 30.4847 143.223 31.1086C142.746 31.7325 142.174 32.3161 141.864 33.0117C141.481 33.8681 141.606 34.9819 141.804 35.7155C142.157 37.0299 142.704 38.3028 143.512 39.4693C144.122 40.3515 144.72 41.8149 144.881 42.8289C144.926 41.6281 145.835 40.2833 146.86 39.4556C147.946 38.5783 149.13 37.9083 150.344 37.1749C149.608 37.8948 149.049 38.9082 148.947 39.2772C148.391 41.2965 148.969 42.6074 147.676 43.998Z" fill="url(#paint3_linear_22224_14648)"/>
<path d="M82.5867 43.9951C81.0968 43.5166 80.0704 42.2178 79.9439 40.8674C79.8342 39.6946 80.3555 38.6506 81.1323 37.7114C81.7118 37.0109 82.6089 36.3728 82.9896 35.5819C83.6956 34.115 83.783 32.4441 82.6916 31.0898C83.3542 31.912 84.5353 32.549 85.2694 33.3713C86.0606 34.2577 86.7261 35.2254 87.2464 36.2464C88.4007 38.5113 87.4232 41.2289 88.1691 43.129C87.2785 40.8601 89.3277 38.3139 91.1725 36.4959C90.7384 37.8072 91.1043 39.2527 91.8362 40.314C92.7983 41.709 93.6875 42.9671 93.6875 43.995H82.5867V43.9951Z" fill="url(#paint4_linear_22224_14648)"/>
<path d="M56.3196 35.7245C56.4463 36.7835 57.128 37.7638 58.0687 38.4665C59.0093 39.1691 60.193 39.609 61.4136 39.8468C62.0782 39.9761 63.5334 40.5582 64.1415 41.2171C63.4008 39.8412 63.3229 37.9621 64.0039 36.6511C64.6334 35.4393 65.7578 34.6562 67.2108 34.1485C67.5003 34.0473 67.8532 33.9558 68.2198 33.8945C67.7867 34.0845 66.9795 34.6334 66.7104 35.0816C66.1776 35.9692 66.1628 36.9032 66.5324 37.8365C66.8449 38.6257 67.243 39.6685 67.9398 40.2651C67.9667 39.4092 68.4609 38.6134 69.0428 37.9147C68.7143 38.7113 68.7415 39.6098 69.1177 40.3911C69.4483 41.0779 70.0534 41.6109 70.4591 42.2571C70.5425 42.3901 71.4835 43.9958 71.2955 43.9958C71.2626 43.9958 59.6173 43.9958 59.6173 43.9958C57.9275 42.8948 56.4146 41.093 56.0381 39.4712C55.7964 38.43 55.7856 36.9018 56.3196 35.7245Z" fill="url(#paint5_linear_22224_14648)"/>
<path d="M64.7014 19.1781C64.5671 18.9966 64.6431 18.6543 64.903 18.5828C65.2555 18.4858 65.5813 18.792 65.3712 19.0624C65.2928 19.1633 65.1808 19.2514 65.0428 19.2805C64.8786 19.3153 64.7657 19.2652 64.7014 19.1781Z" fill="url(#paint6_linear_22224_14648)"/>
<path d="M56.5426 27.3754C56.5546 27.0002 56.7193 26.6403 57.0298 26.3071C57.3469 25.9668 57.5952 25.5949 57.6308 25.1699C57.6743 25.4214 57.7323 25.628 57.7731 25.891C57.8166 26.1722 57.8537 26.4903 57.7712 26.7608C57.7051 26.9771 57.6549 27.1996 57.532 27.4029C57.4173 27.5924 57.2696 27.7717 57.1377 27.9547C57.0926 28.0173 57.054 28.0633 57.0376 28.1349C57.0259 28.1857 56.9765 28.4314 57.002 28.4674C56.7429 28.1006 56.5313 27.725 56.5426 27.3754Z" fill="url(#paint7_linear_22224_14648)"/>
<path d="M36.9923 24.4573C36.7668 25.0773 36.4265 25.5996 35.8344 26.037C36.1367 25.8136 35.8632 24.9561 35.7229 24.7155C35.4547 24.2557 35.1786 23.8567 35.1029 23.331C34.9638 22.3645 35.3366 21.3457 35.4513 20.377C35.5066 20.8352 35.544 21.2545 35.9718 21.5373C36.3996 21.8202 36.6172 22.1281 36.8588 22.5405C37.2106 23.1407 37.2254 23.8166 36.9923 24.4573Z" fill="url(#paint8_linear_22224_14648)"/>
<path d="M76.6494 22.3539C76.7142 22.726 76.684 23.0721 76.6493 23.5379C76.5887 22.7923 76.037 22.1817 75.5968 21.9024C75.0368 21.5471 73.8468 21.176 73.5522 20.469C73.4337 20.1846 73.3941 19.7769 73.4333 19.4629C73.447 19.6405 73.6952 19.9241 74.5486 20.1965C74.9121 20.3126 75.6402 20.4837 76.0709 20.9499C76.47 21.3819 76.5668 21.8794 76.6494 22.3539Z" fill="url(#paint9_linear_22224_14648)"/>
<path d="M98.0898 24.7122C98.0755 24.6901 98.0626 24.6681 98.0521 24.6463C97.9373 24.411 97.8673 24.1596 97.8451 23.9055C97.8009 23.4006 98.0716 22.9845 98.0759 22.4871C98.0798 22.0136 97.9447 21.5721 98.0134 21.1035C98.0522 20.8389 98.0728 20.5826 98.1624 20.3247C98.2211 20.1556 98.4733 19.8635 98.4733 19.7031C98.4736 20.7738 99.8479 21.307 99.8516 22.4249C99.8533 22.9374 99.5946 23.4162 99.2277 23.8135C98.8287 24.2454 98.2418 24.5772 98.4427 25.2082C98.3924 25.0503 98.1969 24.8771 98.0898 24.7122Z" fill="url(#paint10_linear_22224_14648)"/>
<path d="M86.4247 22.8258C86.1269 22.8893 85.807 22.6218 85.877 22.3677C85.9314 22.1696 86.2009 22.0427 86.4256 22.0373C86.918 22.0252 86.8165 22.7423 86.4247 22.8258Z" fill="url(#paint11_linear_22224_14648)"/>
<path d="M24.4481 27.2028C24.1503 27.2662 23.8305 26.9987 23.9004 26.7447C23.9548 26.5465 24.2243 26.4197 24.449 26.4142C24.9414 26.4022 24.8399 27.1193 24.4481 27.2028Z" fill="url(#paint12_linear_22224_14648)"/>
<path d="M112.003 15.2545C112.1 15.2775 112.184 15.3456 112.222 15.4271C112.338 15.6748 112.075 16.1464 111.752 15.854C111.592 15.71 111.631 15.256 111.921 15.2463C111.949 15.2453 111.976 15.2483 112.003 15.2545Z" fill="url(#paint13_linear_22224_14648)"/>
<path d="M3.53521 25.9715C3.51945 25.4608 3.9985 24.906 4.39216 24.4338C4.79412 23.9516 4.81356 23.4861 4.82564 22.9062C4.90622 23.2455 5.09181 23.5848 5.16985 23.9398C5.25317 24.3192 5.28827 24.69 5.19231 25.1337C5.13371 25.4051 5.06427 25.5738 4.88999 25.8472C4.70892 26.1313 4.42717 26.323 4.27327 26.973C4.25695 27.0419 4.21571 27.3798 4.25336 27.4272C3.86951 26.9448 3.54983 26.4475 3.53521 25.9715Z" fill="url(#paint14_linear_22224_14648)"/>
</g>
</g>
<defs>
<linearGradient id="paint0_linear_22224_14648" x1="60" y1="0" x2="60" y2="34" gradientUnits="userSpaceOnUse">
<stop stop-color="#F26D06"/>
<stop offset="1" stop-color="#E62E00"/>
</linearGradient>
<linearGradient id="paint1_linear_22224_14648" x1="75.5375" y1="43.9989" x2="75.5375" y2="7.14074" gradientUnits="userSpaceOnUse">
<stop stop-color="#FFDF61"/>
<stop offset="1" stop-color="#FFEA61"/>
</linearGradient>
<linearGradient id="paint2_linear_22224_14648" x1="13.3532" y1="43.9921" x2="13.3532" y2="29.912" gradientUnits="userSpaceOnUse">
<stop stop-color="#F7BC19"/>
<stop offset="1" stop-color="#FCBF19"/>
</linearGradient>
<linearGradient id="paint3_linear_22224_14648" x1="126.742" y1="43.998" x2="126.742" y2="24.504" gradientUnits="userSpaceOnUse">
<stop stop-color="#F7BC19"/>
<stop offset="1" stop-color="#FCBF19"/>
</linearGradient>
<linearGradient id="paint4_linear_22224_14648" x1="86.8085" y1="43.9951" x2="86.8085" y2="31.0899" gradientUnits="userSpaceOnUse">
<stop stop-color="#F7BC19"/>
<stop offset="1" stop-color="#FCBF19"/>
</linearGradient>
<linearGradient id="paint5_linear_22224_14648" x1="63.5996" y1="43.9958" x2="63.5996" y2="33.8945" gradientUnits="userSpaceOnUse">
<stop stop-color="#F7BC19"/>
<stop offset="1" stop-color="#FCBF19"/>
</linearGradient>
<linearGradient id="paint6_linear_22224_14648" x1="65.0368" y1="19.2917" x2="65.0368" y2="18.5645" gradientUnits="userSpaceOnUse">
<stop stop-color="#FFDF61"/>
<stop offset="1" stop-color="#FFEA61"/>
</linearGradient>
<linearGradient id="paint7_linear_22224_14648" x1="57.1813" y1="28.4673" x2="57.1813" y2="25.1699" gradientUnits="userSpaceOnUse">
<stop stop-color="#FFDF61"/>
<stop offset="1" stop-color="#FFEA61"/>
</linearGradient>
<linearGradient id="paint8_linear_22224_14648" x1="36.1104" y1="26.037" x2="36.1104" y2="20.3769" gradientUnits="userSpaceOnUse">
<stop stop-color="#FFDF61"/>
<stop offset="1" stop-color="#FFEA61"/>
</linearGradient>
<linearGradient id="paint9_linear_22224_14648" x1="75.0531" y1="23.5379" x2="75.0531" y2="19.4629" gradientUnits="userSpaceOnUse">
<stop stop-color="#FFDF61"/>
<stop offset="1" stop-color="#FFEA61"/>
</linearGradient>
<linearGradient id="paint10_linear_22224_14648" x1="98.8459" y1="25.2082" x2="98.8459" y2="19.7032" gradientUnits="userSpaceOnUse">
<stop stop-color="#FFDF61"/>
<stop offset="1" stop-color="#FFEA61"/>
</linearGradient>
<linearGradient id="paint11_linear_22224_14648" x1="86.3125" y1="22.8352" x2="86.3125" y2="22.037" gradientUnits="userSpaceOnUse">
<stop stop-color="#FFDF61"/>
<stop offset="1" stop-color="#FFEA61"/>
</linearGradient>
<linearGradient id="paint12_linear_22224_14648" x1="24.3359" y1="27.2123" x2="24.3359" y2="26.414" gradientUnits="userSpaceOnUse">
<stop stop-color="#FFDF61"/>
<stop offset="1" stop-color="#FFEA61"/>
</linearGradient>
<linearGradient id="paint13_linear_22224_14648" x1="111.954" y1="15.9466" x2="111.954" y2="15.2461" gradientUnits="userSpaceOnUse">
<stop stop-color="#FFDF61"/>
<stop offset="1" stop-color="#FFEA61"/>
</linearGradient>
<linearGradient id="paint14_linear_22224_14648" x1="4.39236" y1="27.4272" x2="4.39236" y2="22.9063" gradientUnits="userSpaceOnUse">
<stop stop-color="#FFDF61"/>
<stop offset="1" stop-color="#FFEA61"/>
</linearGradient>
<clipPath id="clip0_22224_14648">
<rect width="120" height="34" fill="white"/>
</clipPath>
</defs>
</svg>
