<svg width="20" height="20" viewBox="0 0 20 20" fill="none" xmlns="http://www.w3.org/2000/svg">
<g clip-path="url(#clip0_22224_15514)">
<path d="M5.54653 8.05273C4.77256 8.30935 3.64355 8.80487 2.61501 9.80137C0.62459 11.7298 -0.311145 14.877 0.506365 15.5358C0.843546 15.8076 1.62406 15.773 3.54074 14.5072C4.20932 12.3557 4.87795 10.2042 5.54653 8.05273Z" fill="#2D2D35"/>
<path d="M14.4453 8.05273C15.2193 8.30935 16.3483 8.80487 17.3768 9.80137C19.3673 11.7298 20.303 14.877 19.4855 15.5358C19.1483 15.8076 18.3678 15.773 16.4511 14.5072C15.7825 12.3557 15.1139 10.2042 14.4453 8.05273Z" fill="#2D2D35"/>
<path d="M16.4614 13.3004C16.1924 10.4465 15.0798 9.63531 14.8658 4.89061C14.7069 1.38314 12.5733 0 9.99347 0C7.41365 0 5.28006 1.38314 5.12115 4.8906C4.90715 9.63531 3.79452 10.4465 3.52553 13.3004C3.05483 18.331 5.53685 19.6091 9.99347 19.6441C14.4501 19.6091 16.9321 18.331 16.4614 13.3004Z" fill="#3B3B44"/>
<path d="M13.4251 19.2133C12.4766 19.5104 11.3223 19.6304 9.99655 19.6419C8.67086 19.6304 7.52229 19.5104 6.57369 19.2133C4.91657 16.899 4.85941 13.7961 6.05943 10.5733C6.78512 8.59043 6.47084 7.51043 6.29942 5.32757C6.23657 4.59043 6.19085 2.61328 7.96226 2.61328C10.088 2.61328 9.36799 5.32759 9.99654 5.32759C10.6251 5.32759 9.90513 2.61328 12.0308 2.61328C13.8023 2.61328 13.7566 4.59044 13.6937 5.32757C13.5223 7.51043 13.208 8.59043 13.9337 10.5733C15.1337 13.7961 15.0766 16.899 13.4251 19.2133Z" fill="#F0F0FC"/>
<path opacity="0.1" d="M9.98825 19.6441C9.53111 19.6384 9.09113 19.6213 8.67969 19.5927C14.3877 15.6431 15.0417 5.54472 12.6282 0.626953C13.8968 1.34124 14.7654 2.70124 14.8625 4.88982C15.074 9.63267 16.1883 10.4441 16.4568 13.3012C16.9311 18.3298 14.4454 19.6098 9.98825 19.6441Z" fill="black"/>
<path d="M7.96156 4.80008C8.23374 4.80008 8.45437 4.57944 8.45437 4.30727C8.45437 4.03509 8.23374 3.81445 7.96156 3.81445C7.68939 3.81445 7.46875 4.03509 7.46875 4.30727C7.46875 4.57944 7.68939 4.80008 7.96156 4.80008Z" fill="#3B3B44"/>
<path d="M12.0241 4.80008C12.2962 4.80008 12.5169 4.57944 12.5169 4.30727C12.5169 4.03509 12.2962 3.81445 12.0241 3.81445C11.7519 3.81445 11.5312 4.03509 11.5312 4.30727C11.5312 4.57944 11.7519 4.80008 12.0241 4.80008Z" fill="#3B3B44"/>
<path d="M9.19433 4.96987C8.9203 5.08163 8.78938 5.45646 8.91534 5.77055C9.1593 6.37887 9.57657 7.23243 9.99736 7.23243C10.4182 7.23243 10.8354 6.37887 11.0794 5.77055C11.2053 5.45646 11.0744 5.08163 10.8004 4.96987C10.2795 4.75744 9.7152 4.75744 9.19433 4.96987Z" fill="#FFDC6E"/>
<path d="M7.35997 20.0003H3.84787C3.33771 20.0003 2.99421 19.4805 3.18731 19.0083C3.57682 18.0558 4.51078 17.3867 5.60099 17.3867C6.69561 17.3867 7.63064 18.0557 8.02046 19.0081C8.21375 19.4803 7.87021 20.0003 7.35997 20.0003Z" fill="#FFDC6E"/>
<path d="M16.1569 20.0003H12.6447C12.1346 20.0003 11.7911 19.4805 11.9842 19.0083C12.3737 18.0558 13.3077 17.3867 14.3979 17.3867C15.4925 17.3867 16.4275 18.0557 16.8173 19.0081C17.0106 19.4803 16.6671 20.0003 16.1569 20.0003Z" fill="#FFDC6E"/>
</g>
<defs>
<clipPath id="clip0_22224_15514">
<rect width="20" height="20" fill="white"/>
</clipPath>
</defs>
</svg>
