<svg width="32" height="32" viewBox="0 0 32 32" fill="none" xmlns="http://www.w3.org/2000/svg">
<rect width="32" height="32" rx="16" fill="#0B5702"/>
<g clip-path="url(#clip0_19714_6938)">
<path d="M25 10C25 8.3455 23.6545 7 22 7C20.3455 7 19 8.3455 19 10C19 10.0503 19.0128 10.0975 19.015 10.147L12.5395 12.1705C12.0093 11.3208 11.0732 10.75 10 10.75C8.3455 10.75 7 12.0955 7 13.75C7 15.4045 8.3455 16.75 10 16.75C10.6015 16.75 11.1602 16.5677 11.6305 16.2618L16.363 20.5997C16.1388 21.0197 16 21.4915 16 22C16 23.6545 17.3455 25 19 25C20.6545 25 22 23.6545 22 22C22 20.8652 21.3595 19.888 20.428 19.378L22.0233 12.9978C23.6665 12.985 25 11.6462 25 10ZM19.4605 11.5795C19.7343 12.0175 20.1175 12.373 20.572 12.622L18.9775 19.003C18.385 19.0075 17.8345 19.1867 17.3702 19.4882L12.6378 15.1502C12.862 14.7302 13.0008 14.2585 13.0008 13.75C13.0008 13.6997 12.988 13.6525 12.9858 13.603L19.4605 11.5795Z" fill="white"/>
</g>
<defs>
<clipPath id="clip0_19714_6938">
<rect width="18" height="18" fill="white" transform="translate(7 7)"/>
</clipPath>
</defs>
</svg>
