<svg width="24" height="24" viewBox="0 0 24 24" fill="none" xmlns="http://www.w3.org/2000/svg">
<rect width="24" height="24" rx="12" fill="#CDF3C5"/>
<path d="M19.1741 11.053L18.1541 9.86797C17.9591 9.64297 17.8016 9.22297 17.8016 8.92297V7.64797C17.8016 6.85297 17.1491 6.20047 16.3541 6.20047H15.0791C14.7866 6.20047 14.3591 6.04297 14.1341 5.84797L12.9491 4.82797C12.4316 4.38547 11.5841 4.38547 11.0591 4.82797L9.88156 5.85547C9.65656 6.04297 9.22906 6.20047 8.93656 6.20047H7.63906C6.84406 6.20047 6.19156 6.85297 6.19156 7.64797V8.93047C6.19156 9.22297 6.03406 9.64297 5.84656 9.86797L4.83406 11.0605C4.39906 11.578 4.39906 12.418 4.83406 12.9355L5.84656 14.128C6.03406 14.353 6.19156 14.773 6.19156 15.0655V16.348C6.19156 17.143 6.84406 17.7955 7.63906 17.7955H8.93656C9.22906 17.7955 9.65656 17.953 9.88156 18.148L11.0666 19.168C11.5841 19.6105 12.4316 19.6105 12.9566 19.168L14.1416 18.148C14.3666 17.953 14.7866 17.7955 15.0866 17.7955H16.3616C17.1566 17.7955 17.8091 17.143 17.8091 16.348V15.073C17.8091 14.7805 17.9666 14.353 18.1616 14.128L19.1816 12.943C19.6166 12.4255 19.6166 11.5705 19.1741 11.053ZM15.1241 10.5805L11.5016 14.203C11.3966 14.308 11.2541 14.368 11.1041 14.368C10.9541 14.368 10.8116 14.308 10.7066 14.203L8.89156 12.388C8.67406 12.1705 8.67406 11.8105 8.89156 11.593C9.10906 11.3755 9.46906 11.3755 9.68656 11.593L11.1041 13.0105L14.3291 9.78547C14.5466 9.56797 14.9066 9.56797 15.1241 9.78547C15.3416 10.003 15.3416 10.363 15.1241 10.5805Z" fill="#38A03C"/>
</svg>
