<svg width="104" height="36" viewBox="0 0 104 36" fill="none" xmlns="http://www.w3.org/2000/svg">
<g clip-path="url(#clip0_22206_9833)">
<rect x="1" y="1" width="102" height="34" rx="17" fill="url(#paint0_linear_22206_9833)"/>
<g opacity="0.6">
<path opacity="0.4" d="M-4.05444 33.4133C-4.46092 35.4571 -3.77783 37.6854 -2.29575 39.1504C-2.47275 37.5644 -2.7314 35.3708 -1.79774 34.0144C-1.31364 33.311 -0.697998 32.6866 -0.355698 31.9043C0.20076 30.6325 -0.107056 29.0323 -1.09557 28.0576C-0.164886 28.851 0.788727 29.6726 1.35201 30.7582C2.05771 32.1183 2.0452 33.6707 2.28966 35.1473C2.40146 35.8223 2.57028 36.3486 2.85806 36.9424C3.0361 37.31 3.75128 38.0525 3.75168 38.4341C3.74879 35.6686 4.0304 31.9151 5.81581 29.8031C6.96921 28.4388 8.61932 27.6018 9.95134 26.4112C11.2834 25.2207 12.3303 23.3561 11.6918 21.6876C11.7598 21.8652 12.718 22.2432 12.9165 22.3818C13.3293 22.6702 13.7131 22.9997 14.0627 23.362C14.7389 24.0628 15.2874 24.8882 15.6666 25.7854C16.5903 27.9704 15.3716 30.2112 15.9496 32.4033C16.1351 33.1069 16.5134 34.0508 17.0891 34.5295C17.6376 34.9857 18.1388 34.9468 18.3389 35.7711C18.311 35.656 18.6023 35.0648 18.6701 34.9382C18.813 34.6714 19.0645 34.4613 19.2148 34.1916C19.3726 33.9085 19.4731 33.5837 19.4409 33.2612C19.4086 32.939 19.249 32.646 19.1285 32.3454C19.3655 32.4213 19.5978 32.5175 19.8062 32.6536C20.0814 32.8334 20.3074 33.0773 20.5304 33.3188C20.9123 33.7321 21.0064 34.2731 21.1846 34.8028C21.627 32.3343 23.8273 30.2567 25.443 28.4734C24.6003 30.3924 24.3033 32.5375 24.5406 34.6168C24.6862 35.8925 25.6347 38.4512 26.7888 39.1751C26.7083 38.6306 26.8873 38.1204 27.1038 37.629C27.5698 36.5716 28.1558 35.6892 28.8324 34.776C29.1704 34.3197 29.5473 33.8957 29.9556 33.5013C30.1733 33.2911 30.81 32.9238 30.9149 32.6528C30.6182 33.4191 30.6763 34.5864 30.9384 35.3528C31.097 35.8165 32.1838 37.1373 31.5537 37.6154C32.5407 36.8665 33.9988 35.8822 34.0734 34.6011C34.1476 33.327 33.5404 32.0851 33.5172 30.8146C33.4607 27.696 35.675 24.9625 38.2107 23.1461C36.3704 25.3696 35.8709 28.7775 37.4392 31.2006C38.1617 32.3168 39.2507 33.1662 39.9264 34.3113C40.4249 35.1561 40.5508 36.1245 40.2752 37.0593C40.1236 37.5734 39.8885 37.7379 39.8429 38.2582C39.8049 38.691 40.0987 39.1539 40.0064 39.6102C40.3682 37.8222 42.6785 37.7284 42.8783 35.6893C42.9749 34.7027 42.5573 33.6797 41.7977 33.0425C44.279 33.7689 45.9975 36.4936 45.584 39.0458C46.6859 37.9909 46.4067 36.163 45.816 34.7566C45.2252 33.3503 44.3862 31.9134 44.6313 30.4078C44.8501 29.0636 45.885 28.0213 46.8665 27.0771C46.7727 28.0065 46.7807 28.9627 47.0654 29.8524C47.5805 31.4614 48.9141 32.6442 50.108 33.8397C50.5687 34.3011 51.4024 35.1617 52.1515 36.4318C51.8469 34.5903 52.5111 32.9872 52.7705 32.3995C53.6394 30.4313 55.3287 28.9822 57.3965 28.3961C58.5438 28.0709 59.7745 28.0089 60.8494 27.4924C61.9243 26.9759 62.825 25.7702 62.4486 24.6386C63.833 26.9261 61.8336 29.7119 61.4649 32.3602C61.1183 34.849 62.4322 37.4869 64.6273 38.7097C64.2187 36.6485 64.6969 34.4267 65.9174 32.7162C66.8432 31.4187 68.2056 30.3346 68.5466 28.7776C69.0763 26.359 68.3025 23.4807 66.5158 21.7505C71.0002 23.2697 74.5947 27.1797 75.7323 31.7756C76.6374 29.0598 78.6362 26.7259 81.1806 25.4138C79.5406 29.3853 80.3321 34.2514 83.146 37.4984C82.9223 36.2983 83.3042 34.7825 83.81 33.7559C84.3519 32.6561 85.7211 31.8801 86.5243 30.9745C87.2704 30.1332 87.8384 29.1346 88.1802 28.0633C88.2216 29.5641 88.4313 31.1197 89.2467 32.3805C90.0622 33.6412 91.7692 34.3431 93.105 34.377C91.6222 31.844 90.0548 28.6982 90.9023 25.8881C91.5547 23.7252 93.4651 22.222 95.2707 20.8643C92.7107 23.6728 95.6215 24.7975 96.5665 26.5103C96.5084 24.6151 97.4051 22.7901 98.6486 21.3586C99.892 19.9272 101.467 18.8301 103.024 17.7486C101.964 19.7062 102.752 22.1361 103.778 24.1123C105.105 26.6698 106.722 28.633 106.042 31.3855C106.242 31.1321 106.519 30.9112 106.779 30.7238C108.78 29.2865 110.717 28.2306 111.251 25.6056C111.772 23.0406 110.546 20.5045 110.413 17.961C110.322 16.2066 110.439 14.4411 110.762 12.7144C110.924 11.8512 111.137 10.9976 111.401 10.1602C111.561 9.65398 112.196 8.64093 112.153 8.14062C112.466 11.7616 115.695 14.3011 117.853 17.225C119.814 19.8802 120.979 23.115 121.161 26.4104L125.373 22.3217C126.967 20.7744 128.683 18.8844 128.653 16.7331C128.981 22.1432 126.037 27.4652 126.666 32.8739C128.83 29.32 132.821 26.9485 136.977 26.7461C131.355 28.7929 135.385 41.0341 127.28 44.9987H-4.6696C-7.88071 41.5283 -6.53152 35.5037 -4.05444 33.4133Z" fill="#727272"/>
<path d="M21.4122 41.1001C21.4245 41.1626 21.438 41.2246 21.4527 41.2859C21.6527 42.1193 22.364 42.3326 22.5371 43.1873C22.5919 43.4583 22.5376 43.7714 22.4267 44.1029C22.8549 43.9394 23.0118 43.4317 23.2589 43.0458C23.6876 42.376 24.5017 42.0085 25.2969 42.0071C24.9169 42.33 24.709 42.8409 24.7387 43.3371C24.7697 43.8521 24.6912 44.3706 24.3597 44.7954C24.3039 44.867 24.2383 44.9359 24.1533 44.9675C24.0881 44.9918 24.0169 44.9922 23.9474 44.9922C21.0762 44.9922 2.13875 44.9922 0.342672 44.9922C0.129972 44.735 -0.0642014 44.3883 -0.207043 44.0157C-0.307699 43.7533 -0.388784 43.4705 -0.585524 43.2697C-0.214182 43.649 0.265436 43.9208 0.780424 44.0484C1.16291 44.1431 1.7909 44.1301 2.07442 44.44C1.23653 43.5237 0.852526 42.3367 1.36904 41.1462C1.42125 41.0258 1.4818 40.9083 1.51837 40.7821C1.61774 40.4394 1.5288 40.0652 1.3611 39.7502C1.78425 40.5447 2.0741 41.4326 2.65486 42.134C2.89547 42.4246 3.20152 42.7605 3.52306 42.9612C3.89183 43.1913 4.36391 43.2898 4.54814 43.2833C4.66483 42.9242 4.5706 42.6723 4.41172 42.3573C4.24866 42.0341 4.16565 41.6469 4.30352 41.293C4.38012 41.0964 4.44676 41.0196 4.51004 40.8183C4.5811 40.5921 4.50443 40.3351 4.34635 40.1583C4.18827 39.9815 3.95913 39.8793 3.72534 39.84C4.55569 39.9794 5.43303 40.2306 5.84968 41.0551C6.00913 41.3707 6.12871 41.8183 6.14716 42.2016C6.18542 41.443 6.42057 40.8743 6.5736 40.1134C6.74075 39.2824 7.06501 38.4901 7.47565 37.751C8.28916 36.2867 9.43302 35.0279 10.6254 33.8642C10.833 33.6616 11.0691 33.4525 11.1823 33.1478C11.3463 32.7066 11.1746 31.3795 11.1194 30.9121C12.1349 32.7099 11.6483 34.2018 11.2329 35.4704C10.862 36.6028 11.2165 38.1993 11.6218 39.2918C11.7938 39.7555 12.0518 40.0898 12.3584 40.4668C12.509 40.652 13.1163 41.2577 12.9985 41.511C13.1719 41.1381 13.1406 40.7607 12.9788 40.3825C12.903 40.2053 12.8418 39.9282 12.8276 39.7359C12.7964 39.317 12.8896 38.9554 12.9805 38.6486C13.0396 38.4493 13.1256 38.259 13.2188 38.0736C13.2801 37.9517 13.4887 37.7113 13.4937 37.581C13.4591 38.4739 13.973 39.2803 14.5656 39.9491C14.9481 40.3809 15.2908 40.8911 15.4412 41.4589C15.6072 42.0858 15.6665 42.7 15.4922 43.3319C15.6088 42.9094 15.8649 42.5264 16.2109 42.2572C16.484 42.0448 16.8058 41.905 17.0964 41.7171C17.8452 41.233 18.9318 39.4953 18.4113 38.5918C18.9787 39.5764 19.147 40.7836 18.8704 41.8857C19.6488 40.382 20.1094 39.1675 21.293 37.9078C21.78 37.3893 22.3588 36.9242 22.5281 35.7761C22.6745 37.3634 21.7813 38.001 21.4705 39.0906C21.2889 39.7271 21.2831 40.4434 21.4122 41.1001Z" fill="#727272"/>
<path d="M126.529 44.998H89.4162C88.8388 43.9303 88.6083 42.8617 88.6892 41.884C88.798 40.5663 89.0876 39.2137 88.9215 38.0197C89.086 39.2019 89.7516 40.3059 90.7202 41.0033C91.3669 41.4689 91.9422 41.6737 92.6971 41.8098C93.1538 41.8923 94.4777 41.9301 94.7612 42.3277C93.9861 41.2408 93.7499 39.7882 94.1405 38.5117C94.2027 39.2199 94.7448 39.8135 95.3786 40.1354C96.0123 40.4574 96.7325 40.5558 97.4371 40.6495C96.6245 39.4222 96.4531 37.8331 96.8125 36.4058C97.2037 34.8522 98.2467 33.8423 99.0365 32.5244C99.4838 31.7779 100.585 29.1809 99.539 28.4469C100.807 29.3368 102.166 30.353 102.544 31.8555C102.84 33.0314 102.482 34.358 103.046 35.4314C103.347 36.005 104.022 36.4155 104.611 36.6384C105.262 36.8845 105.89 36.7832 106.425 37.3448C106.503 36.169 107.161 35.1762 108.315 34.7659C108.676 34.6372 109.063 34.5794 109.41 34.4148C109.757 34.2503 110.073 33.9384 110.088 33.5548C110.177 34.0222 109.963 34.4913 109.723 34.902C109.483 35.3127 109.204 35.7219 109.141 36.1935C109.06 36.8117 109.381 37.3452 109.481 37.9302C109.528 36.381 110.833 35.1865 111.899 34.2095C113.19 33.0257 114.394 31.7748 115.19 30.1948C115.357 29.8638 115.512 29.5223 115.585 29.159C115.71 28.5396 115.304 25.972 114.869 25.5039C116.041 26.7629 117.352 28.4428 117.852 30.1188C118.267 31.5095 118.178 33.2634 117.993 34.694C117.795 36.2218 117.886 37.6592 118.011 39.184C117.849 37.207 118.643 34.9179 120.14 33.5998C120.84 32.9836 121.626 32.4582 122.329 31.8332C122.865 31.3556 123.343 30.7391 123.395 30.0224C123.487 30.7606 123.149 31.4847 122.744 32.1086C122.339 32.7325 121.853 33.3161 121.589 34.0117C121.263 34.8681 121.37 35.9819 121.538 36.7155C121.838 38.0299 122.303 39.3028 122.989 40.4693C123.508 41.3515 124.017 42.8149 124.153 43.8289C124.192 42.6281 124.965 41.2833 125.836 40.4556C126.759 39.5783 127.765 38.9083 128.797 38.1749C128.172 38.8948 127.696 39.9082 127.61 40.2772C127.137 42.2965 127.628 43.6074 126.529 44.998Z" fill="#727272"/>
<path d="M71.2049 44.9951C69.9385 44.5166 69.0661 43.2178 68.9586 41.8674C68.8653 40.6946 69.3084 39.6506 69.9687 38.7114C70.4613 38.0109 71.2238 37.3728 71.5474 36.5819C72.1475 35.115 72.2218 33.4441 71.2941 32.0898C71.8573 32.912 72.8613 33.549 73.4853 34.3713C74.1578 35.2577 74.7235 36.2254 75.1657 37.2464C76.1468 39.5113 75.316 42.2289 75.95 44.129C75.193 41.8601 76.9348 39.3139 78.5029 37.4959C78.1339 38.8072 78.4449 40.2527 79.067 41.314C79.8848 42.709 80.6406 43.9671 80.6406 44.995H71.2049V44.9951Z" fill="#727272"/>
<path d="M48.8744 36.7245C48.9821 37.7835 49.5615 38.7638 50.3611 39.4665C51.1606 40.1691 52.1668 40.609 53.2043 40.8468C53.7692 40.9761 55.0062 41.5582 55.523 42.2171C54.8934 40.8412 54.8272 38.9621 55.4061 37.6511C55.9411 36.4393 56.8969 35.6562 58.1319 35.1485C58.378 35.0473 58.678 34.9558 58.9896 34.8945C58.6214 35.0845 57.9353 35.6334 57.7065 36.0816C57.2537 36.9692 57.2411 37.9032 57.5553 38.8365C57.8209 39.6257 58.1593 40.6685 58.7516 41.2651C58.7744 40.4092 59.1945 39.6134 59.6891 38.9147C59.4099 39.7113 59.433 40.6098 59.7528 41.3911C60.0338 42.0779 60.5481 42.6109 60.8929 43.2571C60.9638 43.3901 61.7637 44.9958 61.604 44.9958C61.576 44.9958 51.6775 44.9958 51.6775 44.9958C50.2411 43.8948 48.9551 42.093 48.6351 40.4712C48.4296 39.43 48.4205 37.9018 48.8744 36.7245Z" fill="#727272"/>
<path d="M55.9993 20.1781C55.8852 19.9966 55.9497 19.6543 56.1707 19.5828C56.4703 19.4858 56.7473 19.792 56.5687 20.0624C56.502 20.1633 56.4068 20.2514 56.2895 20.2805C56.1499 20.3153 56.054 20.2652 55.9993 20.1781Z" fill="#727272"/>
<path d="M49.0623 28.3754C49.0726 28.0002 49.2126 27.6403 49.4765 27.3071C49.7461 26.9668 49.9571 26.5949 49.9873 26.1699C50.0243 26.4214 50.0736 26.628 50.1083 26.891C50.1453 27.1722 50.1769 27.4903 50.1067 27.7608C50.0505 27.9771 50.0079 28.1996 49.9034 28.4029C49.8059 28.5924 49.6803 28.7717 49.5682 28.9547C49.5299 29.0173 49.497 29.0633 49.4831 29.1349C49.4732 29.1857 49.4312 29.4314 49.4528 29.4674C49.2326 29.1006 49.0528 28.725 49.0623 28.3754Z" fill="#727272"/>
<path d="M32.4454 25.4573C32.2538 26.0773 31.9645 26.5996 31.4612 27.037C31.7181 26.8136 31.4856 25.9561 31.3664 25.7155C31.1384 25.2557 30.9038 24.8567 30.8394 24.331C30.7212 23.3645 31.038 22.3457 31.1356 21.377C31.1826 21.8352 31.2143 22.2545 31.578 22.5373C31.9416 22.8202 32.1265 23.1281 32.3319 23.5405C32.6309 24.1407 32.6435 24.8166 32.4454 25.4573Z" fill="#727272"/>
<path d="M66.1551 23.3539C66.2102 23.726 66.1845 24.0721 66.1551 24.5379C66.1035 23.7923 65.6346 23.1817 65.2604 22.9024C64.7844 22.5471 63.7729 22.176 63.5225 21.469C63.4218 21.1846 63.3881 20.7769 63.4214 20.4629C63.4331 20.6405 63.644 20.9241 64.3694 21.1965C64.6784 21.3126 65.2973 21.4837 65.6634 21.9499C66.0027 22.3819 66.0849 22.8794 66.1551 23.3539Z" fill="#727272"/>
<path d="M84.3775 25.7122C84.3653 25.6901 84.3544 25.6681 84.3454 25.6463C84.2479 25.411 84.1884 25.1596 84.1695 24.9055C84.1319 24.4006 84.362 23.9845 84.3656 23.4871C84.369 23.0136 84.2542 22.5721 84.3126 22.1035C84.3455 21.8389 84.3631 21.5826 84.4392 21.3247C84.4891 21.1556 84.7035 20.8635 84.7035 20.7031C84.7037 21.7738 85.8719 22.307 85.875 23.4249C85.8764 23.9374 85.6566 24.4162 85.3447 24.8135C85.0056 25.2454 84.5067 25.5772 84.6775 26.2082C84.6347 26.0503 84.4685 25.8771 84.3775 25.7122Z" fill="#727272"/>
<path d="M74.459 23.8258C74.2059 23.8893 73.934 23.6218 73.9935 23.3677C74.0397 23.1696 74.2688 23.0427 74.4598 23.0373C74.8783 23.0252 74.792 23.7423 74.459 23.8258Z" fill="#727272"/>
<path d="M21.7794 28.2028C21.5262 28.2662 21.2543 27.9987 21.3138 27.7447C21.3601 27.5465 21.5891 27.4197 21.7801 27.4142C22.1987 27.4022 22.1124 28.1193 21.7794 28.2028Z" fill="#727272"/>
<path d="M96.2038 16.2545C96.2868 16.2775 96.3578 16.3456 96.3903 16.4271C96.4892 16.6748 96.2651 17.1464 95.9904 16.854C95.8551 16.71 95.8878 16.256 96.1347 16.2463C96.1582 16.2453 96.1814 16.2483 96.2038 16.2545Z" fill="#727272"/>
<path d="M4.00336 26.9715C3.98997 26.4608 4.39717 25.906 4.73178 25.4338C5.07344 24.9516 5.08996 24.4861 5.10023 23.9062C5.16872 24.2455 5.32648 24.5848 5.39281 24.9398C5.46363 25.3192 5.49347 25.69 5.4119 26.1337C5.36209 26.4051 5.30307 26.5738 5.15493 26.8472C5.00102 27.1313 4.76153 27.323 4.63072 27.973C4.61684 28.0419 4.58179 28.3798 4.61379 28.4272C4.28752 27.9448 4.0158 27.4475 4.00336 26.9715Z" fill="#727272"/>
</g>
<g style="mix-blend-mode:luminosity" clip-path="url(#clip1_22206_9833)">
<path d="M36.8579 14.0788C36.4619 13.6465 35.8464 13.063 35.5845 14.3805C35.4954 14.8284 35.2873 15.1737 35.109 15.4517C34.9168 14.479 34.3386 13.4722 33.7938 12.7934C33.5899 12.5394 32.8665 11.5298 32.7275 9.84068C32.7068 9.5886 32.4073 9.47022 32.22 9.64025C30.4302 11.2651 29.4477 13.4997 29.4113 16.0155C29.4113 16.0155 28.666 15.3872 28.2611 14.2185C28.152 13.9038 27.7301 13.8437 27.547 14.122C27.5119 14.1755 27.4793 14.229 27.4499 14.2809C26.069 16.7227 25.4047 19.688 26.0188 22.4467C27.0456 27.0667 33.8379 28.3583 37.4338 25.4545C40.9519 22.6136 39.8336 17.3259 36.8579 14.0788Z" fill="url(#paint1_linear_22206_9833)"/>
<path d="M26.9745 22.736C26.3675 19.9478 27.0101 16.9537 28.3586 14.4737C28.3245 14.3914 28.2917 14.3063 28.261 14.2178C28.152 13.9031 27.7301 13.8431 27.547 14.1213C27.5119 14.1748 27.4793 14.2283 27.4499 14.2802C26.069 16.722 25.4047 19.6873 26.0188 22.446C26.4872 24.5533 28.1551 25.9677 30.1721 26.6078C28.5986 25.8456 27.3665 24.539 26.9745 22.736Z" fill="#FED900"/>
<path d="M30.3746 15.9685C30.4491 13.6853 31.2749 11.638 32.753 10.0652C32.7428 9.9786 32.7353 9.90116 32.7305 9.84238C32.7093 9.58814 32.4208 9.46063 32.2343 9.62918C30.5056 11.1922 29.4519 13.4042 29.4141 16.0148L29.7376 16.266C29.897 16.3898 30.1129 16.3844 30.2651 16.2711C30.3559 16.1941 30.3689 16.0779 30.3746 15.9685Z" fill="#FED900"/>
<path d="M35.7771 17.4564C35.4847 17.1371 35.03 16.7061 34.8366 17.6792C34.7708 18.0101 34.6171 18.2652 34.4855 18.4705C34.3435 17.7521 33.9164 17.0084 33.514 16.507C33.3634 16.3194 32.8291 15.5737 32.7264 14.326C32.7111 14.1398 32.49 14.0524 32.3516 14.178C31.0296 15.3781 30.3039 17.0287 30.277 18.8869C30.277 18.8869 29.7265 18.4228 29.4275 17.5596C29.3469 17.3272 29.0353 17.2828 28.9001 17.4884C28.8741 17.5278 28.85 17.5674 28.8283 17.6057C27.8083 19.4093 27.3177 21.5994 27.7712 23.6371C28.5297 27.0496 33.5466 28.0036 36.2026 25.8588C38.8011 23.7604 37.9751 19.8549 35.7771 17.4564Z" fill="#FF7300"/>
<path d="M28.7172 23.9053C28.3156 21.9134 28.7316 19.7761 29.6135 17.9963C29.5463 17.8648 29.4826 17.7193 29.4274 17.5602C29.3469 17.3277 29.0352 17.2833 28.9 17.4889C28.8741 17.5283 28.85 17.5679 28.8283 17.6063C27.8083 19.4098 27.3177 21.6 27.7712 23.6376C28.124 25.2247 29.398 26.2797 30.927 26.7388C29.8406 26.194 28.9853 25.2368 28.7172 23.9053Z" fill="#FF8D30"/>
<path d="M34.7844 20.5404C34.5865 20.3243 34.2786 20.0325 34.1477 20.6912C34.1032 20.9152 33.9991 21.0879 33.91 21.2269C33.8139 20.7405 33.5248 20.2371 33.2523 19.8977C33.1504 19.7707 32.7887 19.2659 32.7192 18.4213C32.7088 18.2953 32.5591 18.2361 32.4655 18.3211C31.5705 19.1335 31.0793 20.2509 31.0611 21.5087C31.0611 21.5087 30.6884 21.1946 30.486 20.6103C30.4315 20.4529 30.2205 20.4229 30.129 20.562C30.1114 20.5887 30.0952 20.6155 30.0804 20.6415C29.39 21.8624 29.0578 23.345 29.3649 24.7244C29.8783 27.0344 33.2744 27.6802 35.0723 26.2283C35.688 25.7311 36.0697 25.0305 36.1471 24.2555C36.264 23.0818 35.8123 21.662 34.7844 20.5404Z" fill="#F4D44E"/>
<path d="M33.8646 23.4012C33.7543 23.2808 33.5828 23.1182 33.5098 23.4852C33.4851 23.61 33.4271 23.7062 33.3774 23.7837C33.3239 23.5127 33.1628 23.2322 33.011 23.0431C32.9542 22.9724 32.7527 22.6911 32.714 22.2206C32.7082 22.1504 32.6247 22.1174 32.5726 22.1648C32.074 22.6174 31.8003 23.2399 31.7902 23.9407C31.7902 23.9407 31.5826 23.7657 31.4698 23.4401C31.4394 23.3524 31.3219 23.3357 31.2709 23.4132C31.2611 23.4281 31.2521 23.443 31.2439 23.4575C30.8592 24.1377 30.6742 24.9637 30.8452 25.7322C31.2348 27.4849 34.428 27.4318 34.6239 25.471C34.6889 24.8171 34.4372 24.0261 33.8646 23.4012Z" fill="url(#paint2_linear_22206_9833)"/>
<path d="M31.5867 26.08C31.4156 25.3925 31.6006 24.6536 31.9853 24.0452C31.9935 24.0323 32.0026 24.0189 32.0123 24.0056C32.0633 23.9363 32.1808 23.9512 32.2112 24.0296C32.324 24.3209 32.5316 24.4774 32.5316 24.4774C32.54 23.9623 32.7265 23.4948 33.0692 23.1197C32.9926 23.0136 32.7582 22.7577 32.714 22.2206C32.7082 22.1504 32.6248 22.1174 32.5726 22.1648C32.074 22.6174 31.8003 23.2399 31.7902 23.9407C31.7902 23.9407 31.5826 23.7657 31.4698 23.4401C31.4394 23.3524 31.3219 23.3357 31.2709 23.4133C31.2611 23.4281 31.2521 23.4431 31.2439 23.4575C30.8592 24.1377 30.6742 24.9637 30.8452 25.7322C31.0036 26.4445 31.6539 26.8726 32.373 26.976C31.9851 26.7855 31.687 26.4838 31.5867 26.08Z" fill="#FFE36C"/>
<path d="M29.8512 10.5251C30.6537 9.87239 30.6519 8.65123 29.8512 8C29.0487 8.65268 29.0505 9.87387 29.8512 10.5251Z" fill="#FFA000"/>
<path d="M39.4676 15.7634C40.2701 15.1107 40.2684 13.8895 39.4676 13.2383C39.1009 13.5366 38.6669 15.1122 39.4676 15.7634Z" fill="#FFA000"/>
<path d="M25.2555 16.2613C25.8338 15.7909 25.8326 14.9108 25.2555 14.4414C24.9911 14.6564 24.6784 15.7919 25.2555 16.2613Z" fill="#FFA000"/>
<path d="M35.2692 12.3453C35.8476 11.8748 35.8463 10.9948 35.2692 10.5254C34.6909 10.9958 34.6922 11.8759 35.2692 12.3453Z" fill="#FFA000"/>
<path d="M31.0114 18.5884C31.1442 17.0205 31.7429 15.6263 32.7483 14.5635C32.7381 14.4864 32.7296 14.4074 32.7229 14.326C32.7076 14.1398 32.4864 14.0524 32.3481 14.178C31.3005 15.129 30.6281 16.3631 30.3805 17.759L30.3801 17.7588C30.3617 17.8624 30.3389 18.0132 30.3245 18.1317C30.3246 18.1318 30.3246 18.1319 30.3247 18.132C30.2946 18.3793 30.2771 18.631 30.2734 18.8869C30.3014 18.8924 30.9348 19.2179 31.0114 18.5884Z" fill="#FF8D30"/>
<path d="M30.2903 25.0517C30.0174 23.7631 30.2498 22.3889 30.7899 21.1982C30.6852 21.0516 30.5708 20.8545 30.486 20.6099C30.4315 20.4525 30.2206 20.4225 30.129 20.5616C30.1115 20.5883 30.0951 20.6151 30.0804 20.6411C29.39 21.862 29.0578 23.3446 29.3649 24.724C29.6053 25.8058 30.478 26.5226 31.5227 26.8299C30.9146 26.4262 30.4546 25.8287 30.2903 25.0517Z" fill="#E8C842"/>
<path d="M32.0476 20.9456C32.1381 20.299 32.4026 19.5865 32.8189 18.9909C32.7736 18.8227 32.7379 18.6327 32.7205 18.4213C32.7101 18.2953 32.5604 18.2361 32.4668 18.3211C31.9092 18.8273 31.509 19.4522 31.2816 20.1554L31.281 20.1552C31.2452 20.2657 31.1946 20.4487 31.164 20.5932C31.1643 20.5931 31.1645 20.5931 31.1648 20.593C31.102 20.8878 31.0671 21.1937 31.0625 21.5087C31.5632 21.5712 31.9774 21.4472 32.0476 20.9456Z" fill="#E8C842"/>
</g>
<path d="M55.72 11.768V23H52.984V18.376H48.728V23H45.992V11.768H48.728V16.168H52.984V11.768H55.72ZM63.0071 23.112C61.9511 23.112 60.9805 22.8667 60.0951 22.376C59.2205 21.8853 58.5218 21.2027 57.9991 20.328C57.4871 19.4427 57.2311 18.4507 57.2311 17.352C57.2311 16.2533 57.4871 15.2667 57.9991 14.392C58.5218 13.5173 59.2205 12.8347 60.0951 12.344C60.9805 11.8533 61.9511 11.608 63.0071 11.608C64.0631 11.608 65.0285 11.8533 65.9031 12.344C66.7885 12.8347 67.4818 13.5173 67.9831 14.392C68.4951 15.2667 68.7511 16.2533 68.7511 17.352C68.7511 18.4507 68.4951 19.4427 67.9831 20.328C67.4711 21.2027 66.7778 21.8853 65.9031 22.376C65.0285 22.8667 64.0631 23.112 63.0071 23.112ZM63.0071 20.616C63.9031 20.616 64.6178 20.3173 65.1511 19.72C65.6951 19.1227 65.9671 18.3333 65.9671 17.352C65.9671 16.36 65.6951 15.5707 65.1511 14.984C64.6178 14.3867 63.9031 14.088 63.0071 14.088C62.1005 14.088 61.3751 14.3813 60.8311 14.968C60.2978 15.5547 60.0311 16.3493 60.0311 17.352C60.0311 18.344 60.2978 19.1387 60.8311 19.736C61.3751 20.3227 62.1005 20.616 63.0071 20.616ZM78.3533 11.768V13.96H75.3773V23H72.6413V13.96H69.6653V11.768H78.3533Z" fill="#3B3B3B"/>
</g>
<rect x="0.5" y="0.5" width="103" height="35" rx="17.5" stroke="#D9D9D9"/>
<defs>
<linearGradient id="paint0_linear_22206_9833" x1="52" y1="1" x2="52" y2="35" gradientUnits="userSpaceOnUse">
<stop stop-color="#ECECEC"/>
<stop offset="1" stop-color="#AAAAAA"/>
</linearGradient>
<linearGradient id="paint1_linear_22206_9833" x1="32.7054" y1="9.56055" x2="32.7054" y2="26.9999" gradientUnits="userSpaceOnUse">
<stop stop-color="#D2CF00"/>
<stop offset="1" stop-color="#86491C"/>
</linearGradient>
<linearGradient id="paint2_linear_22206_9833" x1="32.7076" y1="22.1426" x2="32.7076" y2="26.9966" gradientUnits="userSpaceOnUse">
<stop stop-color="#FEED05"/>
<stop offset="1" stop-color="#FF8600"/>
</linearGradient>
<clipPath id="clip0_22206_9833">
<rect x="1" y="1" width="102" height="34" rx="17" fill="white"/>
</clipPath>
<clipPath id="clip1_22206_9833">
<rect width="19" height="19" fill="white" transform="translate(23 8)"/>
</clipPath>
</defs>
</svg>
