<svg width="24" height="24" viewBox="0 0 24 24" fill="none" xmlns="http://www.w3.org/2000/svg">
<rect width="24" height="24" rx="12" fill="#FFBCD2"/>
<path d="M14.6067 9.20164V6.783C14.6067 5.79991 13.8068 5 12.8236 5H6.7829C5.7998 5 5 5.79991 5 6.783V10.8221C5 11.6642 5.58672 12.3717 6.37274 12.5576V13.5679C6.37274 13.7338 6.47272 13.8833 6.62599 13.9469C6.67673 13.9679 6.73003 13.978 6.7829 13.978C6.8896 13.978 6.99449 13.9364 7.073 13.8579L8.32568 12.6052H8.57306V11.805C8.57306 10.3694 9.74083 9.20164 11.1763 9.20164H14.6067Z" fill="#B43B3B"/>
<path d="M17.2142 10.0215H11.1735C10.1904 10.0215 9.39062 10.8213 9.39062 11.8045V15.8436C9.39062 16.8268 10.1904 17.6266 11.1735 17.6266H15.6715L16.9241 18.8794C17.0027 18.9579 17.1075 18.9995 17.2144 18.9995C17.2671 18.9995 17.3204 18.9894 17.3712 18.9683C17.5244 18.9048 17.6244 18.7552 17.6244 18.5894V17.579C18.4105 17.3933 18.9973 16.6857 18.9973 15.8436V11.8045C18.9973 10.8213 18.1973 10.0215 17.2142 10.0215ZM15.9401 13.1433L13.9985 15.0849C13.9184 15.165 13.8134 15.2049 13.7085 15.2049C13.6035 15.2049 13.4985 15.165 13.4185 15.0849L12.4476 14.1141C12.2874 13.954 12.2874 13.6942 12.4476 13.534C12.6077 13.3739 12.8674 13.3739 13.0276 13.534L13.7085 14.2148L15.36 12.5632C15.5202 12.4031 15.7799 12.4031 15.9401 12.5632C16.1003 12.7234 16.1003 12.9832 15.9401 13.1433Z" fill="#B43B3B"/>
</svg>
