<svg width="24" height="24" viewBox="0 0 24 24" fill="none" xmlns="http://www.w3.org/2000/svg">
<rect width="24" height="24" rx="12" fill="#FFC1A8"/>
<path d="M9.5004 5.74951V5.49967C9.5004 5.22484 9.72539 5 10.0004 5H11.7503C12.0253 5 12.2503 5.22484 12.2503 5.49967V5.74951C12.2503 6.02432 12.0253 6.24918 11.7503 6.24918V6.8088C11.1979 6.72904 10.5504 6.72865 10.0004 6.8088V6.24918C9.72539 6.24918 9.5004 6.02432 9.5004 5.74951ZM10.8753 17.9914C8.18795 17.9914 6.00055 15.8054 6.00055 13.1196C6.2057 7.02039 14.7659 6.5211 15.7101 12.5076C16.0453 12.4789 16.4 12.5001 16.7226 12.57C16.6301 11.5582 16.2801 10.5963 15.6926 9.76185C14.789 8.45274 13.3186 7.5357 11.7503 7.31347C8.27597 6.73641 4.94746 9.59194 5.00063 13.1197C4.94352 17.4 9.65422 20.3233 13.4553 18.3936C13.2227 18.1488 13.0252 17.8665 12.8728 17.5617C12.2628 17.839 11.5878 17.9914 10.8753 17.9914ZM5.79305 9.27967C6.1515 8.7924 6.5587 8.40184 7.0305 8.03798L6.63302 7.64075C6.53552 7.54331 6.37553 7.54331 6.27803 7.64075L5.39307 8.52517C5.29557 8.62261 5.29557 8.7825 5.39307 8.87992L5.79305 9.27967ZM15.0927 8.34529C15.4099 8.61454 15.7016 8.93569 15.9576 9.27717L16.3676 8.86744C16.4656 8.77512 16.4676 8.60698 16.3676 8.51518C16.3676 8.51518 15.4826 7.63075 15.4826 7.63075C15.3901 7.53582 15.2252 7.53582 15.1302 7.63075L14.7202 8.04049C14.8476 8.13613 14.9686 8.23379 15.0927 8.34529ZM10.8753 12.8698C10.5469 12.8761 10.547 13.3632 10.8753 13.3695C11.2037 13.3632 11.2037 12.8761 10.8753 12.8698ZM12.6803 17.0994C9.87376 18.4394 6.44671 16.2391 6.50051 13.1197C6.68527 7.63779 14.3821 7.20005 15.2177 12.585C13.2752 12.9829 11.9977 15.1865 12.6803 17.0994ZM11.1253 12.4151C11.1253 12.4151 11.1253 9.62194 11.1253 9.62196C11.1191 9.2924 10.6308 9.29556 10.6253 9.62194V12.4151C10.4129 12.4925 10.2479 12.6574 10.1704 12.8698H8.37545C8.04617 12.8764 8.04799 13.3631 8.37544 13.3695H10.1704C10.2754 13.6593 10.5504 13.8691 10.8753 13.8691C11.7153 13.8598 11.9066 12.6972 11.1253 12.4151ZM19 15.9927C18.837 19.9691 13.1639 19.9702 13.0002 15.9927C13.0002 14.3388 14.3452 12.9947 16.0001 12.9947C17.655 12.9947 19 14.3388 19 15.9927ZM16.0001 16.8672C15.6718 16.8734 15.6717 17.3605 16.0001 17.3668C16.3285 17.3606 16.3285 16.8735 16.0001 16.8672ZM16.2501 14.6186C16.2501 14.4812 16.1376 14.3688 16.0001 14.3688C15.8626 14.3688 15.7501 14.4812 15.7501 14.6186C15.7501 14.6186 15.7501 16.1177 15.7501 16.1176C15.7564 16.4462 16.2439 16.4454 16.2501 16.1177L16.2501 14.6186Z" fill="#E94907"/>
</svg>
