<svg width="24" height="24" viewBox="0 0 24 24" fill="none" xmlns="http://www.w3.org/2000/svg">
<rect width="24" height="24" rx="12" fill="#FFE497"/>
<path d="M15.5 12.5C14.9067 12.5 14.3266 12.6759 13.8333 13.0056C13.3399 13.3352 12.9554 13.8038 12.7284 14.3519C12.5013 14.9001 12.4419 15.5033 12.5576 16.0853C12.6734 16.6672 12.9591 17.2018 13.3787 17.6213C13.7982 18.0409 14.3328 18.3266 14.9147 18.4424C15.4967 18.5581 16.0999 18.4987 16.6481 18.2716C17.1962 18.0446 17.6648 17.6601 17.9944 17.1667C18.3241 16.6734 18.5 16.0933 18.5 15.5C18.4992 14.7046 18.1829 13.942 17.6204 13.3796C17.058 12.8171 16.2954 12.5008 15.5 12.5ZM16.95 16.2235C16.9207 16.2823 16.88 16.3347 16.8304 16.3778C16.7808 16.4209 16.7232 16.4537 16.6609 16.4746C16.5986 16.4954 16.5328 16.5037 16.4673 16.499C16.4017 16.4944 16.3378 16.4769 16.279 16.4475L15.279 15.9475C15.1954 15.9063 15.125 15.8426 15.0757 15.7635C15.0264 15.6845 15.0002 15.5932 15 15.5V14C15 13.8674 15.0527 13.7402 15.1464 13.6464C15.2402 13.5527 15.3674 13.5 15.5 13.5C15.6326 13.5 15.7598 13.5527 15.8536 13.6464C15.9473 13.7402 16 13.8674 16 14V15.191L16.7235 15.5525C16.7825 15.5816 16.8352 15.6221 16.8785 15.6716C16.9218 15.7211 16.955 15.7787 16.976 15.841C16.9971 15.9033 17.0056 15.9692 17.0011 16.0348C16.9967 16.1005 16.9793 16.1646 16.95 16.2235Z" fill="#A17700"/>
<path d="M17.5 7.5C17.5 7.10218 17.342 6.72064 17.0607 6.43934C16.7794 6.15804 16.3978 6 16 6H14.5V5.5C14.5 5.36739 14.4473 5.24021 14.3536 5.14645C14.2598 5.05268 14.1326 5 14 5C13.8674 5 13.7402 5.05268 13.6464 5.14645C13.5527 5.24021 13.5 5.36739 13.5 5.5V6H9V5.5C9 5.36739 8.94732 5.24021 8.85355 5.14645C8.75979 5.05268 8.63261 5 8.5 5C8.36739 5 8.24021 5.05268 8.14645 5.14645C8.05268 5.24021 8 5.36739 8 5.5V6H6.5C6.10218 6 5.72064 6.15804 5.43934 6.43934C5.15804 6.72064 5 7.10218 5 7.5V9H17.5V7.5Z" fill="#A17700"/>
<path d="M15.5 11.5C16.2028 11.499 16.8932 11.6854 17.5 12.04V10H5V16C5.00119 16.3975 5.1596 16.7783 5.44065 17.0593C5.7217 17.3404 6.10254 17.4988 6.5 17.5H12.04C11.6854 16.8932 11.499 16.2028 11.5 15.5C11.5015 14.4396 11.9233 13.423 12.6732 12.6732C13.423 11.9233 14.4396 11.5015 15.5 11.5ZM8 15.5H7C6.86739 15.5 6.74021 15.4473 6.64645 15.3536C6.55268 15.2598 6.5 15.1326 6.5 15C6.5 14.8674 6.55268 14.7402 6.64645 14.6464C6.74021 14.5527 6.86739 14.5 7 14.5H8C8.13261 14.5 8.25979 14.5527 8.35355 14.6464C8.44732 14.7402 8.5 14.8674 8.5 15C8.5 15.1326 8.44732 15.2598 8.35355 15.3536C8.25979 15.4473 8.13261 15.5 8 15.5ZM8 13H7C6.86739 13 6.74021 12.9473 6.64645 12.8536C6.55268 12.7598 6.5 12.6326 6.5 12.5C6.5 12.3674 6.55268 12.2402 6.64645 12.1464C6.74021 12.0527 6.86739 12 7 12H8C8.13261 12 8.25979 12.0527 8.35355 12.1464C8.44732 12.2402 8.5 12.3674 8.5 12.5C8.5 12.6326 8.44732 12.7598 8.35355 12.8536C8.25979 12.9473 8.13261 13 8 13ZM11 13H10C9.86739 13 9.74021 12.9473 9.64645 12.8536C9.55268 12.7598 9.5 12.6326 9.5 12.5C9.5 12.3674 9.55268 12.2402 9.64645 12.1464C9.74021 12.0527 9.86739 12 10 12H11C11.1326 12 11.2598 12.0527 11.3536 12.1464C11.4473 12.2402 11.5 12.3674 11.5 12.5C11.5 12.6326 11.4473 12.7598 11.3536 12.8536C11.2598 12.9473 11.1326 13 11 13Z" fill="#A17700"/>
</svg>
