<svg width="29" height="29" viewBox="0 0 29 29" fill="none" xmlns="http://www.w3.org/2000/svg">
<rect x="0.198437" y="0.199902" width="28.4" height="28.4" rx="14.2" fill="#FFDDDD"/>
<rect x="0.198437" y="0.199902" width="28.4" height="28.4" rx="14.2" stroke="#B33737" stroke-width="0.4"/>
<g clip-path="url(#clip0_19644_22985)">
<path d="M10.1957 16.3442H7.90812C7.69917 16.3437 7.49896 16.2603 7.35141 16.1124C7.20387 15.9644 7.12104 15.764 7.12109 15.555V8.12154C7.12104 7.91259 7.20387 7.71215 7.35141 7.56419C7.49896 7.41624 7.69917 7.33286 7.90812 7.33235H10.1957C10.4049 7.3328 10.6053 7.4161 10.7532 7.564C10.9011 7.7119 10.9844 7.91237 10.9849 8.12154V15.555C10.9844 15.7642 10.9011 15.9647 10.7532 16.1126C10.6053 16.2605 10.4049 16.3438 10.1957 16.3442Z" fill="#B33737"/>
<path d="M21.338 13.7561C21.3379 14.1128 21.1964 14.455 20.9445 14.7075C20.923 14.7308 20.8999 14.7524 20.8753 14.7723C21.1543 14.8906 21.3839 15.1016 21.5253 15.3696C21.6666 15.6377 21.711 15.9463 21.651 16.2433C21.591 16.5404 21.4302 16.8076 21.1959 16.9997C20.9615 17.1918 20.668 17.2971 20.365 17.2977H15.6731C15.6991 17.3432 15.7228 17.3842 15.7445 17.4253C15.8795 17.6433 15.987 17.8771 16.0645 18.1215C16.1679 18.4603 16.231 18.8101 16.2526 19.1637C16.2825 19.6745 16.2099 20.1862 16.0391 20.6685C15.8683 21.1509 15.6027 21.5942 15.258 21.9723C15.1281 22.1199 14.9698 22.2397 14.7927 22.3248C14.6155 22.4099 14.423 22.4584 14.2266 22.4675C13.9584 22.4778 13.6962 22.3864 13.4925 22.2116C13.2889 22.0367 13.1587 21.7914 13.1282 21.5248C13.1264 21.5148 13.1257 21.5046 13.1261 21.4945V19.6005L11.872 16.4221C11.7693 16.1636 11.6148 15.9289 11.418 15.7323V8.40694C11.7275 8.32168 12.0425 8.25739 12.3607 8.2145C12.4789 8.19869 12.5981 8.19074 12.7174 8.19072H19.0763C19.3906 8.19113 19.6921 8.31543 19.9153 8.53666C20.0251 8.64654 20.1122 8.777 20.1716 8.92059C20.2309 9.06417 20.2614 9.21805 20.2612 9.37342C20.262 9.66016 20.1573 9.93718 19.9672 10.1518C20.2176 10.2044 20.4481 10.3268 20.6321 10.5047C20.816 10.6826 20.946 10.9089 21.007 11.1574C21.068 11.4059 21.0576 11.6667 20.9769 11.9095C20.8962 12.1524 20.7486 12.3676 20.5509 12.5302C20.7856 12.6379 20.9845 12.8106 21.124 13.0279C21.2635 13.2452 21.3377 13.4979 21.338 13.7561Z" fill="#B33737"/>
</g>
<defs>
<clipPath id="clip0_19644_22985">
<rect width="16" height="16" fill="white" transform="matrix(1 0 0 -1 6.39844 22.8999)"/>
</clipPath>
</defs>
</svg>
