<svg width="28" height="28" viewBox="0 0 28 28" fill="none" xmlns="http://www.w3.org/2000/svg">
<rect x="0.4" y="0.4" width="27.2" height="27.2" rx="5.6" fill="black" fill-opacity="0.01"/>
<rect x="0.4" y="0.4" width="27.2" height="27.2" rx="5.6" stroke="#1287C2" stroke-width="0.8"/>
<g clip-path="url(#clip0_19642_22713)">
<path d="M16.0003 8.56592C16.0024 8.6985 16.0432 8.82757 16.1177 8.93725C16.1922 9.04694 16.2972 9.13244 16.4196 9.18326C17.5145 9.66498 18.4403 10.4629 19.0783 11.4747C19.7163 12.4864 20.0374 13.6657 20.0003 14.8613C19.9745 16.4526 19.3176 17.9684 18.1741 19.0754C17.0307 20.1824 15.4943 20.7897 13.903 20.7639C12.3117 20.7381 10.7958 20.0812 9.68885 18.9377C8.58188 17.7943 7.9745 16.2579 8.00031 14.6666C8.00185 13.5041 8.34108 12.367 8.97675 11.3937C9.61242 10.4204 10.5172 9.65267 11.581 9.18392C11.7035 9.13281 11.8084 9.04704 11.8829 8.93714C11.9574 8.82725 11.9982 8.698 12.0003 8.56526C12.0005 8.45606 11.9738 8.3485 11.9227 8.25202C11.8716 8.15554 11.7975 8.07309 11.7071 8.01193C11.6166 7.95077 11.5125 7.91276 11.4039 7.90125C11.2953 7.88974 11.1856 7.90508 11.0843 7.94592C9.53717 8.61668 8.26846 9.80015 7.49189 11.297C6.71532 12.7938 6.47833 14.5126 6.82085 16.1637C7.16337 17.8148 8.06447 19.2975 9.37236 20.3619C10.6803 21.4263 12.315 22.0075 14.0013 22.0075C15.6876 22.0075 17.3224 21.4263 18.6303 20.3619C19.9382 19.2975 20.8393 17.8148 21.1818 16.1637C21.5243 14.5126 21.2873 12.7938 20.5107 11.297C19.7342 9.80015 18.4655 8.61668 16.9183 7.94592C16.8169 7.90464 16.7069 7.88897 16.5979 7.90031C16.489 7.91165 16.3846 7.94964 16.2938 8.01093C16.2031 8.07221 16.1289 8.15491 16.0777 8.25171C16.0265 8.3485 15.9999 8.45642 16.0003 8.56592Z" fill="#1287C2"/>
<path d="M14.6654 6.66667C14.6654 6.29848 14.3669 6 13.9987 6C13.6305 6 13.332 6.29848 13.332 6.66667V10.6667C13.332 11.0349 13.6305 11.3333 13.9987 11.3333C14.3669 11.3333 14.6654 11.0349 14.6654 10.6667V6.66667Z" fill="#1287C2"/>
</g>
<defs>
<clipPath id="clip0_19642_22713">
<rect width="16" height="16" fill="white" transform="translate(6 6)"/>
</clipPath>
</defs>
</svg>
