<svg width="30" height="30" viewBox="0 0 30 30" fill="none" xmlns="http://www.w3.org/2000/svg">
<foreignObject x="-60" y="-60" width="150" height="150"><div xmlns="http://www.w3.org/1999/xhtml" style="backdrop-filter:blur(30px);clip-path:url(#bgblur_0_19644_22936_clip_path);height:100%;width:100%"></div></foreignObject><g data-figma-bg-blur-radius="60">
<rect width="30" height="30" rx="15" fill="#D0FF99"/>
<g clip-path="url(#clip1_19644_22936)">
<path d="M10.7973 13.5557H8.50968C8.30073 13.5562 8.10052 13.6396 7.95298 13.7875C7.80543 13.9355 7.7226 14.1359 7.72266 14.3449V21.7784C7.7226 21.9873 7.80543 22.1878 7.95298 22.3357C8.10052 22.4837 8.30073 22.567 8.50968 22.5676H10.7973C11.0064 22.5671 11.2069 22.4838 11.3548 22.3359C11.5027 22.188 11.586 21.9875 11.5864 21.7784V14.3449C11.586 14.1357 11.5027 13.9352 11.3548 13.7873C11.2069 13.6394 11.0064 13.5561 10.7973 13.5557Z" fill="#559D00"/>
<path d="M21.9395 16.1438C21.9395 15.7871 21.798 15.4449 21.546 15.1924C21.5246 15.1691 21.5014 15.1475 21.4768 15.1276C21.7558 15.0093 21.9855 14.7983 22.1268 14.5303C22.2682 14.2622 22.3126 13.9536 22.2526 13.6566C22.1926 13.3595 22.0318 13.0923 21.7975 12.9002C21.5631 12.7081 21.2696 12.6028 20.9666 12.6022H16.2747C16.3006 12.5567 16.3244 12.5157 16.346 12.4746C16.481 12.2566 16.5885 12.0228 16.666 11.7784C16.7694 11.4396 16.8326 11.0898 16.8541 10.7362C16.8841 10.2254 16.8115 9.71372 16.6407 9.23136C16.4699 8.74901 16.2043 8.3057 15.8595 7.92756C15.7297 7.78003 15.5714 7.66016 15.3942 7.5751C15.217 7.49003 15.0245 7.44151 14.8282 7.43243C14.56 7.42213 14.2978 7.51354 14.0941 7.68835C13.8904 7.86316 13.7603 8.10846 13.7298 8.37513C13.728 8.38511 13.7273 8.39526 13.7276 8.4054V10.2995L12.4736 13.4778C12.3709 13.7363 12.2164 13.971 12.0195 14.1676V21.493C12.3291 21.5782 12.644 21.6425 12.9622 21.6854C13.0805 21.7012 13.1997 21.7092 13.319 21.7092H19.6779C19.9922 21.7088 20.2936 21.5845 20.5168 21.3632C20.6267 21.2534 20.7138 21.1229 20.7731 20.9793C20.8325 20.8357 20.863 20.6819 20.8628 20.5265C20.8635 20.2397 20.7589 19.9627 20.5687 19.7481C20.8192 19.6955 21.0497 19.5731 21.2336 19.3952C21.4176 19.2173 21.5476 18.9911 21.6086 18.7425C21.6696 18.494 21.6591 18.2332 21.5785 17.9904C21.4978 17.7475 21.3501 17.5323 21.1525 17.3697C21.3872 17.262 21.586 17.0893 21.7255 16.872C21.865 16.6547 21.9393 16.402 21.9395 16.1438Z" fill="#559D00"/>
</g>
</g>
<defs>
<clipPath id="bgblur_0_19644_22936_clip_path" transform="translate(60 60)"><rect width="30" height="30" rx="15"/>
</clipPath><clipPath id="clip1_19644_22936">
<rect width="16" height="16" fill="white" transform="translate(7 7)"/>
</clipPath>
</defs>
</svg>
