<svg width="30" height="30" viewBox="0 0 30 30" fill="none" xmlns="http://www.w3.org/2000/svg">
<foreignObject x="-60" y="-60" width="150" height="150"><div xmlns="http://www.w3.org/1999/xhtml" style="backdrop-filter:blur(30px);clip-path:url(#bgblur_0_19644_22956_clip_path);height:100%;width:100%"></div></foreignObject><g data-figma-bg-blur-radius="60">
<rect width="30" height="30" rx="15" fill="#FDC6C7"/>
<path d="M14.999 14.6276C14.5584 14.6276 14.1448 14.4559 13.8331 14.1446L10.3438 10.6552L11.4042 9.59473L14.894 13.0841C14.9664 13.1561 15.032 13.1561 15.104 13.0841L18.5941 9.59473L19.6546 10.6552L16.1649 14.1446C15.8532 14.4562 15.4396 14.6276 14.999 14.6276Z" fill="#BE383B"/>
<path d="M17.7791 17.6963L17.5646 19.1978C17.5159 19.5398 17.7244 19.866 18.0551 19.965L21.0874 20.8748C21.3956 20.9674 21.7271 20.8369 21.8903 20.5594L23.1053 18.4879C23.4146 17.9606 23.2114 17.2807 22.6605 17.016C21.312 16.3691 18.6473 15.375 15 15.375C11.3531 15.375 8.68802 16.3687 7.33952 17.016C6.78864 17.2804 6.58577 17.9606 6.89477 18.4879L8.10977 20.5594C8.27252 20.8369 8.60439 20.9674 8.91264 20.8748L11.9449 19.965C12.2756 19.8656 12.4841 19.5394 12.4354 19.1978L12.2205 17.6951C12.1654 17.3085 12.4361 16.9496 12.8239 16.9024C13.4985 16.8203 14.2249 16.7711 14.9996 16.7715C15.7736 16.7715 16.5008 16.821 17.1761 16.9039C17.5639 16.9511 17.8346 17.3096 17.7791 17.6963Z" fill="#BE383B"/>
<path d="M19.875 9.375V13.125L16.125 9.375H19.875Z" fill="#BE383B"/>
</g>
<defs>
<clipPath id="bgblur_0_19644_22956_clip_path" transform="translate(60 60)"><rect width="30" height="30" rx="15"/>
</clipPath></defs>
</svg>
