<svg width="29" height="29" viewBox="0 0 29 29" fill="none" xmlns="http://www.w3.org/2000/svg">
<rect x="0.198437" y="0.199902" width="28.4" height="28.4" rx="14.2" fill="#EBFFD3"/>
<rect x="0.198437" y="0.199902" width="28.4" height="28.4" rx="14.2" stroke="#559D00" stroke-width="0.4"/>
<g clip-path="url(#clip0_19644_22979)">
<path d="M10.1957 13.4556H7.90812C7.69917 13.4561 7.49896 13.5395 7.35141 13.6874C7.20387 13.8354 7.12104 14.0358 7.12109 14.2448V21.6783C7.12104 21.8872 7.20387 22.0877 7.35141 22.2356C7.49896 22.3836 7.69917 22.4669 7.90812 22.4675H10.1957C10.4049 22.467 10.6053 22.3837 10.7532 22.2358C10.9011 22.0879 10.9844 21.8874 10.9849 21.6783V14.2448C10.9844 14.0356 10.9011 13.8351 10.7532 13.6872C10.6053 13.5393 10.4049 13.456 10.1957 13.4556Z" fill="#559D00"/>
<path d="M21.338 16.0437C21.3379 15.687 21.1964 15.3448 20.9445 15.0923C20.923 15.069 20.8999 15.0474 20.8753 15.0275C21.1543 14.9092 21.3839 14.6982 21.5253 14.4302C21.6666 14.1621 21.711 13.8535 21.651 13.5565C21.591 13.2594 21.4302 12.9922 21.1959 12.8001C20.9615 12.608 20.668 12.5027 20.365 12.5021H15.6731C15.6991 12.4567 15.7228 12.4156 15.7445 12.3745C15.8795 12.1565 15.987 11.9227 16.0645 11.6783C16.1679 11.3395 16.231 10.9897 16.2526 10.6361C16.2825 10.1253 16.2099 9.61362 16.0391 9.13127C15.8683 8.64891 15.6027 8.20561 15.258 7.82746C15.1281 7.67993 14.9698 7.56006 14.7927 7.475C14.6155 7.38993 14.423 7.34141 14.2266 7.33233C13.9584 7.32203 13.6962 7.41344 13.4925 7.58825C13.2889 7.76306 13.1587 8.00836 13.1282 8.27503C13.1264 8.28501 13.1257 8.29516 13.1261 8.3053V10.1994L11.872 13.3777C11.7693 13.6362 11.6148 13.8709 11.418 14.0675V21.3929C11.7275 21.4781 12.0425 21.5424 12.3607 21.5853C12.4789 21.6011 12.5981 21.6091 12.7174 21.6091H19.0763C19.3906 21.6087 19.6921 21.4844 19.9153 21.2631C20.0251 21.1533 20.1122 21.0228 20.1716 20.8792C20.2309 20.7356 20.2614 20.5818 20.2612 20.4264C20.262 20.1396 20.1573 19.8626 19.9672 19.648C20.2176 19.5954 20.4481 19.473 20.6321 19.2951C20.816 19.1172 20.946 18.891 21.007 18.6424C21.068 18.3939 21.0576 18.1331 20.9769 17.8903C20.8962 17.6474 20.7486 17.4323 20.5509 17.2696C20.7856 17.1619 20.9845 16.9892 21.124 16.7719C21.2635 16.5546 21.3377 16.3019 21.338 16.0437Z" fill="#559D00"/>
</g>
<defs>
<clipPath id="clip0_19644_22979">
<rect width="16" height="16" fill="white" transform="translate(6.39844 6.8999)"/>
</clipPath>
</defs>
</svg>
