<svg width="24" height="24" viewBox="0 0 24 24" fill="none" xmlns="http://www.w3.org/2000/svg">
<rect width="24" height="24" rx="12" fill="#A0DEFF"/>
<g clip-path="url(#clip0_22013_9453)">
<path d="M10.0195 8.01699H13.9734H13.974C14.2005 8.01699 14.3841 7.83328 14.3841 7.60684C14.3841 7.57127 14.3797 7.53688 14.3712 7.50408L13.9363 5.32973C13.8979 5.138 13.7296 5 13.5341 5H10.4588C10.2633 5 10.095 5.138 10.0567 5.32973L9.61735 7.52641C9.59321 7.64689 9.62451 7.77175 9.70237 7.86682C9.78024 7.96188 9.89666 8.01699 10.0195 8.01699Z" fill="#0076B1"/>
<path d="M15.727 6.75781H15.0546L15.1686 7.32776C15.1899 7.4193 15.2007 7.51318 15.2007 7.60739C15.2007 8.28586 14.6487 8.83786 13.9697 8.83786H10.0158C9.64566 8.83786 9.29884 8.67369 9.06429 8.38754C8.82962 8.10129 8.73659 7.72894 8.80922 7.3661L8.93088 6.75792H8.2585C7.42676 6.75792 6.75 7.43457 6.75 8.26631V17.4921C6.75 18.3239 7.42676 19.0005 8.2585 19.0005H15.727C16.5587 19.0005 17.2355 18.3239 17.2355 17.4921V8.26631C17.2355 7.43457 16.5587 6.75781 15.727 6.75781ZM9.35684 9.80386H12.4321C12.6586 9.80386 12.8422 9.98757 12.8422 10.214C12.8422 10.4406 12.6586 10.6242 12.4321 10.6242H9.35684C9.13029 10.6242 8.94669 10.4406 8.94669 10.214C8.94669 9.98757 9.13029 9.80386 9.35684 9.80386ZM9.76689 12.4106C9.76689 12.5186 9.7231 12.6244 9.64684 12.7007C9.57057 12.777 9.46472 12.8207 9.35674 12.8207C9.24896 12.8207 9.14311 12.777 9.06685 12.7007C8.99059 12.6244 8.94679 12.5186 8.94679 12.4106C8.94679 12.3026 8.99059 12.1971 9.06685 12.1207C9.14311 12.0442 9.24896 12.0004 9.35674 12.0004C9.46472 12.0004 9.57057 12.0442 9.64684 12.1207C9.7231 12.1971 9.76689 12.3026 9.76689 12.4106ZM9.64684 17.0941C9.57057 17.1703 9.46472 17.214 9.35695 17.214C9.24896 17.214 9.14311 17.1703 9.06685 17.0941C8.99059 17.0175 8.94658 16.9119 8.94658 16.8038C8.94658 16.696 8.99059 16.5903 9.06685 16.5139C9.14311 16.4375 9.24896 16.3937 9.35695 16.3937C9.46472 16.3937 9.57057 16.4375 9.64684 16.5139C9.7231 16.5903 9.76689 16.696 9.76689 16.8038C9.76689 16.9119 9.7231 17.0175 9.64684 17.0941ZM9.64684 14.8973C9.57057 14.9737 9.46472 15.0175 9.35674 15.0175C9.24896 15.0175 9.14311 14.9737 9.06685 14.8973C8.99026 14.8209 8.94658 14.7154 8.94658 14.6074C8.94658 14.4994 8.99026 14.3935 9.06685 14.3173C9.14311 14.241 9.24896 14.1972 9.35674 14.1972C9.46472 14.1972 9.57057 14.241 9.64684 14.3173C9.7231 14.3935 9.76711 14.4994 9.76711 14.6074C9.76711 14.7151 9.7231 14.821 9.64684 14.8973ZM14.6286 17.214H11.5534C11.3269 17.214 11.1433 17.0304 11.1433 16.8038C11.1433 16.5774 11.3269 16.3937 11.5534 16.3937H14.6286C14.8552 16.3937 15.0388 16.5774 15.0388 16.8038C15.0388 17.0304 14.8552 17.214 14.6286 17.214ZM14.6286 15.0174H11.5534C11.3269 15.0174 11.1433 14.8338 11.1433 14.6073C11.1433 14.3808 11.3269 14.1971 11.5534 14.1971H14.6286C14.8552 14.1971 15.0388 14.3808 15.0388 14.6073C15.0388 14.8338 14.8552 15.0174 14.6286 15.0174ZM14.6286 12.8209H11.5534C11.3269 12.8209 11.1433 12.6372 11.1433 12.4107C11.1433 12.1841 11.3269 12.0005 11.5534 12.0005H14.6286C14.8552 12.0005 15.0388 12.1841 15.0388 12.4107C15.0388 12.6372 14.8552 12.8209 14.6286 12.8209Z" fill="#0076B1"/>
</g>
<defs>
<clipPath id="clip0_22013_9453">
<rect width="14" height="14" fill="white" transform="translate(5 5)"/>
</clipPath>
</defs>
</svg>
