<svg width="24" height="24" viewBox="0 0 24 24" fill="none" xmlns="http://www.w3.org/2000/svg">
<rect width="24" height="24" rx="12" fill="#CDCDCD"/>
<g clip-path="url(#clip0_22013_9465)">
<path d="M12.4554 16.2923C12.4554 14.3858 14.0069 12.8343 15.9139 12.8343C17.3214 12.8343 18.5329 13.6808 19.0719 14.8903V9.87578V8.37078C19.0719 6.67778 17.6944 5.30028 16.0014 5.30028H15.7619V5.00078C15.7619 4.75228 15.5604 4.55078 15.3119 4.55078C15.0634 4.55078 14.8619 4.75228 14.8619 5.00078V5.30078H9.13188V5.00078C9.13188 4.75228 8.93038 4.55078 8.68187 4.55078C8.43337 4.55078 8.23188 4.75228 8.23188 5.00078V5.30078H7.99187C6.29887 5.30078 4.92188 6.67778 4.92188 8.37078V9.87578V16.3808C4.92188 18.0738 6.29938 19.4513 7.99238 19.4513H14.5119C13.3019 18.9118 12.4554 17.7003 12.4554 16.2923ZM5.82188 9.42578V8.37078C5.82188 7.17378 6.79487 6.20078 7.99187 6.20078H8.23137V6.49978C8.23137 6.74828 8.43288 6.94978 8.68138 6.94978C8.92988 6.94978 9.13137 6.74828 9.13137 6.49978V6.20078H14.8619V6.49978C14.8619 6.74828 15.0634 6.94978 15.3119 6.94978C15.5604 6.94978 15.7619 6.74828 15.7619 6.49978V6.20078H16.0014C17.1984 6.20078 18.1714 7.17378 18.1714 8.37078V9.42528H5.82188V9.42578ZM9.17987 16.3673H8.47588C8.22738 16.3673 8.02587 16.1658 8.02587 15.9173C8.02587 15.6688 8.22738 15.4673 8.47588 15.4673H9.17987C9.42837 15.4673 9.62987 15.6688 9.62987 15.9173C9.62987 16.1658 9.42837 16.3673 9.17987 16.3673ZM9.17987 13.4078H8.47588C8.22738 13.4078 8.02587 13.2063 8.02587 12.9578C8.02587 12.7093 8.22738 12.5078 8.47588 12.5078H9.17987C9.42837 12.5078 9.62987 12.7093 9.62987 12.9578C9.62987 13.2063 9.42837 13.4078 9.17987 13.4078ZM11.6449 13.4078C11.3964 13.4078 11.1949 13.2063 11.1949 12.9578C11.1949 12.7093 11.3964 12.5078 11.6449 12.5078H12.3489C12.5974 12.5078 12.7989 12.7093 12.7989 12.9578C12.7989 13.2063 12.5974 13.4078 12.3489 13.4078H11.6449Z" fill="#303030"/>
<path d="M15.9116 13.584C14.4156 13.584 13.2031 14.7965 13.2031 16.2925C13.2031 17.7885 14.4156 19.001 15.9116 19.001C17.4076 19.001 18.6201 17.7885 18.6201 16.2925C18.6196 14.7965 17.4071 13.584 15.9116 13.584ZM16.8851 16.6295C17.0611 16.8055 17.0611 17.0905 16.8851 17.266C16.7971 17.354 16.6821 17.398 16.5666 17.398C16.4511 17.398 16.3361 17.354 16.2481 17.266L15.9111 16.929L15.5741 17.266C15.4861 17.354 15.3711 17.398 15.2556 17.398C15.1401 17.398 15.0251 17.354 14.9371 17.266C14.7611 17.09 14.7611 16.805 14.9371 16.6295L15.2741 16.2925L14.9371 15.9555C14.7611 15.7795 14.7611 15.4945 14.9371 15.319C15.1131 15.1435 15.3981 15.143 15.5736 15.319L15.9106 15.656L16.2476 15.319C16.4236 15.143 16.7086 15.143 16.8841 15.319C17.0596 15.495 17.0601 15.78 16.8841 15.9555L16.5471 16.2925L16.8851 16.6295Z" fill="#303030"/>
</g>
<defs>
<clipPath id="clip0_22013_9465">
<rect width="16" height="16" fill="white" transform="translate(4 4)"/>
</clipPath>
</defs>
</svg>
