<svg width="104" height="36" viewBox="0 0 104 36" fill="none" xmlns="http://www.w3.org/2000/svg">
<g clip-path="url(#clip0_22206_9896)">
<rect x="1" y="1" width="102" height="34" rx="17" fill="url(#paint0_linear_22206_9896)"/>
<g style="mix-blend-mode:luminosity" clip-path="url(#clip1_22206_9896)">
<path d="M13.3105 -3.13876L14.0363 -3.88449C14.2441 -4.09796 14.6055 -4.00114 14.6787 -3.71237L14.9344 -2.70363C15.1873 -1.70579 16.2137 -1.11323 17.2043 -1.39307L18.2058 -1.67601C18.4924 -1.75701 18.757 -1.49246 18.676 -1.2058L18.393 -0.204335C18.1132 0.786298 18.7057 1.81265 19.7036 2.0656L20.7123 2.32129C21.0011 2.39448 21.0979 2.75586 20.8845 2.96363L20.1387 3.68943C19.401 4.40743 19.401 5.59254 20.1387 6.3105L20.8845 7.03631C21.0979 7.24408 21.0011 7.60545 20.7123 7.67865L19.7036 7.93434C18.7058 8.18729 18.1132 9.21364 18.393 10.2043L18.676 11.2057C18.757 11.4924 18.4924 11.7569 18.2058 11.6759L17.2043 11.393C16.2137 11.1131 15.1873 11.7057 14.9344 12.7036L14.6787 13.7123C14.6055 14.0011 14.2441 14.0979 14.0363 13.8844L13.3105 13.1387C12.5925 12.401 11.4074 12.401 10.6895 13.1387L9.96367 13.8844C9.75589 14.0979 9.39452 14.0011 9.32133 13.7123L9.06563 12.7036C8.81268 11.7057 7.78633 11.1132 6.7957 11.393L5.79424 11.6759C5.50758 11.7569 5.24302 11.4924 5.32402 11.2057L5.60696 10.2043C5.88684 9.21364 5.29428 8.18729 4.29641 7.93434L3.28767 7.67865C2.9989 7.60545 2.90208 7.24408 3.11554 7.03631L3.86128 6.3105C4.59896 5.59251 4.59896 4.40739 3.86128 3.68943L3.11551 2.96363C2.90204 2.75586 2.99886 2.39448 3.28763 2.32129L4.29637 2.0656C5.29421 1.81265 5.88677 0.786298 5.60693 -0.204335L5.32399 -1.2058C5.24299 -1.49246 5.50754 -1.75701 5.7942 -1.67601L6.79567 -1.39307C7.7863 -1.11319 8.81265 -1.70575 9.0656 -2.70363L9.32129 -3.71237C9.39448 -4.00114 9.75586 -4.09796 9.96363 -3.88449L10.6894 -3.13876C11.4074 -2.40107 12.5925 -2.40107 13.3105 -3.13876Z" fill="#FFE177"/>
<path d="M20.1421 3.68884L20.8878 2.96304C21.1013 2.75527 21.0045 2.3939 20.7157 2.3207L19.707 2.06501C18.7091 1.81206 18.1166 0.785712 18.3964 -0.204921L18.6794 -1.20638C18.7604 -1.49305 18.4958 -1.7576 18.2092 -1.6766L17.2077 -1.39366C17.0824 -1.35826 16.9565 -1.33692 16.8316 -1.32848C17.3986 -0.205132 17.7183 1.06432 17.7183 2.40859C17.7184 6.98436 13.9883 10.7144 9.4125 10.7144C8.06823 10.7144 6.79877 10.3947 5.67543 9.82769C5.66699 9.95253 5.64565 10.0784 5.61025 10.2038L5.32731 11.2052C5.24631 11.4919 5.51086 11.7564 5.79752 11.6754L6.79899 11.3925C7.78962 11.1126 8.81597 11.7052 9.06892 12.703L9.32461 13.7118C9.39781 14.0006 9.75918 14.0974 9.96695 13.8839L10.6928 13.1382C11.4107 12.4005 12.5959 12.4005 13.3138 13.1382L14.0396 13.8839C14.2474 14.0974 14.6088 14.0006 14.682 13.7118L14.9377 12.703C15.1906 11.7052 16.217 11.1126 17.2076 11.3925L18.2091 11.6754C18.4957 11.7564 18.7603 11.4919 18.6793 11.2052L18.3963 10.2038C18.1165 9.21312 18.709 8.18677 19.7068 7.93382L20.7156 7.67813C21.0044 7.60493 21.1012 7.24356 20.8877 7.03579L20.142 6.30999C19.4044 5.59196 19.4044 4.40684 20.1421 3.68884Z" fill="#FFD15B"/>
<path d="M20.1421 3.68884L20.8878 2.96304C21.1013 2.75527 21.0045 2.3939 20.7157 2.3207L19.707 2.06501C18.7091 1.81206 18.1166 0.785712 18.3964 -0.204921L18.6794 -1.20638C18.7604 -1.49305 18.4958 -1.7576 18.2092 -1.6766L17.2077 -1.39366C17.0824 -1.35826 16.9565 -1.33692 16.8316 -1.32848C17.3986 -0.205132 17.7183 1.06432 17.7183 2.40859C17.7184 6.98436 13.9883 10.7144 9.4125 10.7144C8.06823 10.7144 6.79877 10.3947 5.67543 9.82769C5.66699 9.95253 5.64565 10.0784 5.61025 10.2038L5.32731 11.2052C5.24631 11.4919 5.51086 11.7564 5.79752 11.6754L6.79899 11.3925C7.78962 11.1126 8.81597 11.7052 9.06892 12.703L9.32461 13.7118C9.39781 14.0006 9.75918 14.0974 9.96695 13.8839L10.6928 13.1382C11.4107 12.4005 12.5959 12.4005 13.3138 13.1382L14.0396 13.8839C14.2474 14.0974 14.6088 14.0006 14.682 13.7118L14.9377 12.703C15.1906 11.7052 16.217 11.1126 17.2076 11.3925L18.2091 11.6754C18.4957 11.7564 18.7603 11.4919 18.6793 11.2052L18.3963 10.2038C18.1165 9.21312 18.709 8.18677 19.7068 7.93382L20.7156 7.67813C21.0044 7.60493 21.1012 7.24356 20.8877 7.03579L20.142 6.30999C19.4044 5.59196 19.4044 4.40684 20.1421 3.68884Z" fill="#FFD15B"/>
<path d="M12.0022 11.0962C15.3689 11.0962 18.0982 8.36695 18.0982 5.00025C18.0982 1.63355 15.3689 -1.0957 12.0022 -1.0957C8.6355 -1.0957 5.90625 1.63355 5.90625 5.00025C5.90625 8.36695 8.6355 11.0962 12.0022 11.0962Z" fill="#FFC344"/>
<path d="M15.6508 0.119141C16.414 1.13723 16.8663 2.40191 16.8663 3.77226C16.8663 7.13897 14.137 9.86821 10.7703 9.86821C9.39995 9.86821 8.13528 9.416 7.11719 8.65272C8.22914 10.1359 10.0013 11.0956 11.9976 11.0956C15.3644 11.0956 18.0936 8.3663 18.0936 4.9996C18.0936 3.00325 17.1339 1.2311 15.6508 0.119141Z" fill="#FEB237"/>
</g>
<g style="mix-blend-mode:luminosity">
<path d="M27.519 11.7724H26.0376C25.8616 11.7724 25.7188 11.6296 25.7188 11.4536C25.7188 11.2776 25.8616 11.1348 26.0376 11.1348H27.519C27.695 11.1348 27.8378 11.2776 27.8378 11.4536C27.8378 11.6296 27.695 11.7724 27.519 11.7724Z" fill="#FC6559"/>
<path d="M26.9141 13.1279H26.0376C25.8616 13.1279 25.7188 12.9851 25.7188 12.8091C25.7188 12.6331 25.8616 12.4902 26.0376 12.4902H26.9141C27.0901 12.4902 27.2329 12.6331 27.2329 12.8091C27.2329 12.9851 27.0901 13.1279 26.9141 13.1279Z" fill="#FC6559"/>
<path d="M26.9141 15.8389H26.0376C25.8616 15.8389 25.7188 15.696 25.7188 15.52C25.7188 15.344 25.8616 15.2012 26.0376 15.2012H26.9141C27.0901 15.2012 27.2329 15.344 27.2329 15.52C27.2329 15.696 27.0901 15.8389 26.9141 15.8389Z" fill="#FC6559"/>
<path d="M27.519 14.4834H26.0376C25.8616 14.4834 25.7188 14.3405 25.7188 14.1645C25.7188 13.9885 25.8616 13.8457 26.0376 13.8457H27.519C27.695 13.8457 27.8378 13.9885 27.8378 14.1645C27.8378 14.3405 27.695 14.4834 27.519 14.4834Z" fill="#FC6559"/>
<path d="M26.9141 18.5498H26.0376C25.8616 18.5498 25.7188 18.4069 25.7188 18.2309C25.7188 18.055 25.8616 17.9121 26.0376 17.9121H26.9141C27.0901 17.9121 27.2329 18.055 27.2329 18.2309C27.2329 18.4069 27.0901 18.5498 26.9141 18.5498Z" fill="#FC6559"/>
<path d="M27.519 17.1943H26.0376C25.8616 17.1943 25.7188 17.0515 25.7188 16.8755C25.7188 16.6995 25.8616 16.5566 26.0376 16.5566H27.519C27.695 16.5566 27.8378 16.6995 27.8378 16.8755C27.8378 17.0515 27.695 17.1943 27.519 17.1943Z" fill="#FC6559"/>
<path d="M19.5391 23.0289C19.5391 25.4318 21.5518 27.3648 23.9834 27.2337C26.1335 27.1178 27.8803 25.3378 27.9585 23.186C28.0155 21.6168 27.2147 20.2294 25.987 19.4614V11.2369C25.987 10.0015 24.9856 9 23.7502 9C22.5148 9 21.5133 10.0015 21.5133 11.2369V19.4614C20.3268 20.2037 19.5391 21.5245 19.5391 23.0289Z" fill="#E4E3FF"/>
<path d="M27.9623 23.1849C27.8836 25.3377 26.1358 27.1155 23.9867 27.2318C23.7804 27.2431 23.5816 27.2393 23.3828 27.2205C25.4757 27.0443 27.1522 25.2927 27.231 23.1849C27.2872 21.6171 26.4883 20.2294 25.2619 19.4605V11.2354C25.2619 10.1252 24.4555 9.20628 23.3903 9.03374C23.5103 9.01124 23.6303 9 23.7541 9C24.9881 9 25.9895 10.0014 25.9895 11.2354V19.4605C27.2197 20.2294 28.0186 21.6171 27.9623 23.1849Z" fill="#D0D0F7"/>
<path d="M22.2323 20.4109L22.7008 20.1178V15.4293C22.7008 14.8481 23.172 14.377 23.7531 14.377C24.3343 14.377 24.8054 14.8481 24.8054 15.4293V20.1176L25.3617 20.4658C26.6243 21.2555 27.1785 22.9163 26.4639 24.3871C26.0516 25.2359 25.2351 25.8466 24.3053 26.0074C24.1194 26.0396 23.9342 26.0556 23.7531 26.0556C21.9765 26.0556 20.5525 24.5169 20.7438 22.7022C20.844 21.7522 21.4224 20.9175 22.2323 20.4109Z" fill="#FC6559"/>
<g opacity="0.3">
<path d="M22.1563 24.8917C22.0812 24.8917 22.0063 24.8619 21.9508 24.8025C21.4205 24.2355 21.1745 23.5023 21.2582 22.7375C21.323 22.1469 21.6179 21.5755 22.0882 21.1285C22.2006 21.021 22.3785 21.0257 22.4858 21.1385C22.5929 21.2512 22.5883 21.4292 22.4757 21.5361C22.1016 21.8918 21.8679 22.3401 21.8175 22.7988C21.7518 23.3979 21.9452 23.9729 22.3618 24.4183C22.4678 24.5317 22.462 24.7097 22.3484 24.8159C22.2942 24.8666 22.2252 24.8917 22.1563 24.8917Z" fill="white"/>
</g>
<path d="M26.4593 24.3854C26.0467 25.2368 25.2291 25.8482 24.2989 26.0057C24.1151 26.0395 23.9276 26.0545 23.7476 26.0545C23.5676 26.0545 23.3913 26.0395 23.2188 26.0095C23.2262 26.0095 23.2337 26.0057 23.2413 26.0057C24.1714 25.8482 24.9853 25.2368 25.3979 24.3854C26.1142 22.9152 25.5591 21.2537 24.2952 20.466L23.7401 20.1172V15.4289C23.7401 15.1364 23.6201 14.8738 23.4325 14.6826C23.3688 14.6188 23.2975 14.5625 23.2188 14.5213C23.3725 14.4275 23.5525 14.375 23.7476 14.375C24.0401 14.375 24.3027 14.4913 24.4902 14.6826C24.6815 14.8738 24.7977 15.1364 24.7977 15.4289V20.1172L25.3566 20.466C26.6168 21.2537 27.1719 22.9152 26.4593 24.3854Z" fill="#F05543"/>
<g opacity="0.5">
<path d="M22.422 11.5674V13.6186C22.422 13.7885 22.3065 13.9262 22.1641 13.9262C22.0218 13.9262 21.9062 13.7885 21.9062 13.6186V11.5674C21.9062 11.3975 22.0218 11.2598 22.1641 11.2598C22.3065 11.2598 22.422 11.3975 22.422 11.5674Z" fill="white"/>
<path d="M22.422 14.3681V14.5073C22.422 14.6771 22.3065 14.8149 22.1641 14.8149C22.0218 14.8149 21.9062 14.6771 21.9062 14.5073V14.3681C21.9062 14.1983 22.0218 14.0605 22.1641 14.0605C22.3065 14.0605 22.422 14.1983 22.422 14.3681Z" fill="white"/>
</g>
</g>
<path d="M49.448 12.768L46.52 24H43.208L41.416 16.608L39.56 24H36.248L33.4 12.768H36.328L37.944 20.944L39.944 12.768H42.952L44.872 20.944L46.504 12.768H49.448ZM57.8121 22.016H53.6201L52.9481 24H50.0841L54.1481 12.768H57.3161L61.3801 24H58.4841L57.8121 22.016ZM57.1081 19.904L55.7161 15.792L54.3401 19.904H57.1081ZM68.345 24L66.009 19.76H65.353V24H62.617V12.768H67.209C68.0943 12.768 68.8463 12.9227 69.465 13.232C70.0943 13.5413 70.5637 13.968 70.873 14.512C71.1823 15.0453 71.337 15.6427 71.337 16.304C71.337 17.0507 71.1237 17.7173 70.697 18.304C70.281 18.8907 69.6623 19.3067 68.841 19.552L71.433 24H68.345ZM65.353 17.824H67.049C67.5503 17.824 67.9237 17.7013 68.169 17.456C68.425 17.2107 68.553 16.864 68.553 16.416C68.553 15.9893 68.425 15.6533 68.169 15.408C67.9237 15.1627 67.5503 15.04 67.049 15.04H65.353V17.824ZM85.7745 12.768V24H83.0385V17.264L80.5265 24H78.3185L75.7905 17.248V24H73.0545V12.768H76.2865L79.4385 20.544L82.5585 12.768H85.7745Z" fill="#3B3B3B"/>
<path opacity="0.8" d="M39.6205 35.9446C39.0943 35.8629 38.6081 35.8376 38.2293 35.8612C38.1704 35.5336 37.764 35.2571 37.248 35.2175C36.725 35.1776 36.2771 35.397 36.1785 35.7193C35.9683 35.4941 35.6717 35.3513 35.3399 35.3513C35.0366 35.3513 34.763 35.4716 34.5574 35.6641C34.3162 35.3218 33.9334 35.0933 33.4943 35.0547C33.3546 34.6395 32.969 34.3391 32.5094 34.3391C32.3501 34.3391 32.2003 34.3781 32.0652 34.4424C31.7315 33.8467 31.0983 33.444 30.3707 33.444C29.8795 33.444 29.4323 33.6285 29.0894 33.9301C28.6259 33.5775 28.0509 33.3659 27.4247 33.3659C27.0258 33.3659 26.6478 33.4526 26.3051 33.6056C26.1826 32.6421 25.3668 31.8975 24.3767 31.8975C24.2349 31.8975 24.0968 31.9133 23.9638 31.9423C23.9642 31.9273 23.966 31.9124 23.966 31.897C23.966 30.8148 23.0948 29.9377 22.0197 29.9377C21.8747 29.9377 21.7345 29.9551 21.5985 29.985C21.067 28.0121 19.2814 26.5595 17.1529 26.5595C16.1503 26.5595 15.2254 26.885 14.4689 27.4315C14.2876 25.7237 12.8527 24.3934 11.1075 24.3934C10.1227 24.3934 9.23901 24.8198 8.62081 25.4959C8.34513 22.3924 5.75885 19.9594 2.60379 19.9594C1.15276 19.9594 -0.177948 20.4749 -1.21996 21.3325C-2.65006 19.3161 -4.99269 18 -7.64249 18C-11.4518 18 -14.6296 20.7163 -15.369 24.33C-15.9092 24.1733 -16.4784 24.0849 -17.0688 24.0849C-20.2198 24.0849 -22.8126 26.4717 -23.1702 29.546C-23.5383 29.4178 -23.9318 29.3445 -24.3438 29.3445C-25.6782 29.3445 -26.8404 30.0804 -27.4577 31.1693C-27.8353 31.0572 -28.2334 30.9944 -28.647 30.9944C-30.114 30.9944 -31.4039 31.7526 -32.1548 32.9C-32.4407 32.7062 -32.7848 32.5931 -33.1549 32.5931C-33.9709 32.5931 -34.6584 33.1422 -34.8758 33.8927C-35.0391 33.8204 -35.2191 33.779 -35.4094 33.779C-36.0123 33.779 -36.5151 34.1844 -36.6796 34.7379C-37.102 34.8226 -37.4565 35.0868 -37.672 35.4461C-37.6868 35.4454 -37.7003 35.4415 -37.7153 35.4415C-38.0469 35.4415 -38.3433 35.5842 -38.5534 35.8098C-38.6519 35.4872 -39.0998 35.2677 -39.6232 35.3076C-40.1392 35.3474 -40.5459 35.624 -40.6045 35.9511C-40.9833 35.9279 -41.4699 35.9532 -41.9957 36.0349C-43.1466 36.2132 -44.0423 36.5902 -43.9985 36.8774C-43.9589 37.1351 -43.1772 37.2316 -42.1873 37.1204C-41.9762 37.3005 -41.5346 37.4356 -41.0135 37.4538C-40.5496 37.47 -40.139 37.3892 -39.8973 37.2539C-39.7284 37.4609 -39.4749 37.5957 -39.1879 37.5957C-38.9543 37.5957 -38.7437 37.5056 -38.5813 37.3614C-38.3699 37.6058 -38.0622 37.763 -37.7154 37.763C-37.4802 37.763 -37.2623 37.6913 -37.0803 37.5702C-36.8706 37.6809 -36.6361 37.7494 -36.3826 37.7494C-35.9474 37.7494 -35.5575 37.5612 -35.2819 37.2644C-34.9538 37.6849 -34.445 37.9559 -33.8729 37.9559C-33.251 37.9559 -32.7033 37.6369 -32.3815 37.1533C-31.6843 38.5169 -30.2757 39.4513 -28.6472 39.4513C-27.333 39.4513 -26.1606 38.8432 -25.3904 37.8925C-24.8336 39.2319 -23.5203 40.1731 -21.9873 40.1731C-20.3333 40.1731 -18.9341 39.0777 -18.4663 37.5684C-17.9389 38.9697 -16.5969 39.9674 -15.0199 39.9674C-13.6143 39.9674 -12.3928 39.1751 -11.7706 38.0108C-10.693 39.7998 -8.74625 40.9991 -6.51586 40.9991C-4.79935 40.9991 -3.24909 40.2897 -2.13407 39.148C-1.44638 40.258 -0.226505 40.9985 1.16841 40.9985C2.33093 40.9985 3.37118 40.4834 4.08438 39.6707C5.2527 40.6899 6.77588 41.3077 8.44348 41.3077C10.4541 41.3077 12.2554 40.4095 13.4764 38.9915C14.2309 39.6008 15.1874 39.9672 16.2301 39.9672C17.691 39.9672 18.9818 39.2484 19.7837 38.147C20.3955 38.7618 21.2396 39.1422 22.1729 39.1422C23.3792 39.1422 24.4353 38.5047 25.034 37.5481C25.5129 38.3772 26.4025 38.9357 27.4243 38.9357C28.2271 38.9357 28.9473 38.5902 29.4522 38.0412C29.7773 38.2943 30.1833 38.446 30.6263 38.446C31.333 38.446 31.9491 38.0607 32.2827 37.4884C32.5504 37.7894 32.9346 37.9819 33.3669 37.9819C33.8593 37.9819 34.2921 37.7354 34.5567 37.36C34.7623 37.5521 35.0359 37.6727 35.3392 37.6727C35.6865 37.6727 35.994 37.5151 36.2055 37.2711C36.3678 37.4151 36.5784 37.505 36.8121 37.505C37.0993 37.505 37.352 37.3706 37.5214 37.1636C37.7633 37.2989 38.1734 37.3793 38.6382 37.3632C39.1584 37.3453 39.6001 37.2102 39.8118 37.0297C40.8019 37.1409 41.5833 37.0446 41.6229 36.7871C41.6671 36.5001 40.7709 36.1231 39.6205 35.9446Z" fill="#A1A1A1"/>
<path opacity="0.8" d="M132 35.5368C132 35.0898 130.405 34.7258 128.388 34.6952C128.388 34.6837 128.39 34.6721 128.39 34.66C128.39 33.8523 127.781 33.1986 127.03 33.1986C126.726 33.1986 126.447 33.3071 126.22 33.4881C126.217 33.4816 126.213 33.4757 126.21 33.4695C125.906 31.8512 124.576 30.6326 122.982 30.6326C122.71 30.6326 122.447 30.6719 122.194 30.7387C121.876 29.9866 121.172 29.4633 120.353 29.4633C119.754 29.4633 119.218 29.7441 118.848 30.1888C118.432 29.5538 117.746 29.1384 116.97 29.1384C116.857 29.1384 116.746 29.1499 116.638 29.1671C116.714 28.8679 116.759 28.5543 116.759 28.229C116.759 26.2734 115.284 24.6888 113.465 24.6888C112.514 24.6888 111.66 25.1251 111.058 25.8183C110.622 24.7336 109.619 23.9738 108.45 23.9738C107.451 23.9738 106.574 24.5303 106.067 25.3692C105.725 24.7851 105.122 24.3962 104.432 24.3962C104.242 24.3962 104.059 24.4266 103.886 24.4817C103.449 23.6001 102.586 23 101.592 23C100.629 23 99.7897 23.5646 99.3412 24.4019C99.306 24.3999 99.271 24.3962 99.2355 24.3962C98.5263 24.3962 97.9078 24.808 97.5712 25.42C96.9747 24.8074 96.1679 24.429 95.2779 24.429C94.2989 24.429 93.4213 24.8867 92.8132 25.611C91.9593 24.9499 90.9121 24.5591 89.7793 24.5591C88.2212 24.5591 86.8242 25.2973 85.8718 26.4648C85.4962 26.285 85.0812 26.1828 84.6434 26.1828C82.9751 26.1828 81.6223 27.6364 81.6223 29.4306C81.6223 29.4984 81.6279 29.5646 81.6319 29.631C81.4743 29.5867 81.3096 29.5603 81.139 29.5603C80.394 29.5603 79.7485 30.0142 79.4253 30.6782C79.0321 30.4636 78.5888 30.34 78.1178 30.34C76.8711 30.34 75.8111 31.1879 75.4011 32.3749C75.3211 32.3622 75.2399 32.3539 75.1573 32.3539C74.2826 32.3539 73.5635 33.0669 73.4745 33.9817C73.4513 33.9802 73.4282 33.9781 73.4047 33.9781C72.8705 33.9781 72.4228 34.3704 72.2946 34.902C72.1644 34.8928 72.031 34.8869 71.8941 34.8869C70.8051 34.8869 69.8909 35.1929 69.6209 35.608C69.5337 35.6042 69.4462 35.6018 69.3563 35.6018C68.0549 35.6018 67 36.0376 67 36.5759C67 37.1142 68.0549 37.5503 69.3563 37.5503C69.5244 37.5503 69.6881 37.543 69.8466 37.5288C70.2324 37.8493 71.0304 38.0701 71.9546 38.0701C72.0453 38.0701 72.1345 38.0675 72.2224 38.0633C72.3299 38.5872 72.7639 38.9798 73.284 38.9798C73.4025 38.9798 73.5164 38.9585 73.6233 38.9207C73.997 39.4676 74.598 39.8238 75.2777 39.8238C75.6183 39.8238 75.9385 39.7334 76.2217 39.5758C76.5256 39.8898 76.9377 40.0837 77.3922 40.0837C77.8529 40.0837 78.2699 39.8853 78.575 39.5646C79.1064 40.2764 79.9212 40.7333 80.8364 40.7333C81.5894 40.7333 82.2727 40.4226 82.7883 39.9169C83.0276 40.4752 83.5509 40.8633 84.1599 40.8633C84.704 40.8633 85.1793 40.5532 85.4453 40.0893C85.8822 40.3725 86.3919 40.5384 86.9392 40.5384C87.6126 40.5384 88.2304 40.2894 88.7229 39.876C88.9991 40.2026 89.3963 40.4093 89.8396 40.4093C90.2742 40.4093 90.6648 40.2103 90.9406 39.8946C91.3599 40.594 92.0895 41.0579 92.921 41.0579C93.5773 41.0579 94.1706 40.7694 94.5979 40.3037C95.3839 40.9653 96.5339 41.3828 97.8157 41.3828C99.3937 41.3828 100.772 40.7502 101.517 39.8086C101.973 40.615 102.795 41.1557 103.737 41.1557C104.051 41.1557 104.35 41.0931 104.628 40.9836C104.973 41.5921 105.593 42 106.305 42C107.01 42 107.628 41.5985 107.974 40.9977C108.752 41.607 109.709 41.9674 110.746 41.9674C112.366 41.9674 113.794 41.0894 114.643 39.7514C115.16 40.3353 115.888 40.7009 116.698 40.7009C117.542 40.7009 118.298 40.3031 118.818 39.6739C119.004 39.7484 119.206 39.7915 119.417 39.7915C119.658 39.7915 119.888 39.7374 120.097 39.6407C120.659 39.8188 121.308 39.9213 122 39.9213C123.97 39.9213 125.593 39.0983 125.844 38.0319C125.877 38.0343 125.909 38.0373 125.942 38.0373C126.404 38.0373 126.811 37.7896 127.057 37.4118C127.247 37.5206 127.464 37.5827 127.694 37.5827C128.371 37.5827 128.93 37.0515 129.035 36.3567C130.736 36.2667 132 35.9344 132 35.5368Z" fill="#A1A1A1"/>
<path opacity="0.8" d="M92 40.5368C92 40.0898 90.4054 39.7258 88.388 39.6952C88.3884 39.6837 88.3897 39.6721 88.3897 39.66C88.3897 38.8523 87.7809 38.1986 87.0304 38.1986C86.7261 38.1986 86.4465 38.3071 86.2204 38.4881C86.2168 38.4816 86.2131 38.4757 86.2097 38.4695C85.906 36.8512 84.5765 35.6326 82.982 35.6326C82.7099 35.6326 82.4471 35.6719 82.1943 35.7387C81.8755 34.9866 81.172 34.4633 80.3533 34.4633C79.7544 34.4633 79.2179 34.7441 78.8476 35.1888C78.4321 34.5538 77.7465 34.1384 76.9701 34.1384C76.8568 34.1384 76.7464 34.1499 76.6379 34.1671C76.7143 33.8679 76.7586 33.5543 76.7586 33.229C76.7586 31.2734 75.2842 29.6888 73.4655 29.6888C72.5138 29.6888 71.6596 30.1251 71.0581 30.8183C70.6224 29.7336 69.6191 28.9738 68.4502 28.9738C67.4509 28.9738 66.5738 29.5303 66.0675 30.3692C65.7251 29.7851 65.1216 29.3962 64.4324 29.3962C64.2424 29.3962 64.0594 29.4266 63.8861 29.4817C63.4492 28.6001 62.5862 28 61.5923 28C60.6288 28 59.7897 28.5646 59.3412 29.4019C59.306 29.3999 59.271 29.3962 59.2355 29.3962C58.5263 29.3962 57.9078 29.808 57.5712 30.42C56.9747 29.8074 56.1679 29.429 55.2779 29.429C54.2989 29.429 53.4213 29.8867 52.8132 30.611C51.9593 29.9499 50.9121 29.5591 49.7793 29.5591C48.2212 29.5591 46.8242 30.2973 45.8718 31.4648C45.4962 31.285 45.0812 31.1828 44.6434 31.1828C42.9751 31.1828 41.6223 32.6364 41.6223 34.4306C41.6223 34.4984 41.6279 34.5646 41.6319 34.631C41.4743 34.5867 41.3096 34.5603 41.139 34.5603C40.394 34.5603 39.7485 35.0142 39.4253 35.6782C39.0321 35.4636 38.5888 35.34 38.1178 35.34C36.8711 35.34 35.8111 36.1879 35.4011 37.3749C35.3211 37.3622 35.2399 37.3539 35.1573 37.3539C34.2826 37.3539 33.5635 38.0669 33.4745 38.9817C33.4513 38.9802 33.4282 38.9781 33.4047 38.9781C32.8705 38.9781 32.4228 39.3704 32.2946 39.902C32.1644 39.8928 32.031 39.8869 31.8941 39.8869C30.8051 39.8869 29.8909 40.1929 29.6209 40.608C29.5337 40.6042 29.4462 40.6018 29.3563 40.6018C28.0549 40.6018 27 41.0376 27 41.5759C27 42.1142 28.0549 42.5503 29.3563 42.5503C29.5244 42.5503 29.6881 42.543 29.8466 42.5288C30.2324 42.8493 31.0304 43.0701 31.9546 43.0701C32.0453 43.0701 32.1345 43.0675 32.2224 43.0633C32.3299 43.5872 32.7639 43.9798 33.284 43.9798C33.4025 43.9798 33.5164 43.9585 33.6233 43.9207C33.997 44.4676 34.598 44.8238 35.2777 44.8238C35.6183 44.8238 35.9385 44.7334 36.2217 44.5758C36.5256 44.8898 36.9377 45.0837 37.3922 45.0837C37.8529 45.0837 38.2699 44.8853 38.575 44.5646C39.1064 45.2764 39.9212 45.7333 40.8364 45.7333C41.5894 45.7333 42.2727 45.4226 42.7883 44.9169C43.0276 45.4752 43.5509 45.8633 44.1599 45.8633C44.704 45.8633 45.1793 45.5532 45.4453 45.0893C45.8822 45.3725 46.3919 45.5384 46.9392 45.5384C47.6126 45.5384 48.2304 45.2894 48.7229 44.876C48.9991 45.2026 49.3963 45.4093 49.8396 45.4093C50.2742 45.4093 50.6648 45.2103 50.9406 44.8946C51.3599 45.594 52.0895 46.0579 52.921 46.0579C53.5773 46.0579 54.1706 45.7694 54.5979 45.3037C55.3839 45.9653 56.5339 46.3828 57.8157 46.3828C59.3937 46.3828 60.7721 45.7502 61.5172 44.8086C61.9728 45.615 62.7952 46.1557 63.7371 46.1557C64.0508 46.1557 64.3499 46.0931 64.6279 45.9836C64.9727 46.5921 65.5935 47 66.305 47C67.0102 47 67.6276 46.5985 67.9737 45.9977C68.7517 46.607 69.7093 46.9674 70.7459 46.9674C72.3656 46.9674 73.7942 46.0894 74.6426 44.7514C75.1599 45.3353 75.8882 45.7009 76.6975 45.7009C77.5419 45.7009 78.2977 45.3031 78.8179 44.6739C79.0045 44.7484 79.2058 44.7915 79.4168 44.7915C79.6582 44.7915 79.8878 44.7374 80.0967 44.6407C80.6594 44.8188 81.3078 44.9213 81.9995 44.9213C83.9697 44.9213 85.5931 44.0983 85.8442 43.0319C85.8767 43.0343 85.9091 43.0373 85.9423 43.0373C86.4037 43.0373 86.8105 42.7896 87.0565 42.4118C87.247 42.5206 87.4639 42.5827 87.6945 42.5827C88.3707 42.5827 88.9299 42.0515 89.0349 41.3567C90.7357 41.2667 92 40.9344 92 40.5368Z" fill="#A1A1A1"/>
<path opacity="0.8" d="M69 41.5368C69 41.0898 67.4054 40.7258 65.388 40.6952C65.3884 40.6837 65.3897 40.6721 65.3897 40.66C65.3897 39.8523 64.7809 39.1986 64.0304 39.1986C63.7261 39.1986 63.4465 39.3071 63.2204 39.4881C63.2168 39.4816 63.2131 39.4757 63.2097 39.4695C62.906 37.8512 61.5765 36.6326 59.982 36.6326C59.7099 36.6326 59.4471 36.6719 59.1943 36.7387C58.8755 35.9866 58.172 35.4633 57.3533 35.4633C56.7544 35.4633 56.2179 35.7441 55.8476 36.1888C55.4321 35.5538 54.7465 35.1384 53.9701 35.1384C53.8568 35.1384 53.7464 35.1499 53.6379 35.1671C53.7143 34.8679 53.7586 34.5543 53.7586 34.229C53.7586 32.2734 52.2842 30.6888 50.4655 30.6888C49.5138 30.6888 48.6596 31.1251 48.0581 31.8183C47.6224 30.7336 46.6191 29.9738 45.4502 29.9738C44.4509 29.9738 43.5738 30.5303 43.0675 31.3692C42.7251 30.7851 42.1216 30.3962 41.4324 30.3962C41.2424 30.3962 41.0594 30.4266 40.8861 30.4817C40.4492 29.6001 39.5862 29 38.5923 29C37.6288 29 36.7897 29.5646 36.3412 30.4019C36.306 30.3999 36.271 30.3962 36.2355 30.3962C35.5263 30.3962 34.9078 30.808 34.5712 31.42C33.9747 30.8074 33.1679 30.429 32.2779 30.429C31.2989 30.429 30.4213 30.8867 29.8132 31.611C28.9593 30.9499 27.9121 30.5591 26.7793 30.5591C25.2212 30.5591 23.8242 31.2973 22.8718 32.4648C22.4962 32.285 22.0812 32.1828 21.6434 32.1828C19.9751 32.1828 18.6223 33.6364 18.6223 35.4306C18.6223 35.4984 18.6279 35.5646 18.6319 35.631C18.4743 35.5867 18.3096 35.5603 18.139 35.5603C17.394 35.5603 16.7485 36.0142 16.4253 36.6782C16.0321 36.4636 15.5888 36.34 15.1178 36.34C13.8711 36.34 12.8111 37.1879 12.4011 38.3749C12.3211 38.3622 12.2399 38.3539 12.1573 38.3539C11.2826 38.3539 10.5635 39.0669 10.4745 39.9817C10.4513 39.9802 10.4282 39.9781 10.4047 39.9781C9.87047 39.9781 9.42276 40.3704 9.29458 40.902C9.16436 40.8928 9.03103 40.8869 8.89411 40.8869C7.80511 40.8869 6.89093 41.1929 6.62092 41.608C6.53375 41.6042 6.44622 41.6018 6.35629 41.6018C5.05492 41.6018 4 42.0376 4 42.5759C4 43.1142 5.05492 43.5503 6.35629 43.5503C6.52442 43.5503 6.68812 43.543 6.84657 43.5288C7.23245 43.8493 8.03039 44.0701 8.95462 44.0701C9.04526 44.0701 9.13446 44.0675 9.22235 44.0633C9.32985 44.5872 9.76392 44.9798 10.284 44.9798C10.4025 44.9798 10.5164 44.9585 10.6233 44.9207C10.997 45.4676 11.598 45.8238 12.2777 45.8238C12.6183 45.8238 12.9385 45.7334 13.2217 45.5758C13.5256 45.8898 13.9377 46.0837 14.3922 46.0837C14.8529 46.0837 15.2699 45.8853 15.575 45.5646C16.1064 46.2764 16.9212 46.7333 17.8364 46.7333C18.5894 46.7333 19.2727 46.4226 19.7883 45.9169C20.0276 46.4752 20.5509 46.8633 21.1599 46.8633C21.704 46.8633 22.1793 46.5532 22.4453 46.0893C22.8822 46.3725 23.3919 46.5384 23.9392 46.5384C24.6126 46.5384 25.2304 46.2894 25.7229 45.876C25.9991 46.2026 26.3963 46.4093 26.8396 46.4093C27.2742 46.4093 27.6648 46.2103 27.9406 45.8946C28.3599 46.594 29.0895 47.0579 29.921 47.0579C30.5773 47.0579 31.1706 46.7694 31.5979 46.3037C32.3839 46.9653 33.5339 47.3828 34.8157 47.3828C36.3937 47.3828 37.7721 46.7502 38.5172 45.8086C38.9728 46.615 39.7952 47.1557 40.7371 47.1557C41.0508 47.1557 41.3499 47.0931 41.6279 46.9836C41.9727 47.5921 42.5935 48 43.305 48C44.0102 48 44.6276 47.5985 44.9737 46.9977C45.7517 47.607 46.7093 47.9674 47.7459 47.9674C49.3656 47.9674 50.7942 47.0894 51.6426 45.7514C52.1599 46.3353 52.8882 46.7009 53.6975 46.7009C54.5419 46.7009 55.2977 46.3031 55.8179 45.6739C56.0045 45.7484 56.2058 45.7915 56.4168 45.7915C56.6582 45.7915 56.8878 45.7374 57.0967 45.6407C57.6594 45.8188 58.3078 45.9213 58.9995 45.9213C60.9697 45.9213 62.5931 45.0983 62.8442 44.0319C62.8767 44.0343 62.9091 44.0373 62.9423 44.0373C63.4037 44.0373 63.8105 43.7896 64.0565 43.4118C64.247 43.5206 64.4639 43.5827 64.6945 43.5827C65.3707 43.5827 65.9299 43.0515 66.0349 42.3567C67.7357 42.2667 69 41.9344 69 41.5368Z" fill="#A1A1A1"/>
</g>
<rect x="0.5" y="0.5" width="103" height="35" rx="17.5" stroke="#D9D9D9"/>
<defs>
<linearGradient id="paint0_linear_22206_9896" x1="52" y1="1" x2="52" y2="35" gradientUnits="userSpaceOnUse">
<stop stop-color="#ECECEC"/>
<stop offset="1" stop-color="#AAAAAA"/>
</linearGradient>
<clipPath id="clip0_22206_9896">
<rect x="1" y="1" width="102" height="34" rx="17" fill="white"/>
</clipPath>
<clipPath id="clip1_22206_9896">
<rect width="18" height="18" fill="white" transform="translate(3 -4)"/>
</clipPath>
</defs>
</svg>
