<svg width="30" height="30" viewBox="0 0 30 30" fill="none" xmlns="http://www.w3.org/2000/svg">
<g clip-path="url(#clip0_21629_669)">
<path d="M25.0601 9.48607L23.0151 8.83201C21.7066 8.4134 20.9824 7.00831 21.4009 5.69966C21.4168 5.65006 21.4346 5.60145 21.4533 5.55338C19.6165 4.30793 17.402 3.57959 15.0205 3.57959C8.68421 3.57959 3.5293 8.73451 3.5293 15.0708C3.5293 21.4071 8.68421 26.562 15.0205 26.562C21.3568 26.562 26.5117 21.4071 26.5117 15.0708C26.5117 13.0451 25.984 11.1404 25.0601 9.48607ZM13.3146 19.0619C13.3146 19.5475 12.9208 19.9413 12.4352 19.9413C11.9495 19.9413 11.5557 19.5475 11.5557 19.0619V11.9591H10.729C10.2433 11.9591 9.84957 11.5654 9.84957 11.0797C9.84957 10.594 10.2433 10.2003 10.729 10.2003H12.4352C12.9208 10.2003 13.3146 10.594 13.3146 11.0797V19.0619ZM19.3152 19.9102C19.314 19.9102 19.3129 19.9102 19.3119 19.9102C18.8277 19.9102 18.4343 19.5186 18.4325 19.034L18.4235 16.5968C18.3741 15.43 18.3263 15.1902 17.7451 15.181C17.2086 15.181 16.8339 15.7618 16.8339 16.5935V19.0308C16.8339 19.5165 16.4402 19.9102 15.9545 19.9102C15.4688 19.9102 15.0751 19.5165 15.0751 19.0308V11.9307C15.0751 11.445 15.4688 11.0513 15.9545 11.0513C16.4402 11.0513 16.8339 11.445 16.8339 11.9307V13.595C17.1192 13.4818 17.4258 13.4221 17.7451 13.4221C18.4403 13.4221 19.0019 13.6323 19.4144 14.047C19.944 14.5794 20.1881 15.3888 20.1824 16.5941L20.1914 19.0276C20.1931 19.5132 19.8008 19.9084 19.3152 19.9102Z" fill="#0B7AB2"/>
<path d="M13.1522 28.1988C12.6083 28.122 12.065 28.0106 11.5374 27.8676C11.0687 27.7409 10.5855 28.0177 10.4586 28.4865C10.3316 28.9553 10.6086 29.4383 11.0774 29.5653C11.6752 29.7273 12.2906 29.8535 12.9064 29.9403C12.9287 29.9435 12.9508 29.9457 12.9728 29.9472C13.4276 29.9769 13.8353 29.6511 13.9 29.1924C13.968 28.7115 13.6331 28.2666 13.1522 28.1988Z" fill="#0B7AB2"/>
<path d="M27.9532 20.8603C27.5231 20.6344 26.9916 20.8 26.7657 21.23C26.5112 21.7147 26.2232 22.1887 25.9098 22.6387C25.6322 23.0373 25.7303 23.5854 26.1289 23.8629C26.2651 23.9579 26.4188 24.0088 26.5733 24.0189C26.8706 24.0383 27.1705 23.9062 27.3531 23.6439C27.7082 23.134 28.0345 22.597 28.3229 22.0479C28.5488 21.6178 28.3832 21.0862 27.9532 20.8603Z" fill="#0B7AB2"/>
<path d="M27.986 12.2788C28.0705 12.672 28.4056 12.9469 28.788 12.972C28.8674 12.9772 28.9488 12.9716 29.0304 12.954C29.5053 12.8521 29.8076 12.3845 29.7057 11.9096C29.5754 11.3027 29.4052 10.6978 29.1999 10.1115C29.0394 9.65313 28.5376 9.41152 28.0792 9.57217C27.6208 9.73269 27.3793 10.2344 27.5399 10.6929C27.721 11.21 27.8711 11.7436 27.986 12.2788Z" fill="#0B7AB2"/>
<path d="M8.07685 26.3709C7.61064 26.0839 7.15744 25.7643 6.72962 25.4211C6.35077 25.1171 5.79725 25.1778 5.49332 25.5567C5.18939 25.9354 5.25007 26.489 5.62887 26.793C6.11332 27.1817 6.62673 27.5436 7.15474 27.8687C7.28109 27.9465 7.41927 27.9884 7.55769 27.9975C7.87241 28.0181 8.18783 27.8681 8.36472 27.5809C8.61928 27.1672 8.49042 26.6255 8.07685 26.3709Z" fill="#0B7AB2"/>
<path d="M23.3365 25.3973C22.9096 25.7414 22.4571 26.062 21.9917 26.3502C21.5788 26.606 21.4514 27.148 21.7071 27.5609C21.8627 27.8121 22.1242 27.9576 22.3982 27.9755C22.5746 27.9871 22.7561 27.9457 22.9178 27.8455C23.4447 27.5192 23.9569 27.1563 24.4402 26.7668C24.8183 26.462 24.8779 25.9084 24.5731 25.5302C24.2683 25.1521 23.7147 25.0926 23.3365 25.3973Z" fill="#0B7AB2"/>
<path d="M29.1846 15.2297C28.7006 15.1922 28.2787 15.5581 28.2432 16.0425C28.203 16.5911 28.1286 17.1408 28.022 17.6763C27.9272 18.1527 28.2365 18.6157 28.7128 18.7105C28.7515 18.7182 28.7899 18.7232 28.8282 18.7257C29.2618 18.754 29.6599 18.4573 29.747 18.0196C29.8677 17.4134 29.9518 16.7914 29.9973 16.171C30.0328 15.6866 29.669 15.2652 29.1846 15.2297Z" fill="#0B7AB2"/>
<path d="M18.5374 27.8588C18.0096 28.004 17.4671 28.1172 16.925 28.1952C16.4443 28.2645 16.1107 28.7104 16.18 29.1911C16.2403 29.6098 16.5863 29.9168 16.9922 29.9434C17.0523 29.9473 17.1138 29.9451 17.1759 29.9362C17.7904 29.8476 18.4053 29.7193 19.0038 29.5547C19.4721 29.4259 19.7473 28.9419 19.6186 28.4736C19.4898 28.0053 19.0056 27.7301 18.5374 27.8588Z" fill="#0B7AB2"/>
<path d="M13.1522 28.1988C12.6083 28.122 12.065 28.0106 11.5374 27.8676C11.0687 27.7409 10.5855 28.0177 10.4586 28.4865C10.3316 28.9553 10.6086 29.4383 11.0774 29.5653C11.6752 29.7273 12.2906 29.8535 12.9064 29.9403C12.9287 29.9435 12.9508 29.9457 12.9728 29.9472C13.4276 29.9769 13.8353 29.6511 13.9 29.1924C13.968 28.7115 13.6331 28.2666 13.1522 28.1988Z" fill="#0B7AB2"/>
<path d="M27.9532 20.8603C27.5231 20.6344 26.9916 20.8 26.7657 21.23C26.5112 21.7147 26.2232 22.1887 25.9098 22.6387C25.6322 23.0373 25.7303 23.5854 26.1289 23.8629C26.2651 23.9579 26.4188 24.0088 26.5733 24.0189C26.8706 24.0383 27.1705 23.9062 27.3531 23.6439C27.7082 23.134 28.0345 22.597 28.3229 22.0479C28.5488 21.6178 28.3832 21.0862 27.9532 20.8603Z" fill="#0B7AB2"/>
<path d="M27.986 12.2788C28.0705 12.672 28.4056 12.9469 28.788 12.972C28.8674 12.9772 28.9488 12.9716 29.0304 12.954C29.5053 12.8521 29.8076 12.3845 29.7057 11.9096C29.5754 11.3027 29.4052 10.6978 29.1999 10.1115C29.0394 9.65313 28.5376 9.41152 28.0792 9.57217C27.6208 9.73269 27.3793 10.2344 27.5399 10.6929C27.721 11.21 27.8711 11.7436 27.986 12.2788Z" fill="#0B7AB2"/>
<path d="M8.07685 26.3709C7.61064 26.0839 7.15744 25.7643 6.72962 25.4211C6.35077 25.1171 5.79725 25.1778 5.49332 25.5567C5.18939 25.9354 5.25007 26.489 5.62887 26.793C6.11332 27.1817 6.62673 27.5436 7.15474 27.8687C7.28109 27.9465 7.41927 27.9884 7.55769 27.9975C7.87241 28.0181 8.18783 27.8681 8.36472 27.5809C8.61928 27.1672 8.49042 26.6255 8.07685 26.3709Z" fill="#0B7AB2"/>
<path d="M23.3365 25.3973C22.9096 25.7414 22.4571 26.062 21.9917 26.3502C21.5788 26.606 21.4514 27.148 21.7071 27.5609C21.8627 27.8121 22.1242 27.9576 22.3982 27.9755C22.5746 27.9871 22.7561 27.9457 22.9178 27.8455C23.4447 27.5192 23.9569 27.1563 24.4402 26.7668C24.8183 26.462 24.8779 25.9084 24.5731 25.5302C24.2683 25.1521 23.7147 25.0926 23.3365 25.3973Z" fill="#0B7AB2"/>
<path d="M29.1846 15.2297C28.7006 15.1922 28.2787 15.5581 28.2432 16.0425C28.203 16.5911 28.1286 17.1408 28.022 17.6763C27.9272 18.1527 28.2365 18.6157 28.7128 18.7105C28.7515 18.7182 28.7899 18.7232 28.8282 18.7257C29.2618 18.754 29.6599 18.4573 29.747 18.0196C29.8677 17.4134 29.9518 16.7914 29.9973 16.171C30.0328 15.6866 29.669 15.2652 29.1846 15.2297Z" fill="#0B7AB2"/>
<path d="M18.5374 27.8588C18.0096 28.004 17.4671 28.1172 16.925 28.1952C16.4443 28.2645 16.1107 28.7104 16.18 29.1911C16.2403 29.6098 16.5863 29.9168 16.9922 29.9434C17.0523 29.9473 17.1138 29.9451 17.1759 29.9362C17.7904 29.8476 18.4053 29.7193 19.0038 29.5547C19.4721 29.4259 19.7473 28.9419 19.6186 28.4736C19.4898 28.0053 19.0056 27.7301 18.5374 27.8588Z" fill="#0B7AB2"/>
<path d="M27.4016 8.04525C27.5931 7.89241 27.6956 7.65385 27.6746 7.40966L27.3898 4.09369C27.3551 3.6905 27.0002 3.39173 26.5969 3.42626C26.1936 3.46091 25.8948 3.81591 25.9294 4.21915L25.9793 4.8001C23.3881 2.02674 19.851 0.335773 15.9989 0.084022C11.9958 -0.177637 8.13052 1.13523 5.11496 3.78085C2.09934 6.42646 0.29446 10.088 0.032859 14.091C-0.18049 17.3556 0.648166 20.5263 2.42924 23.2601C2.58654 23.5016 2.8424 23.6403 3.10939 23.6577C3.29237 23.6697 3.48063 23.6247 3.64614 23.5169C4.05308 23.2518 4.16805 22.707 3.90293 22.3C2.33092 19.8871 1.59953 17.0881 1.78796 14.2057C2.01896 10.6715 3.61248 7.43874 6.27487 5.10298C8.93731 2.76722 12.35 1.60807 15.8842 1.83907C19.272 2.06051 22.3837 3.54322 24.6693 5.97526L23.9977 5.76044C23.6123 5.63726 23.1996 5.84967 23.0764 6.23521C22.9531 6.62076 23.1657 7.03321 23.5512 7.1565L26.7212 8.17037C26.9522 8.24477 27.2098 8.19874 27.4016 8.04525Z" fill="#0B7AB2"/>
<path d="M27.4016 8.04525C27.5931 7.89241 27.6956 7.65385 27.6746 7.40966L27.3898 4.09369C27.3551 3.6905 27.0002 3.39173 26.5969 3.42626C26.1936 3.46091 25.8948 3.81591 25.9294 4.21915L25.9793 4.8001C23.3881 2.02674 19.851 0.335773 15.9989 0.084022C11.9958 -0.177637 8.13052 1.13523 5.11496 3.78085C2.09934 6.42646 0.29446 10.088 0.032859 14.091C-0.18049 17.3556 0.648166 20.5263 2.42924 23.2601C2.58654 23.5016 2.8424 23.6403 3.10939 23.6577C3.29237 23.6697 3.48063 23.6247 3.64614 23.5169C4.05308 23.2518 4.16805 22.707 3.90293 22.3C2.33092 19.8871 1.59953 17.0881 1.78796 14.2057C2.01896 10.6715 3.61248 7.43874 6.27487 5.10298C8.93731 2.76722 12.35 1.60807 15.8842 1.83907C19.272 2.06051 22.3837 3.54322 24.6693 5.97526L23.9977 5.76044C23.6123 5.63726 23.1996 5.84967 23.0764 6.23521C22.9531 6.62076 23.1657 7.03321 23.5512 7.1565L26.7212 8.17037C26.9522 8.24477 27.2098 8.19874 27.4016 8.04525Z" fill="#0B7AB2"/>
</g>
<defs>
<clipPath id="clip0_21629_669">
<rect width="30" height="30" fill="white"/>
</clipPath>
</defs>
</svg>
