<svg width="28" height="28" viewBox="0 0 28 28" fill="none" xmlns="http://www.w3.org/2000/svg">
<path d="M12.3024 7.31216C14.042 8.72849 16.8287 7.38297 16.7854 5.10776C16.7857 4.63458 16.6654 4.16914 16.4358 3.75537C16.2063 3.34159 15.8751 2.99315 15.4735 2.74293C15.0719 2.49271 14.6131 2.34897 14.1405 2.32527C13.6679 2.30158 13.1971 2.39871 12.7725 2.60751C12.3479 2.8163 11.9835 3.12987 11.7137 3.51861C11.4439 3.90734 11.2776 4.35842 11.2306 4.82925C11.1835 5.30009 11.2573 5.77514 11.4448 6.20957C11.6323 6.644 11.9275 7.02347 12.3024 7.31216Z" fill="#0B7AB2"/>
<path d="M11.1831 12.591H16.8164C17.1523 12.592 17.4827 12.5054 17.7749 12.3397C18.0671 12.1741 18.3111 11.9351 18.4828 11.6463C19.3854 10.1025 17.8362 8.46833 16.5671 7.71436C15.8833 8.38971 14.9609 8.76842 13.9997 8.76842C13.0386 8.76842 12.1162 8.38971 11.4324 7.71436C10.1627 8.46766 8.61423 10.103 9.51664 11.6463C9.68832 11.935 9.9323 12.174 10.2245 12.3397C10.5168 12.5054 10.8471 12.592 11.1831 12.591Z" fill="#0B7AB2"/>
<path d="M19.7917 20.3981C21.5313 21.8144 24.3179 20.4689 24.2747 18.1937C24.275 17.7205 24.1546 17.2551 23.9251 16.8413C23.6955 16.4275 23.3643 16.0791 22.9627 15.8289C22.5611 15.5786 22.1024 15.4349 21.6298 15.4112C21.1572 15.3875 20.6864 15.4847 20.2618 15.6934C19.8371 15.9022 19.4727 16.2158 19.2029 16.6045C18.9332 16.9933 18.7669 17.4444 18.7199 17.9152C18.6728 18.386 18.7465 18.8611 18.9341 19.2955C19.1216 19.7299 19.4167 20.1094 19.7917 20.3981Z" fill="#0B7AB2"/>
<path d="M26.0097 22.8125C25.637 22.1193 25.1103 21.5208 24.4701 21.063C24.1177 20.7798 24.0354 20.7724 23.7178 21.0937C23.0767 21.5845 22.2916 21.8501 21.4843 21.8492C20.6769 21.8484 19.8923 21.5813 19.2522 21.0892C18.9453 20.7695 18.8455 20.7842 18.5043 21.0631C17.4164 21.8668 16.1674 23.3508 17.0041 24.7325C17.1758 25.0213 17.4198 25.2603 17.712 25.4259C18.0043 25.5916 18.3346 25.6782 18.6706 25.6772H24.3039C24.6387 25.6739 24.9671 25.5844 25.2574 25.4174C25.5477 25.2505 25.7901 25.0117 25.9614 24.724C26.1328 24.4362 26.2272 24.1093 26.2356 23.7745C26.2441 23.4398 26.1662 23.1085 26.0097 22.8125Z" fill="#0B7AB2"/>
<path d="M4.8151 20.3981C6.55471 21.8144 9.34136 20.4689 9.29811 18.1937C9.29839 17.7205 9.17808 17.2551 8.94853 16.8413C8.71899 16.4275 8.38777 16.0791 7.98617 15.8289C7.58456 15.5786 7.12581 15.4349 6.65323 15.4112C6.18064 15.3875 5.70981 15.4847 5.28519 15.6934C4.86057 15.9022 4.49617 16.2158 4.22638 16.6045C3.9566 16.9933 3.79034 17.4444 3.74329 17.9152C3.69624 18.386 3.76997 18.8611 3.9575 19.2955C4.14503 19.7299 4.44018 20.1094 4.8151 20.3981Z" fill="#0B7AB2"/>
<path d="M9.49463 21.063C9.14224 20.7798 9.05993 20.7724 8.74235 21.0937C8.1027 21.5878 7.31706 21.8554 6.5088 21.8546C5.70055 21.8538 4.91545 21.5846 4.27679 21.0892C3.96989 20.7695 3.87001 20.7842 3.52887 21.0631C2.88866 21.5208 2.36197 22.1193 1.9893 22.8125C1.8327 23.1085 1.75487 23.4398 1.76332 23.7745C1.77176 24.1093 1.86618 24.4363 2.03751 24.724C2.20884 25.0117 2.4513 25.2505 2.7416 25.4175C3.0319 25.5844 3.36026 25.6739 3.69512 25.6772L9.3284 25.6773C9.66325 25.6739 9.99161 25.5844 10.2819 25.4175C10.5722 25.2505 10.8146 25.0117 10.986 24.724C11.1573 24.4362 11.2517 24.1093 11.2601 23.7745C11.2685 23.4398 11.1907 23.1085 11.0341 22.8125C10.6615 22.1193 10.1348 21.5208 9.49463 21.063Z" fill="#0B7AB2"/>
<path d="M16.8216 18.4783C16.8788 18.3779 16.8939 18.259 16.8635 18.1475C16.8332 18.036 16.7599 17.9411 16.6598 17.8835L15.3521 17.1268C15.4165 16.797 15.3595 16.455 15.1915 16.164C15.0234 15.873 14.7558 15.6526 14.4379 15.5436V14.0346C14.4376 13.9189 14.3913 13.808 14.3093 13.7262C14.2274 13.6445 14.1163 13.5986 14.0006 13.5986C13.8848 13.5986 13.7738 13.6445 13.6918 13.7262C13.6098 13.808 13.5636 13.9189 13.5632 14.0346V15.5436C13.2453 15.6526 12.9777 15.873 12.8097 16.164C12.6416 16.4551 12.5846 16.797 12.6491 17.1268L11.3413 17.8835C11.2917 17.9122 11.2481 17.9504 11.2132 17.996C11.1783 18.0415 11.1527 18.0935 11.1379 18.1489C11.1231 18.2044 11.1193 18.2622 11.1268 18.3191C11.1343 18.376 11.153 18.4308 11.1817 18.4805C11.2104 18.5302 11.2486 18.5737 11.2942 18.6086C11.3397 18.6436 11.3917 18.6692 11.4471 18.684C11.5026 18.6988 11.5604 18.7026 11.6173 18.695C11.6742 18.6875 11.729 18.6689 11.7787 18.6402L13.0864 17.8835C13.3403 18.1031 13.6648 18.224 14.0006 18.224C14.3363 18.224 14.6608 18.1031 14.9147 17.8835L16.2224 18.6402C16.3234 18.6978 16.4431 18.7131 16.5554 18.6828C16.6676 18.6525 16.7634 18.579 16.8216 18.4783Z" fill="#0B7AB2"/>
</svg>
