<svg width="30" height="30" viewBox="0 0 30 30" fill="none" xmlns="http://www.w3.org/2000/svg">
<g clip-path="url(#clip0_21629_622)">
<path d="M19.8125 5.375H25.625C25.875 5.375 26.125 5.125 26.125 4.875C26.125 4.625 25.875 4.375 25.625 4.375H19.75C19.5 4.375 19.25 4.625 19.25 4.875C19.3125 5.125 19.5 5.375 19.8125 5.375Z" fill="#0B7AB2"/>
<path d="M19.8125 7.3125H27.75C28 7.3125 28.25 7.0625 28.25 6.8125C28.25 6.5625 28 6.3125 27.75 6.3125H19.8125C19.5625 6.3125 19.3125 6.5625 19.3125 6.8125C19.3125 7.125 19.5 7.3125 19.8125 7.3125Z" fill="#0B7AB2"/>
<path d="M13.4375 4C11.75 4 10.4375 4.8125 10.375 7C10.375 8.625 16.5 8.625 16.5 7C16.4375 4.8125 15.125 4 13.4375 4Z" fill="#0B7AB2"/>
<path d="M13.4375 2.625C14.1624 2.625 14.75 2.03737 14.75 1.3125C14.75 0.587626 14.1624 0 13.4375 0C12.7126 0 12.125 0.587626 12.125 1.3125C12.125 2.03737 12.7126 2.625 13.4375 2.625Z" fill="#0B7AB2"/>
<path d="M19.8125 16.3125H25.625C25.875 16.3125 26.125 16.0625 26.125 15.8125C26.125 15.5625 25.875 15.3125 25.625 15.3125H19.75C19.5 15.3125 19.25 15.5625 19.25 15.8125C19.25 16.0625 19.5 16.3125 19.8125 16.3125Z" fill="#0B7AB2"/>
<path d="M27.75 17.25H19.8125C19.5625 17.25 19.3125 17.5 19.3125 17.75C19.3125 18 19.5625 18.25 19.8125 18.25H27.75C28 18.25 28.25 18 28.25 17.75C28.25 17.5 28 17.25 27.75 17.25Z" fill="#0B7AB2"/>
<path d="M13.4375 14.9375C11.75 14.9375 10.4375 15.75 10.375 17.9375C10.375 19.5625 16.5 19.5625 16.5 17.9375C16.4375 15.75 15.125 14.9375 13.4375 14.9375Z" fill="#0B7AB2"/>
<path d="M13.4375 13.5C14.1624 13.5 14.75 12.9124 14.75 12.1875C14.75 11.4626 14.1624 10.875 13.4375 10.875C12.7126 10.875 12.125 11.4626 12.125 12.1875C12.125 12.9124 12.7126 13.5 13.4375 13.5Z" fill="#0B7AB2"/>
<path d="M19.8125 27.1875H25.625C25.875 27.1875 26.125 26.9375 26.125 26.6875C26.125 26.4375 25.875 26.1875 25.625 26.1875H19.75C19.5 26.1875 19.25 26.4375 19.25 26.6875C19.3125 27 19.5 27.1875 19.8125 27.1875Z" fill="#0B7AB2"/>
<path d="M27.75 28.1875H19.8125C19.5625 28.1875 19.3125 28.4375 19.3125 28.6875C19.3125 28.9375 19.5625 29.1875 19.8125 29.1875H27.75C28 29.1875 28.25 28.9375 28.25 28.6875C28.25 28.375 28 28.1875 27.75 28.1875Z" fill="#0B7AB2"/>
<path d="M13.4375 25.8125C11.75 25.8125 10.4375 26.625 10.375 28.8125C10.375 30.4375 16.5 30.4375 16.5 28.8125C16.4375 26.625 15.125 25.8125 13.4375 25.8125Z" fill="#0B7AB2"/>
<path d="M13.4375 24.4375C14.1624 24.4375 14.75 23.8499 14.75 23.125C14.75 22.4001 14.1624 21.8125 13.4375 21.8125C12.7126 21.8125 12.125 22.4001 12.125 23.125C12.125 23.8499 12.7126 24.4375 13.4375 24.4375Z" fill="#0B7AB2"/>
<path d="M4.75 7.125C6.375 7.125 7.75 5.8125 7.75 4.125C7.75 3.875 7.5 3.625 7.25 3.625C7 3.625 6.75 3.875 6.75 4.125C6.75 5.25 5.875 6.125 4.75 6.125C3.625 6.125 2.75 5.25 2.75 4.125C2.75 3 3.625 2.125 4.75 2.125C5 2.125 5.25 1.875 5.25 1.625C5.25 1.375 5 1.1875 4.75 1.1875C3.125 1.1875 1.75 2.5 1.75 4.1875C1.75 5.8125 3.125 7.125 4.75 7.125Z" fill="#0B7AB2"/>
<path d="M7.375 1.1875L4.75 3.875L4.1875 3.25C4 3.0625 3.6875 3.0625 3.5 3.25C3.25 3.5 3.25 3.75 3.5 4L4.375 4.875C4.5 5 4.625 5.0625 4.75 5.0625C4.875 5.0625 5 5 5.0625 4.875L8.125 1.875C8.3125 1.6875 8.3125 1.375 8.125 1.1875C7.875 1 7.625 1 7.375 1.1875Z" fill="#0B7AB2"/>
<path d="M4.75 18.0625C6.375 18.0625 7.75 16.75 7.75 15.0625C7.75 14.8125 7.5 14.5625 7.25 14.5625C7 14.5625 6.75 14.8125 6.75 15.0625C6.75 16.1875 5.875 17.0625 4.75 17.0625C3.625 17.0625 2.75 16.1875 2.75 15.0625C2.75 13.9375 3.625 13.0625 4.75 13.0625C5 13.0625 5.25 12.8125 5.25 12.5625C5.25 12.3125 5 12.0625 4.75 12.0625C3.125 12.0625 1.75 13.375 1.75 15.0625C1.75 16.6875 3.125 18.0625 4.75 18.0625Z" fill="#0B7AB2"/>
<path d="M7.375 12.0624L4.6875 14.7499L4.125 14.1874C3.9375 13.9999 3.625 13.9999 3.4375 14.1874C3.25 14.3749 3.25 14.6874 3.4375 14.8749L4.375 15.8124C4.4375 15.8749 4.5625 15.9374 4.75 15.9374C4.875 15.9374 5 15.8749 5.125 15.8124L8.125 12.8124C8.3125 12.6249 8.3125 12.3124 8.125 12.1249C7.875 11.8749 7.625 11.8749 7.375 12.0624Z" fill="#0B7AB2"/>
<path d="M7.25 25.5C7 25.5 6.75 25.75 6.75 26C6.75 27.125 5.875 28 4.75 28C3.625 28 2.75 27.125 2.75 26C2.75 24.875 3.625 24 4.75 24C5 24 5.25 23.75 5.25 23.5C5.25 23.25 5 23 4.75 23C3.125 23 1.75 24.3125 1.75 26C1.75 27.625 3.0625 29 4.75 29C6.375 29 7.75 27.6875 7.75 26C7.6875 25.6875 7.5 25.5 7.25 25.5Z" fill="#0B7AB2"/>
<path d="M7.375 22.9999L4.6875 25.6874L4.125 25.1249C3.9375 24.9374 3.625 24.9374 3.4375 25.1249C3.25 25.3124 3.25 25.6249 3.4375 25.8124L4.375 26.6874C4.5 26.8124 4.625 26.8749 4.75 26.8749C4.875 26.8749 5 26.8124 5.125 26.7499L8.125 23.7499C8.3125 23.5624 8.3125 23.2499 8.125 23.0624C7.875 22.8124 7.625 22.8124 7.375 22.9999Z" fill="#0B7AB2"/>
</g>
<defs>
<clipPath id="clip0_21629_622">
<rect width="30" height="30" fill="white"/>
</clipPath>
</defs>
</svg>
