<svg width="28" height="28" viewBox="0 0 28 28" fill="none" xmlns="http://www.w3.org/2000/svg">
<path d="M13.9997 1.75C10.4717 1.75 7.61133 4.61037 7.61133 8.13837C7.61133 11.3995 10.0561 14.084 13.2122 14.4734V21.8593C13.2122 22.2941 13.5648 22.6467 13.9997 22.6467C14.4346 22.6467 14.7872 22.2941 14.7872 21.8593V14.4734C17.9433 14.084 20.3881 11.3995 20.3881 8.13837C20.3881 4.61037 17.5277 1.75 13.9997 1.75ZM17.4105 7.931C17.3352 7.95375 17.2582 7.96512 17.183 7.96512C16.8443 7.96512 16.532 7.7455 16.4296 7.40513C16.1855 6.59575 15.5572 5.96312 14.7496 5.71287C14.3331 5.58425 14.1012 5.14325 14.2298 4.72762C14.3576 4.312 14.8003 4.08013 15.2142 4.20788C16.5232 4.613 17.5408 5.63762 17.9363 6.94925C18.0632 7.36575 17.8278 7.805 17.4105 7.931Z" fill="#0B7AB2"/>
<path d="M16.3629 19.4224V21.8592C16.3629 23.1621 15.3033 24.2217 14.0004 24.2217C12.6976 24.2217 11.6379 23.1621 11.6379 21.8592V19.4224C8.29019 19.8564 5.85156 21.1864 5.85156 22.7614C5.85069 24.6881 9.49944 26.25 14.0004 26.25C18.5014 26.25 22.1502 24.6881 22.1502 22.7614C22.1502 21.1864 19.7116 19.8564 16.3629 19.4224Z" fill="#0B7AB2"/>
</svg>
