<svg width="28" height="28" viewBox="0 0 28 28" fill="none" xmlns="http://www.w3.org/2000/svg">
<path d="M25.5139 19.9175L20.8011 17.1497C20.3013 16.8558 19.6902 16.9339 19.2802 17.3437L17.3124 19.3115C16.9954 19.6285 16.5454 19.7092 16.1379 19.522C14.5593 18.7964 12.9642 17.6712 11.6466 16.3535C10.329 15.0359 9.20367 13.4408 8.47812 11.8623C8.29091 11.4547 8.3716 11.0046 8.68848 10.6876L10.6563 8.7198C11.0662 8.30989 11.1442 7.69872 10.8504 7.19912L8.08211 2.48547C7.82141 2.04416 7.34476 1.81131 6.83822 1.87795C4.44918 2.19138 2.84336 3.36708 2.1942 5.27803C1.55254 7.16703 1.86162 9.78408 3.06462 12.6471C4.17283 15.2845 5.97375 17.9625 8.00562 19.9944C10.0375 22.0262 12.7155 23.8272 15.353 24.9354C17.2401 25.7283 19.0199 26.1329 20.5552 26.1329C21.3493 26.1329 22.0781 26.0245 22.7221 25.8058C24.633 25.1567 25.8087 23.5508 26.122 21.1621C26.189 20.6545 25.9561 20.1776 25.5139 19.9175V19.9175Z" fill="white"/>
<path d="M25.514 19.9177L20.8012 17.1499C20.3014 16.856 19.6903 16.934 19.2804 17.3439L17.9043 18.7199L25.5569 23.2156C25.8313 22.6156 26.0215 21.9295 26.1221 21.1622C26.189 20.6546 25.9561 20.1778 25.514 19.9177H25.514Z" fill="white"/>
<path d="M24.1244 22.3741C23.5445 23.6421 22.5867 24.5241 21.2895 24.9647C20.6456 25.1834 19.9167 25.2917 19.1227 25.2917C17.5874 25.2917 15.8076 24.8872 13.9205 24.0943C13.282 23.826 12.6413 23.5168 12.0078 23.1739C13.0946 23.8631 14.2272 24.4624 15.3526 24.9353C17.2397 25.7282 19.0195 26.1327 20.5548 26.1327C21.3488 26.1327 22.0777 26.0244 22.7216 25.8057C24.0187 25.3651 24.9766 24.4831 25.5564 23.2153L24.1244 22.3741Z" fill="white"/>
<path d="M24.1241 22.3739L25.5561 23.2151C25.8305 22.6152 26.0206 21.9291 26.1213 21.1618C26.1882 20.6542 25.9553 20.1773 25.5132 19.9172L24.0811 19.0762C24.5232 19.3363 24.7561 19.8131 24.6891 20.3207C24.5884 21.0879 24.3984 21.7739 24.124 22.3738L24.1241 22.3739Z" fill="white"/>
<path d="M9.27961 10.0958L10.6556 8.7198C11.0655 8.30989 11.1436 7.69872 10.8498 7.19912L8.08146 2.48547C7.82076 2.04416 7.34412 1.81131 6.83757 1.87795C6.07063 1.97858 5.38493 2.16854 4.78516 2.44268L9.27956 10.0958H9.27961Z" fill="white"/>
<path d="M24.7833 11.8647C27.3343 9.31213 27.3343 5.17526 24.7833 2.62422C22.2322 0.0731775 18.0954 0.0731775 15.5428 2.62422C13.3379 4.83066 13.0385 8.22057 14.6477 10.7482L14.2221 13.1854L16.6593 12.7597C19.1869 14.369 22.5768 14.0696 24.7833 11.8647V11.8647Z" fill="white"/>
<path d="M14.756 10.1258C13.924 8.81906 13.6036 7.28189 13.7915 5.79688C13.4136 7.46766 13.6982 9.25804 14.6472 10.7486L14.756 10.1258H14.756Z" fill="#0B7AB2"/>
<path d="M24.8926 11.2424C22.6862 13.4473 19.2962 13.7467 16.7686 12.1375L14.3314 12.5632L14.2227 13.1859L16.6599 12.7603C19.1875 14.3695 22.5775 14.0701 24.7839 11.8652C25.8511 10.7972 26.4716 9.45195 26.6458 8.06152C26.3838 9.2271 25.7996 10.3349 24.8926 11.2424Z" fill="#0B7AB2"/>
<path d="M20.1632 3.19385L21.3844 5.51104L23.9666 5.95645L22.1398 7.83414L22.5139 10.4265L20.1632 9.2693L17.814 10.4265L18.188 7.83414L16.3613 5.95645L18.942 5.51104L20.1632 3.19385Z" fill="#0B7AB2"/>
<path d="M21.3841 5.51127L20.1631 3.19434V9.26958L22.5136 10.4267L22.1395 7.83432L23.9663 5.95668L21.3841 5.51127Z" fill="#0B7AB2"/>
</svg>
