<svg width="30" height="30" viewBox="0 0 30 30" fill="none" xmlns="http://www.w3.org/2000/svg">
<path d="M28.1649 18.7284V16.835H19.4362C19.4362 19.285 17.45 21.2712 14.9999 21.2712C12.5498 21.2712 10.5637 19.2851 10.5637 16.835H1.83496V18.7284L5.62527 19.1298C5.8617 20.0989 6.24449 21.0108 6.74893 21.8404L4.35197 24.8051L7.02977 27.4829L9.99443 25.086C10.8241 25.5904 11.736 25.9732 12.7051 26.2096L13.1065 29.9999H16.8934L17.2947 26.2096C18.2639 25.9732 19.1757 25.5904 20.0054 25.086L22.9701 27.4829L25.6479 24.8051L23.2509 21.8404C23.7554 21.0108 24.1381 20.0989 24.3746 19.1298L28.1649 18.7284Z" fill="#0B7AB2"/>
<path d="M15 0C13.125 0 11.5996 1.52543 11.5996 3.40037C11.5996 5.27531 13.125 6.80068 15 6.80068C16.8749 6.80068 18.4004 5.27531 18.4004 3.40037C18.4004 1.52543 16.8749 0 15 0Z" fill="#0B7AB2"/>
<path d="M18.6202 7.74072H11.3795C9.7126 7.74078 8.35645 9.09688 8.35645 10.7638V15.0771H21.6433V10.7638C21.6433 9.09688 20.2871 7.74072 18.6202 7.74072Z" fill="#0B7AB2"/>
<path d="M7.78635 1.5708C6.1067 1.5708 4.74023 2.93732 4.74023 4.61691C4.74023 6.28303 6.08502 7.64024 7.74609 7.66197C8.43398 6.85736 9.38314 6.28309 10.4615 6.07244C10.6979 5.63973 10.8325 5.14379 10.8325 4.61691C10.8325 2.93727 9.466 1.5708 7.78635 1.5708Z" fill="#0B7AB2"/>
<path d="M4.54311 8.50488C3.04984 8.50488 1.83496 9.71971 1.83496 11.213V15.077H6.59869V10.7636C6.59869 9.94711 6.80482 9.17795 7.16723 8.50488H4.54311Z" fill="#0B7AB2"/>
<path d="M22.2141 1.5708C20.5344 1.5708 19.168 2.93732 19.168 4.61691C19.168 5.14373 19.3025 5.63973 19.5389 6.07244C20.6173 6.28309 21.5664 6.85736 22.2543 7.66197C23.9154 7.64029 25.2602 6.28303 25.2602 4.61691C25.2602 2.93727 23.8937 1.5708 22.2141 1.5708Z" fill="#0B7AB2"/>
<path d="M25.4571 8.50488H22.833C23.1954 9.17795 23.4015 9.94711 23.4015 10.7636V15.0769H28.1653V11.213C28.1653 9.71971 26.9504 8.50488 25.4571 8.50488Z" fill="#0B7AB2"/>
</svg>
