<svg width="28" height="28" viewBox="0 0 28 28" fill="none" xmlns="http://www.w3.org/2000/svg">
<g clip-path="url(#clip0_21535_17408)">
<path d="M16.6849 13.2394H14.0003C13.7288 13.2394 13.4841 13.0759 13.3802 12.8251C13.2763 12.5743 13.3338 12.2856 13.5257 12.0936L15.0646 10.5547H14.0003C13.6296 10.5547 13.3291 10.2542 13.3291 9.88357C13.3291 9.51291 13.6296 9.2124 14.0003 9.2124H16.6849C16.9564 9.2124 17.2011 9.37594 17.305 9.62674C17.4088 9.87753 17.3514 10.1662 17.1595 10.3582L15.6206 11.8971H16.6849C17.0556 11.8971 17.3561 12.1976 17.3561 12.5682C17.3561 12.9389 17.0556 13.2394 16.6849 13.2394Z" fill="#0B7AB2"/>
<path d="M22.0541 7.87026H19.3694C19.0979 7.87026 18.8532 7.70671 18.7493 7.45592C18.6455 7.20513 18.7029 6.91644 18.8948 6.72449L20.4337 5.18559H19.3694C18.9987 5.18559 18.6982 4.88509 18.6982 4.51443C18.6982 4.14376 18.9987 3.84326 19.3694 3.84326H22.0541C22.3255 3.84326 22.5702 4.0068 22.6741 4.25759C22.778 4.50839 22.7206 4.79708 22.5286 4.98903L20.9897 6.52792H22.0541C22.4247 6.52792 22.7252 6.82843 22.7252 7.19909C22.7252 7.56975 22.4247 7.87026 22.0541 7.87026Z" fill="#0B7AB2"/>
<path d="M14.0005 25.4545C7.68439 25.4545 2.5459 20.3058 2.5459 13.9771C2.5459 11.0548 3.64518 8.27569 5.64131 6.15172C7.70367 3.95723 10.557 2.6767 13.6758 2.546C13.9468 2.53472 14.1968 2.68676 14.3116 2.93174C14.4416 3.20906 14.3876 3.57431 14.0296 3.80622C13.246 4.31394 10.6894 6.25754 10.6894 9.95012C10.6894 13.9964 13.9812 17.2882 18.0275 17.2882C21.6045 17.2882 23.5244 14.9621 24.1838 13.962C24.5067 13.472 24.9367 13.6041 25.0687 13.666C25.3137 13.7808 25.4658 14.0315 25.4544 14.3017C25.3238 17.4175 24.0407 20.2734 21.8416 22.3433C19.71 24.3496 16.9253 25.4545 14.0005 25.4545Z" fill="#0B7AB2"/>
</g>
<defs>
<clipPath id="clip0_21535_17408">
<rect width="28" height="28" fill="white"/>
</clipPath>
</defs>
</svg>
