<svg width="21" height="26" viewBox="0 0 21 26" fill="none" xmlns="http://www.w3.org/2000/svg">
<path d="M15.75 2.04167V3.20833C15.75 4.33393 14.8339 5.25 13.7083 5.25H6.70833C5.58273 5.25 4.66667 4.33393 4.66667 3.20833V2.04167C4.66667 0.916067 5.58273 0 6.70833 0H13.7083C14.8339 0 15.75 0.916067 15.75 2.04167ZM20.4167 5.54167V21.875C20.4167 23.6444 18.9777 25.0833 17.2083 25.0833H3.20833C1.43897 25.0833 0 23.6444 0 21.875V5.54167C0 3.87217 1.28578 2.51288 2.91667 2.36285V3.20833C2.91667 5.299 4.61767 7 6.70833 7H13.7083C15.799 7 17.5 5.299 17.5 3.20833V2.36285C19.1309 2.51288 20.4167 3.87228 20.4167 5.54167ZM15.75 20.7083C15.75 20.2252 15.3581 19.8333 14.875 19.8333H5.54167C5.05855 19.8333 4.66667 20.2252 4.66667 20.7083C4.66667 21.1915 5.05855 21.5833 5.54167 21.5833H14.875C15.3581 21.5833 15.75 21.1915 15.75 20.7083ZM15.75 16.0417C15.75 15.5586 15.3581 15.1667 14.875 15.1667H5.54167C5.05855 15.1667 4.66667 15.5586 4.66667 16.0417C4.66667 16.5248 5.05855 16.9167 5.54167 16.9167H14.875C15.3581 16.9167 15.75 16.5248 15.75 16.0417ZM15.75 11.375C15.75 10.8919 15.3581 10.5 14.875 10.5H5.54167C5.05855 10.5 4.66667 10.8919 4.66667 11.375C4.66667 11.8581 5.05855 12.25 5.54167 12.25H14.875C15.3581 12.25 15.75 11.8581 15.75 11.375Z" fill="#0B7AB2"/>
</svg>
