<svg width="28" height="28" viewBox="0 0 28 28" fill="none" xmlns="http://www.w3.org/2000/svg">
<path d="M23.6167 17.5826C22.2141 17.5826 20.837 17.3632 19.5319 16.9319C18.8924 16.7138 18.1063 16.9139 17.716 17.3148L15.1401 19.2593C12.1528 17.6647 10.3127 15.8251 8.73987 12.8603L10.6272 10.3515C11.1175 9.8618 11.2934 9.14649 11.0827 8.47533C10.6496 7.16343 10.4295 5.78692 10.4295 4.38374C10.4296 3.37008 9.60492 2.54541 8.59132 2.54541H4.38417C3.37056 2.54541 2.5459 3.37008 2.5459 4.38368C2.5459 16.0023 11.9981 25.4544 23.6167 25.4544C24.6303 25.4544 25.455 24.6298 25.455 23.6162V19.4208C25.4549 18.4072 24.6303 17.5826 23.6167 17.5826Z" fill="#0B7AB2"/>
</svg>
