<svg width="28" height="28" viewBox="0 0 28 28" fill="none" xmlns="http://www.w3.org/2000/svg">
<path d="M12.8337 4.54346V9.21012C12.8337 10.1384 12.4649 11.0286 11.8085 11.685C11.1522 12.3414 10.2619 12.7101 9.33366 12.7101H4.66699C3.73873 12.7101 2.8485 12.3414 2.19212 11.685C1.53574 11.0286 1.16699 10.1384 1.16699 9.21012V4.54346C1.16699 3.6152 1.53574 2.72496 2.19212 2.06858C2.8485 1.41221 3.73873 1.04346 4.66699 1.04346H9.33366C10.2619 1.04346 11.1522 1.41221 11.8085 2.06858C12.4649 2.72496 12.8337 3.6152 12.8337 4.54346ZM23.3337 1.04346H18.667C17.7387 1.04346 16.8485 1.41221 16.1921 2.06858C15.5357 2.72496 15.167 3.6152 15.167 4.54346V9.21012C15.167 10.1384 15.5357 11.0286 16.1921 11.685C16.8485 12.3414 17.7387 12.7101 18.667 12.7101H23.3337C24.2619 12.7101 25.1522 12.3414 25.8085 11.685C26.4649 11.0286 26.8337 10.1384 26.8337 9.21012V4.54346C26.8337 3.6152 26.4649 2.72496 25.8085 2.06858C25.1522 1.41221 24.2619 1.04346 23.3337 1.04346ZM9.33366 15.0435H4.66699C3.73873 15.0435 2.8485 15.4122 2.19212 16.0686C1.53574 16.725 1.16699 17.6152 1.16699 18.5435V23.2101C1.16699 24.1384 1.53574 25.0286 2.19212 25.685C2.8485 26.3414 3.73873 26.7101 4.66699 26.7101H9.33366C10.2619 26.7101 11.1522 26.3414 11.8085 25.685C12.4649 25.0286 12.8337 24.1384 12.8337 23.2101V18.5435C12.8337 17.6152 12.4649 16.725 11.8085 16.0686C11.1522 15.4122 10.2619 15.0435 9.33366 15.0435ZM23.3337 15.0435H18.667C17.7387 15.0435 16.8485 15.4122 16.1921 16.0686C15.5357 16.725 15.167 17.6152 15.167 18.5435V23.2101C15.167 24.1384 15.5357 25.0286 16.1921 25.685C16.8485 26.3414 17.7387 26.7101 18.667 26.7101H23.3337C24.2619 26.7101 25.1522 26.3414 25.8085 25.685C26.4649 25.0286 26.8337 24.1384 26.8337 23.2101V18.5435C26.8337 17.6152 26.4649 16.725 25.8085 16.0686C25.1522 15.4122 24.2619 15.0435 23.3337 15.0435Z" fill="white"/>
</svg>
