<svg width="20" height="24" viewBox="0 0 20 24" fill="none" xmlns="http://www.w3.org/2000/svg">
<path fill-rule="evenodd" clip-rule="evenodd" d="M15.75 11.5103C16.072 10.9527 16.786 10.7613 17.3437 11.0833C17.9608 11.4392 18.7472 11.8942 19.3643 12.25C19.922 12.572 20.1133 13.286 19.7913 13.8437C18.5908 15.9238 15.9005 20.5823 15.2623 21.6883C15.1725 21.8447 15.0465 21.9788 14.8948 22.078C14.4818 22.351 13.5753 22.9495 12.7178 23.5153C12.3492 23.7592 11.8743 23.7732 11.4917 23.5527C11.109 23.331 10.8838 22.9133 10.9107 22.4723C10.9725 21.4457 11.0367 20.363 11.067 19.8683C11.0775 19.6875 11.13 19.5113 11.221 19.355C11.8592 18.249 14.5495 13.5905 15.75 11.5103ZM8.66601 23.3333C8.59018 23.0102 8.56101 22.673 8.58085 22.3323C8.64268 21.3068 8.70802 20.223 8.73718 19.7283C8.76985 19.1858 8.92848 18.6585 9.20032 18.1883L13.7293 10.3437C14.6953 8.6695 16.8362 8.09667 18.5103 9.06267L18.6667 9.1525V3.5C18.6667 1.56683 17.0998 0 15.1667 0H3.5C2.57133 0 1.68116 0.368664 1.0255 1.0255C0.368664 1.68116 0 2.57133 0 3.5V19.8333C0 20.762 0.368664 21.6522 1.0255 22.3078C1.68116 22.9647 2.57133 23.3333 3.5 23.3333H8.66601ZM4.66667 16.3333H7.20415C7.84815 16.3333 8.37082 15.8107 8.37082 15.1667C8.37082 14.5227 7.84815 14 7.20415 14H4.66667C4.02267 14 3.5 14.5227 3.5 15.1667C3.5 15.8107 4.02267 16.3333 4.66667 16.3333ZM4.66667 11.6667H9.74167C10.3857 11.6667 10.9083 11.144 10.9083 10.5C10.9083 9.856 10.3857 9.33333 9.74167 9.33333H4.66667C4.02267 9.33333 3.5 9.856 3.5 10.5C3.5 11.144 4.02267 11.6667 4.66667 11.6667ZM4.66667 7H11.6667C12.3107 7 12.8333 6.47733 12.8333 5.83333C12.8333 5.18933 12.3107 4.66667 11.6667 4.66667H4.66667C4.02267 4.66667 3.5 5.18933 3.5 5.83333C3.5 6.47733 4.02267 7 4.66667 7Z" fill="white"/>
</svg>
