<svg width="28" height="28" viewBox="0 0 28 28" fill="none" xmlns="http://www.w3.org/2000/svg">
<path d="M21.9088 4.37939H19.6008V2.79313C19.6008 2.35532 19.2424 2 18.8008 2C18.3592 2 18.0008 2.35532 18.0008 2.79313V4.37939H9.9992V2.79313C9.9992 2.35532 9.6408 2 9.1992 2C8.7576 2 8.3992 2.35532 8.3992 2.79313V4.37939H6.0912C3.8352 4.37939 2 6.19883 2 8.43546V20.9439C2 23.1806 3.8352 25 6.0912 25H21.9088C24.1648 25 26 23.1806 26 20.9439V8.43546C26 6.19883 24.1648 4.37939 21.9088 4.37939ZM6.0912 5.96565H8.3992V7.55192C8.3992 7.98972 8.7576 8.34505 9.1992 8.34505C9.6408 8.34505 9.9992 7.98972 9.9992 7.55192V5.96565H18V7.55192C18 7.98972 18.3584 8.34505 18.8 8.34505C19.2416 8.34505 19.6 7.98972 19.6 7.55192V5.96565H21.908C23.2816 5.96565 24.3992 7.07366 24.3992 8.43546V10.4691H3.6V8.43546C3.6 7.07366 4.7176 5.96565 6.0912 5.96565ZM8.2632 18.923C8.7048 18.923 9.0632 19.2784 9.0632 19.7162C9.0632 20.154 8.7048 20.5093 8.2632 20.5093C7.8216 20.5093 7.4632 20.154 7.4632 19.7162C7.4632 19.2784 7.8216 18.923 8.2632 18.923ZM7.4632 13.6281C7.4632 13.1903 7.8216 12.835 8.2632 12.835C8.7048 12.835 9.0632 13.1903 9.0632 13.6281C9.0632 14.0659 8.7048 14.4212 8.2632 14.4212C7.8216 14.4212 7.4632 14.0659 7.4632 13.6281ZM14.0392 18.923C14.4808 18.923 14.8392 19.2784 14.8392 19.7162C14.8392 20.154 14.4808 20.5093 14.0392 20.5093C13.5976 20.5093 13.2392 20.154 13.2392 19.7162C13.2392 19.2784 13.5976 18.923 14.0392 18.923ZM13.2392 13.6281C13.2392 13.1903 13.5976 12.835 14.0392 12.835C14.4808 12.835 14.8392 13.1903 14.8392 13.6281C14.8392 14.0659 14.4808 14.4212 14.0392 14.4212C13.5976 14.4212 13.2392 14.0659 13.2392 13.6281ZM19.6 16.9402C21.144 16.9402 22.4 18.1854 22.4 19.7162C22.4 21.2469 21.144 22.4921 19.6 22.4921C18.056 22.4921 16.8 21.2469 16.8 19.7162C16.8 18.1854 18.056 16.9402 19.6 16.9402ZM18.8 13.6281C18.8 13.1903 19.1584 12.835 19.6 12.835C20.0416 12.835 20.4 13.1903 20.4 13.6281C20.4 14.0659 20.0416 14.4212 19.6 14.4212C19.1584 14.4212 18.8 14.0659 18.8 13.6281Z" fill="white"/>
<path d="M19.5996 20.7998C20.1519 20.7998 20.5996 20.3521 20.5996 19.7998C20.5996 19.2475 20.1519 18.7998 19.5996 18.7998C19.0473 18.7998 18.5996 19.2475 18.5996 19.7998C18.5996 20.3521 19.0473 20.7998 19.5996 20.7998Z" fill="white"/>
</svg>
