<svg width="28" height="28" viewBox="0 0 28 28" fill="none" xmlns="http://www.w3.org/2000/svg">
<path d="M14 11.1958C16.3888 11.1958 18.3252 9.25938 18.3252 6.87063C18.3252 4.48188 16.3888 2.54541 14 2.54541C11.6113 2.54541 9.6748 4.48188 9.6748 6.87063C9.6748 9.25938 11.6113 11.1958 14 11.1958Z" fill="#0B7AB2"/>
<path d="M22.749 11.1957C24.2591 11.1957 25.4833 9.97151 25.4833 8.46138C25.4833 6.95125 24.2591 5.72705 22.749 5.72705C21.2389 5.72705 20.0146 6.95125 20.0146 8.46138C20.0146 9.97151 21.2389 11.1957 22.749 11.1957Z" fill="#0B7AB2"/>
<path d="M5.24996 11.1957C6.76009 11.1957 7.98429 9.97151 7.98429 8.46138C7.98429 6.95125 6.76009 5.72705 5.24996 5.72705C3.73983 5.72705 2.51562 6.95125 2.51562 8.46138C2.51562 9.97151 3.73983 11.1957 5.24996 11.1957Z" fill="#0B7AB2"/>
<path d="M7.94373 13.6516C6.8674 12.7697 5.89264 12.8865 4.64812 12.8865C2.78678 12.8865 1.27246 14.3918 1.27246 16.2417V21.6711C1.27246 22.4745 1.9282 23.1278 2.73458 23.1278C6.21593 23.1278 5.79654 23.1908 5.79654 22.9776C5.79654 19.1304 5.34085 16.309 7.94373 13.6516Z" fill="#0B7AB2"/>
<path d="M15.1829 12.9058C13.0091 12.7245 11.1197 12.9079 9.48999 14.2531C6.76277 16.4376 7.28761 19.3789 7.28761 22.9771C7.28761 23.9291 8.06217 24.7181 9.02863 24.7181C19.5226 24.7181 19.9403 25.0567 20.5625 23.6786C20.7666 23.2126 20.7107 23.3607 20.7107 18.9025C20.7107 15.3615 17.6446 12.9058 15.1829 12.9058Z" fill="#0B7AB2"/>
<path d="M23.3503 12.8863C22.099 12.8863 21.1296 12.7708 20.0547 13.6515C22.6381 16.2891 22.2019 18.918 22.2019 22.9775C22.2019 23.192 21.8537 23.1277 25.2116 23.1277C26.0469 23.1277 26.726 22.451 26.726 21.6193V16.2416C26.726 14.3917 25.2116 12.8863 23.3503 12.8863Z" fill="#0B7AB2"/>
</svg>
