<svg width="28" height="28" viewBox="0 0 28 28" fill="none" xmlns="http://www.w3.org/2000/svg">
<g clip-path="url(#clip0_22103_12762)">
<path d="M4.44509 18.3378C5.93178 18.3378 7.33292 17.5905 8.14859 16.3748H22.8195C22.9201 16.3748 23.0151 16.3307 23.0801 16.2542L24.8021 14.2208C24.91 14.0936 24.91 13.9068 24.8021 13.7796L23.0801 11.7462C23.0153 11.6697 22.9201 11.6256 22.8195 11.6256H8.14859C7.33292 10.4099 5.93178 9.6626 4.44509 9.6626C2.00159 9.66238 0.0136719 11.6084 0.0136719 14.0001C0.0136719 16.3918 2.00159 18.3378 4.44509 18.3378ZM2.76919 15.8943C2.76919 15.4517 2.88496 15.0828 3.11341 14.7974C3.3379 14.517 3.74187 14.2219 4.34872 13.896C4.61797 13.7491 4.80232 13.6157 4.89559 13.4993C4.98358 13.3895 5.02658 13.2492 5.02658 13.0708C5.02658 12.8909 4.96329 12.7484 4.83363 12.6355C4.7 12.5189 4.53131 12.4622 4.31719 12.4622C4.09888 12.4622 3.93372 12.5317 3.81178 12.6746C3.68498 12.823 3.61662 13.0413 3.60802 13.3246L3.60472 13.4351H2.88166L2.87967 13.3233C2.87173 12.8554 3.00338 12.481 3.27152 12.21C3.54011 11.9385 3.91586 11.8007 4.3882 11.8007C4.79394 11.8007 5.13287 11.9217 5.39572 12.1599C5.65879 12.3989 5.79198 12.711 5.79198 13.0865C5.79198 13.4045 5.70598 13.6711 5.53618 13.8799C5.37146 14.0825 5.07641 14.2967 4.63407 14.5348C4.18951 14.7732 3.8841 14.9913 3.72688 15.1833C3.69909 15.2188 3.67285 15.2568 3.64882 15.2969H5.79198V16.0081H2.76919V15.8943Z" fill="#0B7AB2"/>
<path d="M27.9195 23.4417L26.1975 21.4083C26.1327 21.3318 26.0374 21.2877 25.9369 21.2877H8.16226C7.34659 20.072 5.94545 19.3247 4.45876 19.3247C2.01548 19.3247 0.0273438 21.2705 0.0273438 23.6624C0.0273438 26.0541 2.01548 28.0001 4.45876 28.0001C5.94545 28.0001 7.34659 27.2528 8.16226 26.0371H25.9369C26.0372 26.0371 26.1325 25.993 26.1975 25.9165L27.9195 23.8831C28.0273 23.7557 28.0273 23.5689 27.9195 23.4417ZM5.44335 25.4322C5.158 25.688 4.78865 25.8177 4.34564 25.8177C3.86095 25.8177 3.48652 25.6986 3.23271 25.464C2.97912 25.2296 2.83954 24.8721 2.81749 24.4018L2.81175 24.2827H3.57208L3.582 24.3859C3.60957 24.6666 3.683 24.8664 3.80009 24.98C3.9152 25.0915 4.10373 25.148 4.36107 25.148C4.58445 25.148 4.76086 25.0882 4.90045 24.9654C5.03672 24.8461 5.10288 24.6964 5.10288 24.5074C5.10288 24.3067 5.03959 24.1537 4.90927 24.039C4.7957 23.9374 4.65215 23.882 4.47001 23.8692C4.37783 23.8637 4.28897 23.8611 4.20517 23.8611C4.09536 23.8611 4.06713 23.8677 4.06404 23.8684L3.9174 23.9063V23.1819L4.05985 23.2132C4.08257 23.2183 4.1302 23.224 4.22656 23.224C4.30705 23.224 4.38864 23.219 4.46846 23.2086C4.6118 23.1907 4.72205 23.1475 4.80629 23.0767C4.91875 22.9863 4.97255 22.8628 4.97255 22.6974C4.97255 22.5433 4.91456 22.4211 4.79526 22.3241C4.67001 22.2216 4.5108 22.172 4.30837 22.172C4.10043 22.172 3.94805 22.23 3.84221 22.349C3.73217 22.4732 3.67043 22.6681 3.6583 22.9285L3.65345 23.0373H2.92995V22.9232C2.92995 22.4783 3.05366 22.1268 3.29776 21.8782C3.54275 21.6286 3.89028 21.502 4.33108 21.502C4.74388 21.502 5.08325 21.6059 5.33993 21.8105C5.60388 22.0214 5.73773 22.3027 5.73773 22.6469C5.73773 22.9879 5.6041 23.2683 5.34059 23.4796C5.3794 23.5034 5.41622 23.529 5.45084 23.5559C5.7331 23.7727 5.87643 24.0686 5.87643 24.4353C5.87687 24.8384 5.73112 25.174 5.44335 25.4322Z" fill="#0B7AB2"/>
<path d="M4.43142 8.67518C5.91811 8.67518 7.31902 7.92786 8.1347 6.71217H19.9354C20.036 6.71217 20.131 6.66807 20.1961 6.59155L21.918 4.55821C22.0261 4.43097 22.0261 4.2442 21.918 4.11697L20.1961 2.08362C20.1312 2.0071 20.036 1.963 19.9354 1.963H8.1347C7.31924 0.747316 5.91811 0 4.43142 0C1.98792 0 0 1.9458 0 4.3377C0 6.72937 1.98792 8.67518 4.43142 8.67518ZM3.20426 3.05035L3.32356 3.05255C3.57605 3.05784 3.78399 3.00514 3.93747 2.89731C4.09315 2.7875 4.2109 2.61175 4.28764 2.3747L4.31344 2.29531H4.93154V6.50335H4.15754V3.67859H3.20426V3.05035Z" fill="#0B7AB2"/>
</g>
<defs>
<clipPath id="clip0_22103_12762">
<rect width="28" height="28" fill="white"/>
</clipPath>
</defs>
</svg>
