<svg width="30" height="30" viewBox="0 0 30 30" fill="none" xmlns="http://www.w3.org/2000/svg">
<path fill-rule="evenodd" clip-rule="evenodd" d="M17.3019 3.34538C18.8715 3.65366 20.33 4.27146 21.6118 5.13197L23.9102 4.11117L25.8888 6.08971L24.8684 8.38741C25.7292 9.66934 26.3469 11.1283 26.6552 12.6983L29 13.6009V16.3991L26.6546 17.3019C26.3463 18.8715 25.7285 20.33 24.868 21.6118L25.8888 23.9102L23.9102 25.8888L21.6125 24.8683C20.3306 25.7292 18.8715 26.3468 17.3017 26.6552L16.3991 29H13.601L12.6981 26.6546C11.1285 26.3463 9.6701 25.7285 8.38828 24.868L6.08982 25.8888L4.11117 23.9102L5.1317 21.6125C4.27075 20.3306 3.65322 18.8715 3.34484 17.3016L1 16.3991V13.6009L3.34522 12.6981C3.65349 11.1284 4.27119 9.66972 5.13186 8.38801L4.11117 6.08982L6.08977 4.11123L8.38812 5.13202C9.66999 4.27152 11.1285 3.65371 12.6981 3.34544L13.6009 1H16.3991L17.3019 3.34538ZM10.6645 14.8191L11.1646 14.4558V18.9962C11.1646 19.6453 11.6957 20.1764 12.3447 20.1764H13.8561V16.2175C13.8561 15.9121 14.1059 15.6623 14.4112 15.6623H15.5888C15.8941 15.6623 16.144 15.9121 16.144 16.2175V20.1764H17.6553C18.3044 20.1764 18.8355 19.6453 18.8355 18.9962V14.4558L19.3356 14.8191C19.7047 15.0866 20.2207 15.0042 20.4882 14.6351C20.7556 14.266 20.6732 13.75 20.3041 13.4825L15.4986 9.99106C15.2167 9.77724 14.8172 9.76225 14.5158 9.98067L9.69602 13.4825C9.32694 13.7499 9.24458 14.2659 9.512 14.6351C9.77937 15.0042 10.2954 15.0866 10.6645 14.8191ZM15 6.88908C10.5204 6.88908 6.88908 10.5205 6.88908 15C6.88908 19.4795 10.5205 23.1109 15 23.1109C19.4795 23.1109 23.1109 19.4795 23.1109 15C23.1109 10.5205 19.4795 6.88908 15 6.88908Z" fill="white"/>
</svg>
