<svg width="30" height="30" viewBox="0 0 30 30" fill="none" xmlns="http://www.w3.org/2000/svg">
<path d="M3.77501 13.947C3.45 13.622 3.45 13.097 3.77501 12.7719L10.0667 6.48029C10.8083 5.73861 11.95 5.53862 12.9 5.9886L17.8667 8.32198C18.175 8.47197 18.5583 8.40529 18.8083 8.1553L25.0417 1.92198C25.3667 1.59697 25.9 1.59697 26.225 1.92198C26.55 2.24694 26.55 2.77195 26.225 3.09696L19.9834 9.33862C19.2417 10.0803 18.1 10.2803 17.15 9.83031L12.1917 7.49698C11.875 7.34694 11.4917 7.41362 11.2417 7.65527L4.95833 13.947C4.79165 14.1136 4.58332 14.1886 4.36669 14.1886C4.15002 14.1886 3.94169 14.1136 3.77501 13.947Z" fill="white"/>
<path d="M13.958 16.3219V26.6553C13.958 27.5803 13.208 28.322 12.2913 28.322H10.6247C9.70803 28.322 8.95801 27.5803 8.95801 26.6553V16.3219C8.95801 15.4053 9.70803 14.6553 10.6247 14.6553H12.2913C13.208 14.6553 13.958 15.4053 13.958 16.3219Z" fill="white"/>
<path d="M28.125 10.4718V26.6552C28.125 27.5802 27.375 28.3219 26.4583 28.3219H24.7917C23.875 28.3219 23.125 27.5802 23.125 26.6552V10.4718C23.125 9.5552 23.875 8.80518 24.7917 8.80518H26.4583C27.375 8.80518 28.125 9.5552 28.125 10.4718Z" fill="white"/>
<path d="M6.875 23.7716V26.655C6.875 27.58 6.12503 28.3217 5.20833 28.3217H3.54167C2.62502 28.3217 1.875 27.58 1.875 26.655V23.7716C1.875 22.855 2.62502 22.105 3.54167 22.105H5.20833C6.12503 22.105 6.875 22.855 6.875 23.7716Z" fill="white"/>
<path d="M21.042 19.2218V26.6552C21.042 27.5802 20.292 28.3219 19.3753 28.3219H17.7087C16.792 28.3219 16.042 27.5802 16.042 26.6552V19.2218C16.042 18.3052 16.792 17.5552 17.7087 17.5552H19.3753C20.292 17.5552 21.042 18.3052 21.042 19.2218Z" fill="white"/>
</svg>
