<svg width="30" height="30" viewBox="0 0 30 30" fill="none" xmlns="http://www.w3.org/2000/svg">
<path d="M9.28397 1.875C8.76578 1.875 8.34647 2.29477 8.34647 2.8125V4.09687H7.22775C4.89333 4.09687 2.99023 5.99997 2.99023 8.34372V9.2906H24.1308V8.34372C24.1308 5.99997 22.2278 4.09687 19.8933 4.09687H18.7734V2.8125C18.7734 2.29477 18.3541 1.875 17.8359 1.875C17.3177 1.875 16.8984 2.29477 16.8984 2.8125V4.09687H10.2215V2.8125C10.2215 2.29477 9.80216 1.875 9.28397 1.875Z" fill="white"/>
<path d="M2.99023 20.9999C2.99023 23.3436 4.89333 25.2468 7.22775 25.2468H13.3027C12.8152 24.2062 12.5434 23.0436 12.5434 21.8249C12.5434 17.3249 16.209 13.6593 20.7183 13.6593C21.9371 13.6593 23.0902 13.9312 24.1308 14.4093V11.1655H2.99023V20.9999ZM13.5652 14.3531H13.5746C14.0996 14.3531 14.5121 14.7749 14.5121 15.2906C14.5121 15.8062 14.0996 16.2281 13.5746 16.2281C13.059 16.2281 12.6371 15.8062 12.6371 15.2906C12.6371 14.7749 13.0496 14.3531 13.5652 14.3531ZM8.71835 14.3531H8.72773C9.24334 14.3531 9.66523 14.7749 9.66523 15.2906C9.66523 15.8062 9.24334 16.2281 8.72773 16.2281C8.21212 16.2281 7.79023 15.8062 7.79023 15.2906C7.79023 14.7749 8.20273 14.3531 8.71835 14.3531ZM8.71835 18.2999H8.72773C9.24334 18.2999 9.66523 18.7218 9.66523 19.2374C9.66523 19.7624 9.24334 20.1749 8.72773 20.1749C8.21212 20.1749 7.79023 19.7624 7.79023 19.2374C7.79023 18.7218 8.20273 18.2999 8.71835 18.2999Z" fill="white"/>
<path d="M20.7189 15.5342C17.2408 15.5342 14.4189 18.356 14.4189 21.8248C14.4189 25.3029 17.2408 28.1248 20.7189 28.1248C24.1877 28.1248 27.0096 25.3029 27.0096 21.8248C27.0096 18.356 24.1877 15.5342 20.7189 15.5342ZM23.6533 22.8561C23.5221 23.2404 23.1565 23.4842 22.772 23.4842C22.6689 23.4842 22.5658 23.4654 22.4627 23.4279L20.4096 22.7154C20.0346 22.5841 19.7814 22.2279 19.7814 21.8248V19.7716C19.7814 19.256 20.1939 18.8341 20.7189 18.8341C21.2346 18.8341 21.6564 19.256 21.6564 19.7716V21.1592L23.0814 21.656C23.569 21.8248 23.822 22.3591 23.6533 22.8561Z" fill="white"/>
</svg>
