<svg width="28" height="28" viewBox="0 0 28 28" fill="none" xmlns="http://www.w3.org/2000/svg">
<path d="M22.1823 4.1817H21.3641V3.38653C21.3641 2.94624 21.0256 2.56835 20.5853 2.54636C20.4746 2.54103 20.3641 2.55821 20.2603 2.59688C20.1565 2.63553 20.0616 2.69486 19.9815 2.77127C19.9013 2.84767 19.8375 2.93956 19.7938 3.04136C19.7502 3.14316 19.7277 3.25276 19.7277 3.36352V4.1817H8.27318V3.38653C8.27318 2.94624 7.93466 2.56835 7.49437 2.54636C7.38371 2.54103 7.27321 2.55821 7.1694 2.59688C7.06559 2.63553 6.97074 2.69486 6.89055 2.77127C6.81037 2.84767 6.74655 2.93956 6.70294 3.04136C6.65932 3.14316 6.63682 3.25276 6.63682 3.36352V4.1817H5.81862C4.95065 4.1817 4.11821 4.5265 3.50446 5.14026C2.89071 5.75401 2.5459 6.58647 2.5459 7.4544V8.06804C2.5459 8.12229 2.56745 8.17435 2.60581 8.2127C2.64417 8.25106 2.6962 8.27258 2.75044 8.27258H25.2504C25.3047 8.27258 25.3567 8.25106 25.3951 8.2127C25.4334 8.17435 25.455 8.12229 25.455 8.06804V7.4544C25.455 6.58647 25.1102 5.75401 24.4964 5.14026C23.8826 4.5265 23.0503 4.1817 22.1823 4.1817Z" fill="#0B7AB2"/>
<path d="M25.3016 9.90869H2.69931C2.65862 9.90869 2.6196 9.92485 2.59083 9.95364C2.56206 9.98243 2.5459 10.0214 2.5459 10.0621V22.1814C2.5459 23.0494 2.89071 23.8819 3.50446 24.4956C4.11821 25.1094 4.95065 25.4541 5.81862 25.4541H22.1823C23.0503 25.4541 23.8826 25.1094 24.4964 24.4956C25.1102 23.8819 25.455 23.0494 25.455 22.1814V10.0621C25.455 10.0214 25.4388 9.98243 25.41 9.95364C25.3813 9.92485 25.3422 9.90869 25.3016 9.90869ZM12.3641 16.6295C12.3641 17.0171 12.2102 17.3887 11.9362 17.6626C11.6622 17.9366 11.2906 18.0905 10.9031 18.0905H7.2796C6.89214 18.0905 6.52053 17.9366 6.24654 17.6626C5.97255 17.3887 5.81862 17.0171 5.81862 16.6295V13.006C5.81862 12.6186 5.97255 12.247 6.24654 11.973C6.52053 11.699 6.89214 11.5451 7.2796 11.5451H10.9031C11.2906 11.5451 11.6622 11.699 11.9362 11.973C12.2102 12.247 12.3641 12.6186 12.3641 13.006V16.6295Z" fill="#0B7AB2"/>
</svg>
