<svg width="30" height="30" viewBox="0 0 30 30" fill="none" xmlns="http://www.w3.org/2000/svg">
<g clip-path="url(#clip0_21810_872)">
<path d="M28.4786 21.9531L22.9545 18.7089C22.3687 18.3645 21.6524 18.456 21.172 18.9364L18.8654 21.2429C18.4939 21.6144 17.9663 21.709 17.4887 21.4896C15.6384 20.6391 13.7688 19.3202 12.2244 17.7757C10.68 16.2313 9.36098 14.3617 8.51055 12.5115C8.29111 12.0337 8.38568 11.5061 8.75711 11.1346L11.0636 8.82809C11.5441 8.34762 11.6355 7.63125 11.2912 7.04567L8.04637 1.52068C7.7408 1.00342 7.18211 0.730489 6.58838 0.808595C3.78813 1.17598 1.90592 2.55404 1.14502 4.79391C0.39291 7.00805 0.755195 10.0755 2.16525 13.4313C3.46422 16.5227 5.57512 19.6617 7.95672 22.0433C10.3383 24.4249 13.4772 26.5358 16.5687 27.8348C18.7806 28.7641 20.8668 29.2383 22.6664 29.2383C23.5971 29.2383 24.4514 29.1114 25.2062 28.855C27.446 28.0941 28.8241 26.2119 29.1914 23.412C29.2698 22.817 28.9969 22.2581 28.4786 21.9532V21.9531Z" fill="#0B7AB2"/>
<path d="M28.4791 21.9533L22.9551 18.7091C22.3693 18.3646 21.6529 18.4561 21.1725 18.9365L19.5596 20.5494L28.5294 25.8188C28.851 25.1156 29.0739 24.3115 29.1919 23.412C29.2703 22.8171 28.9973 22.2582 28.4791 21.9533H28.4791Z" fill="#0B7AB2"/>
<path d="M26.8506 24.8326C26.1709 26.3188 25.0482 27.3526 23.5278 27.8691C22.773 28.1255 21.9187 28.2524 20.988 28.2524C19.1884 28.2524 17.1022 27.7783 14.8903 26.8488C14.142 26.5344 13.3909 26.172 12.6484 25.7701C13.9223 26.5779 15.2498 27.2804 16.5689 27.8346C18.7808 28.764 20.867 29.2382 22.6666 29.2382C23.5973 29.2382 24.4516 29.1112 25.2064 28.8549C26.7267 28.3384 27.8494 27.3046 28.529 25.8186L26.8506 24.8326Z" fill="#0B7AB2"/>
<path d="M26.8503 24.8326L28.5287 25.8187C28.8504 25.1154 29.0732 24.3113 29.1912 23.4119C29.2696 22.8169 28.9967 22.258 28.4784 21.9531L26.7998 20.9673C27.318 21.2721 27.5911 21.831 27.5125 22.426C27.3945 23.3253 27.1718 24.1293 26.8502 24.8325L26.8503 24.8326Z" fill="#0B7AB2"/>
<path d="M9.45066 10.4409L11.0635 8.82809C11.544 8.34762 11.6354 7.63125 11.2911 7.04567L8.04629 1.52068C7.74072 1.00342 7.18203 0.730489 6.5883 0.808595C5.68936 0.926544 4.88562 1.1492 4.18262 1.47053L9.4506 10.4409H9.45066Z" fill="#0B7AB2"/>
<path d="M27.0955 13.2542C29.9527 10.3952 29.9527 5.76183 27.0955 2.90462C24.2383 0.047417 19.6049 0.047417 16.746 2.90462C14.2765 5.37587 13.9411 9.17263 15.7435 12.0036L15.2668 14.7334L17.9965 14.2566C20.8274 16.0589 24.6242 15.7236 27.0955 13.2541V13.2542Z" fill="#0B7AB2"/>
<path d="M15.8648 11.3065C14.9329 9.84291 14.5741 8.12125 14.7845 6.45801C14.3613 8.32932 14.68 10.3346 15.7429 12.004L15.8648 11.3065H15.8648Z" fill="white"/>
<path d="M27.2171 12.5568C24.7459 15.0263 20.9491 15.3616 18.1181 13.5593L15.3884 14.0361L15.2666 14.7336L17.9963 14.2568C20.8273 16.0591 24.6241 15.7238 27.0953 13.2543C28.2907 12.0582 28.9856 10.5514 29.1807 8.99414C28.8872 10.2996 28.233 11.5404 27.2171 12.5568Z" fill="white"/>
<path d="M21.9213 3.54248L23.289 6.13777L26.1811 6.63664L24.1351 8.73969L24.5541 11.6431L21.9213 10.3471L19.2901 11.6431L19.709 8.73969L17.6631 6.63664L20.5535 6.13777L21.9213 3.54248Z" fill="white"/>
<path d="M23.2885 6.13797L21.9209 3.54297V10.3473L24.5535 11.6433L24.1346 8.73983L26.1805 6.63684L23.2885 6.13797Z" fill="white"/>
</g>
<defs>
<clipPath id="clip0_21810_872">
<rect width="30" height="30" fill="white"/>
</clipPath>
</defs>
</svg>
