<svg width="30" height="30" viewBox="0 0 30 30" fill="none" xmlns="http://www.w3.org/2000/svg">
<path d="M4.73751 14.2171C4.44036 13.92 4.44036 13.44 4.73751 13.1428L10.4899 7.39046C11.168 6.71236 12.2118 6.52951 13.0804 6.94092L17.6213 9.07429C17.9032 9.21143 18.2537 9.15046 18.4823 8.9219L24.1813 3.22287C24.4784 2.92571 24.9661 2.92571 25.2632 3.22287C25.5604 3.51997 25.5604 3.99998 25.2632 4.29713L19.5566 10.0038C18.8785 10.6819 17.8347 10.8647 16.9661 10.4533L12.4327 8.32001C12.1432 8.18283 11.7928 8.24379 11.5642 8.46473L5.81941 14.2171C5.66702 14.3695 5.47654 14.4381 5.27848 14.4381C5.08038 14.4381 4.8899 14.3695 4.73751 14.2171Z" fill="#727272"/>
<path d="M14.047 16.3886V25.8362C14.047 26.6819 13.3613 27.36 12.5232 27.36H10.9994C10.1613 27.36 9.47559 26.6819 9.47559 25.8362V16.3886C9.47559 15.5505 10.1613 14.8647 10.9994 14.8647H12.5232C13.3613 14.8647 14.047 15.5505 14.047 16.3886Z" fill="#727272"/>
<path d="M27.0001 11.0399V25.8361C27.0001 26.6818 26.3145 27.36 25.4763 27.36H23.9525C23.1144 27.36 22.4287 26.6818 22.4287 25.8361V11.0399C22.4287 10.2018 23.1144 9.51611 23.9525 9.51611H25.4763C26.3145 9.51611 27.0001 10.2018 27.0001 11.0399Z" fill="#727272"/>
<path d="M7.57143 23.1996V25.8358C7.57143 26.6815 6.88574 27.3596 6.04762 27.3596H4.52381C3.68573 27.3596 3 26.6815 3 25.8358V23.1996C3 22.3615 3.68573 21.6758 4.52381 21.6758H6.04762C6.88574 21.6758 7.57143 22.3615 7.57143 23.1996Z" fill="#727272"/>
<path d="M20.5246 19.0399V25.8361C20.5246 26.6818 19.8389 27.36 19.0007 27.36H17.4769C16.6389 27.36 15.9531 26.6818 15.9531 25.8361V19.0399C15.9531 18.2018 16.6389 17.5161 17.4769 17.5161H19.0007C19.8389 17.5161 20.5246 18.2018 20.5246 19.0399Z" fill="#727272"/>
</svg>
