<svg width="30" height="30" viewBox="0 0 30 30" fill="none" xmlns="http://www.w3.org/2000/svg">
<path fill-rule="evenodd" clip-rule="evenodd" d="M17.1374 4.17786C18.595 4.46411 19.9492 5.03779 21.1395 5.83683L23.2738 4.88895L25.1111 6.72616L24.1635 8.85973C24.9629 10.0501 25.5364 11.4049 25.8227 12.8627L28 13.7008V16.2991L25.8221 17.1375C25.5359 18.595 24.9622 19.9492 24.1632 21.1395L25.111 23.2738L23.2738 25.1111L21.1402 24.1634C19.9499 24.9628 18.595 25.5363 17.1373 25.8227L16.2992 28H13.7009L12.8626 25.8221C11.405 25.5359 10.0508 24.9622 8.86055 24.1632L6.72626 25.1111L4.88895 23.2738L5.83657 21.1402C5.03713 19.9499 4.4637 18.595 4.17735 17.1372L2 16.2991V13.7008L4.1777 12.8626C4.46396 11.4049 5.03753 10.0505 5.83673 8.86029L4.88895 6.72626L6.72621 4.889L8.86039 5.83688C10.0507 5.03784 11.405 4.46416 12.8625 4.17791L13.7009 2H16.2991L17.1374 4.17786ZM10.9742 14.832L11.4386 14.4946V18.7108C11.4386 19.3135 11.9317 19.8066 12.5344 19.8066H13.9378V16.1305C13.9378 15.847 14.1698 15.615 14.4533 15.615H15.5468C15.8303 15.615 16.0622 15.847 16.0622 16.1305V19.8066H17.4656C18.0684 19.8066 18.5615 19.3135 18.5615 18.7108V14.4946L19.0259 14.832C19.3686 15.0804 19.8478 15.0039 20.0962 14.6611C20.3445 14.3184 20.268 13.8392 19.9253 13.5909L15.463 10.3488C15.2012 10.1503 14.8303 10.1364 14.5504 10.3392L10.0749 13.5909C9.73216 13.8392 9.65568 14.3184 9.904 14.6611C10.1523 15.0039 10.6314 15.0804 10.9742 14.832ZM15 7.46843C10.8404 7.46843 7.46843 10.8405 7.46843 15C7.46843 19.1595 10.8405 22.5315 15 22.5315C19.1595 22.5315 22.5315 19.1595 22.5315 15C22.5316 10.8405 19.1595 7.46843 15 7.46843Z" fill="#727272"/>
</svg>
