<svg width="30" height="30" viewBox="0 0 30 30" fill="none" xmlns="http://www.w3.org/2000/svg">
<path d="M13.75 4.86816V9.86817C13.75 10.8627 13.3549 11.8166 12.6517 12.5198C11.9484 13.2231 10.9946 13.6182 10 13.6182H5C4.00544 13.6182 3.05161 13.2231 2.34835 12.5198C1.64509 11.8166 1.25 10.8627 1.25 9.86817V4.86816C1.25 3.8736 1.64509 2.91978 2.34835 2.21651C3.05161 1.51325 4.00544 1.11816 5 1.11816H10C10.9946 1.11816 11.9484 1.51325 12.6517 2.21651C13.3549 2.91978 13.75 3.8736 13.75 4.86816ZM25 1.11816H20C19.0054 1.11816 18.0516 1.51325 17.3484 2.21651C16.6451 2.91978 16.25 3.8736 16.25 4.86816V9.86817C16.25 10.8627 16.6451 11.8166 17.3484 12.5198C18.0516 13.2231 19.0054 13.6182 20 13.6182H25C25.9946 13.6182 26.9484 13.2231 27.6517 12.5198C28.3549 11.8166 28.75 10.8627 28.75 9.86817V4.86816C28.75 3.8736 28.3549 2.91978 27.6517 2.21651C26.9484 1.51325 25.9946 1.11816 25 1.11816ZM10 16.1182H5C4.00544 16.1182 3.05161 16.5133 2.34835 17.2165C1.64509 17.9198 1.25 18.8736 1.25 19.8682V24.8682C1.25 25.8627 1.64509 26.8166 2.34835 27.5198C3.05161 28.2231 4.00544 28.6182 5 28.6182H10C10.9946 28.6182 11.9484 28.2231 12.6517 27.5198C13.3549 26.8166 13.75 25.8627 13.75 24.8682V19.8682C13.75 18.8736 13.3549 17.9198 12.6517 17.2165C11.9484 16.5133 10.9946 16.1182 10 16.1182ZM25 16.1182H20C19.0054 16.1182 18.0516 16.5133 17.3484 17.2165C16.6451 17.9198 16.25 18.8736 16.25 19.8682V24.8682C16.25 25.8627 16.6451 26.8166 17.3484 27.5198C18.0516 28.2231 19.0054 28.6182 20 28.6182H25C25.9946 28.6182 26.9484 28.2231 27.6517 27.5198C28.3549 26.8166 28.75 25.8627 28.75 24.8682V19.8682C28.75 18.8736 28.3549 17.9198 27.6517 17.2165C26.9484 16.5133 25.9946 16.1182 25 16.1182Z" fill="#727272"/>
</svg>
