<svg width="30" height="30" viewBox="0 0 30 30" fill="none" xmlns="http://www.w3.org/2000/svg">
<path d="M24.2681 4.6875H21.5634V2.8125C21.5634 2.295 21.1434 1.875 20.6259 1.875C20.1084 1.875 19.6884 2.295 19.6884 2.8125V4.6875H10.3116V2.8125C10.3116 2.295 9.89156 1.875 9.37406 1.875C8.85656 1.875 8.43656 2.295 8.43656 2.8125V4.6875H5.73187C3.08812 4.6875 0.9375 6.83813 0.9375 9.48188V24.2672C0.9375 26.9109 3.08812 29.0616 5.73187 29.0616H24.2681C26.9119 29.0616 29.0625 26.9109 29.0625 24.2672V9.48188C29.0625 6.83813 26.9119 4.6875 24.2681 4.6875ZM5.73187 6.5625H8.43656V8.4375C8.43656 8.955 8.85656 9.375 9.37406 9.375C9.89156 9.375 10.3116 8.955 10.3116 8.4375V6.5625H19.6875V8.4375C19.6875 8.955 20.1075 9.375 20.625 9.375C21.1425 9.375 21.5625 8.955 21.5625 8.4375V6.5625H24.2672C25.8769 6.5625 27.1866 7.87219 27.1866 9.48188V11.8856H2.8125V9.48188C2.8125 7.87219 4.12219 6.5625 5.73187 6.5625ZM8.27719 21.8784C8.79469 21.8784 9.21469 22.2984 9.21469 22.8159C9.21469 23.3334 8.79469 23.7534 8.27719 23.7534C7.75969 23.7534 7.33969 23.3334 7.33969 22.8159C7.33969 22.2984 7.75969 21.8784 8.27719 21.8784ZM7.33969 15.6197C7.33969 15.1022 7.75969 14.6822 8.27719 14.6822C8.79469 14.6822 9.21469 15.1022 9.21469 15.6197C9.21469 16.1372 8.79469 16.5572 8.27719 16.5572C7.75969 16.5572 7.33969 16.1372 7.33969 15.6197ZM15.0459 21.8784C15.5634 21.8784 15.9834 22.2984 15.9834 22.8159C15.9834 23.3334 15.5634 23.7534 15.0459 23.7534C14.5284 23.7534 14.1084 23.3334 14.1084 22.8159C14.1084 22.2984 14.5284 21.8784 15.0459 21.8784ZM14.1084 15.6197C14.1084 15.1022 14.5284 14.6822 15.0459 14.6822C15.5634 14.6822 15.9834 15.1022 15.9834 15.6197C15.9834 16.1372 15.5634 16.5572 15.0459 16.5572C14.5284 16.5572 14.1084 16.1372 14.1084 15.6197ZM21.5625 19.5347C23.3719 19.5347 24.8438 21.0066 24.8438 22.8159C24.8438 24.6253 23.3719 26.0972 21.5625 26.0972C19.7531 26.0972 18.2812 24.6253 18.2812 22.8159C18.2812 21.0066 19.7531 19.5347 21.5625 19.5347ZM20.625 15.6197C20.625 15.1022 21.045 14.6822 21.5625 14.6822C22.08 14.6822 22.5 15.1022 22.5 15.6197C22.5 16.1372 22.08 16.5572 21.5625 16.5572C21.045 16.5572 20.625 16.1372 20.625 15.6197Z" fill="#727272"/>
<path d="M21.5625 24.2222C22.3392 24.2222 22.9688 23.5926 22.9688 22.8159C22.9688 22.0393 22.3392 21.4097 21.5625 21.4097C20.7858 21.4097 20.1562 22.0393 20.1562 22.8159C20.1562 23.5926 20.7858 24.2222 21.5625 24.2222Z" fill="#727272"/>
</svg>
