<svg width="22" height="26" viewBox="0 0 22 26" fill="none" xmlns="http://www.w3.org/2000/svg">
<path fill-rule="evenodd" clip-rule="evenodd" d="M16.875 12.3325C17.22 11.735 17.985 11.53 18.5825 11.875C19.2437 12.2563 20.0862 12.7437 20.7475 13.125C21.345 13.47 21.55 14.235 21.205 14.8325C19.9187 17.0612 17.0363 22.0525 16.3525 23.2375C16.2563 23.405 16.1212 23.5487 15.9587 23.655C15.5162 23.9475 14.545 24.5888 13.6263 25.195C13.2313 25.4563 12.7225 25.4713 12.3125 25.235C11.9025 24.9975 11.6612 24.55 11.69 24.0775C11.7562 22.9775 11.825 21.8175 11.8575 21.2875C11.8687 21.0937 11.925 20.905 12.0225 20.7375C12.7063 19.5525 15.5887 14.5612 16.875 12.3325ZM9.28501 25C9.20376 24.6537 9.17251 24.2925 9.19376 23.9275C9.26001 22.8287 9.33002 21.6675 9.36127 21.1375C9.39627 20.5563 9.56623 19.9912 9.85748 19.4875L14.71 11.0825C15.745 9.28875 18.0387 8.67501 19.8325 9.71001L20 9.80625V3.75C20 1.67875 18.3212 0 16.25 0H3.75C2.755 0 1.80125 0.394997 1.09875 1.09875C0.394997 1.80125 0 2.755 0 3.75V21.25C0 22.245 0.394997 23.1988 1.09875 23.9013C1.80125 24.605 2.755 25 3.75 25H9.28501ZM5 17.5H7.71873C8.40873 17.5 8.96873 16.94 8.96873 16.25C8.96873 15.56 8.40873 15 7.71873 15H5C4.31 15 3.75 15.56 3.75 16.25C3.75 16.94 4.31 17.5 5 17.5ZM5 12.5H10.4375C11.1275 12.5 11.6875 11.94 11.6875 11.25C11.6875 10.56 11.1275 10 10.4375 10H5C4.31 10 3.75 10.56 3.75 11.25C3.75 11.94 4.31 12.5 5 12.5ZM5 7.5H12.5C13.19 7.5 13.75 6.94 13.75 6.25C13.75 5.56 13.19 5 12.5 5H5C4.31 5 3.75 5.56 3.75 6.25C3.75 6.94 4.31 7.5 5 7.5Z" fill="#727272"/>
</svg>
