<svg width="30" height="30" viewBox="0 0 30 30" fill="none" xmlns="http://www.w3.org/2000/svg">
<path fill-rule="evenodd" clip-rule="evenodd" d="M23.5079 25.7439C23.5079 30.4422 6.49352 30.4422 6.49352 25.7439C6.49352 21.0458 10.3028 17.2371 15.001 17.2371C19.6992 17.2371 23.5079 21.0458 23.5079 25.7439ZM1.86813 5.08729C3.23676 5.42859 4.31412 6.50602 4.65543 7.87465C4.66861 7.92756 4.71467 7.96354 4.76916 7.96354C4.82365 7.96348 4.86959 7.92756 4.88277 7.87471C5.22408 6.50602 6.30145 5.42859 7.67014 5.08734C7.72299 5.07416 7.75902 5.02816 7.75897 4.97361C7.75891 4.91912 7.72299 4.87318 7.67014 4.86C6.30145 4.51869 5.22402 3.44127 4.88271 2.07252C4.86953 2.01967 4.82353 1.98369 4.7691 1.98369C4.71461 1.98369 4.66867 2.01967 4.65549 2.07252C4.31424 3.44121 3.23682 4.51863 1.86813 4.85994C1.81527 4.87313 1.7793 4.91912 1.7793 4.97361C1.7793 5.02811 1.81527 5.0741 1.86813 5.08729ZM4.76916 19.8988C3.93531 19.8988 3.2592 19.2227 3.2592 18.3889C3.2592 17.555 3.93531 16.8789 4.76916 16.8789C5.60301 16.8789 6.27912 17.555 6.27912 18.3889C6.27906 19.2227 5.60301 19.8988 4.76916 19.8988ZM25.2321 0.732422C26.066 0.732422 26.7421 1.40854 26.7421 2.24238C26.7421 3.07623 26.066 3.75234 25.2321 3.75234C24.3983 3.75234 23.7222 3.07623 23.7222 2.24238C23.7222 1.40854 24.3984 0.732422 25.2321 0.732422ZM22.3312 15.7713C23.6999 16.1126 24.7772 17.1901 25.1185 18.5587C25.1317 18.6115 25.1777 18.6476 25.2323 18.6475C25.2868 18.6475 25.3327 18.6115 25.3459 18.5587C25.6872 17.19 26.7645 16.1126 28.1332 15.7713C28.1862 15.7581 28.2221 15.7121 28.2221 15.6576C28.2221 15.6031 28.1862 15.5572 28.1333 15.544C26.7646 15.2027 25.6872 14.1253 25.3459 12.7565C25.3327 12.7037 25.2867 12.6677 25.2323 12.6677C25.1778 12.6677 25.1318 12.7037 25.1187 12.7565C24.7774 14.1252 23.7 15.2026 22.3313 15.5439C22.2785 15.5571 22.2425 15.6031 22.2425 15.6576C22.2424 15.7122 22.2784 15.7581 22.3312 15.7713ZM11.069 11.0393C11.069 13.2109 12.8293 14.9712 15.0009 14.9712C17.1725 14.9712 18.9328 13.2109 18.9328 11.0393C18.9328 8.86834 17.1725 7.10801 15.0009 7.10801C12.8294 7.10801 11.069 8.86834 11.069 11.0393Z" fill="#727272"/>
</svg>
