<svg width="28" height="28" viewBox="0 0 28 28" fill="none" xmlns="http://www.w3.org/2000/svg">
<path d="M14.0003 1.8667C8.85382 1.8667 4.66699 6.05353 4.66699 11.2C4.66699 14.0947 6.16445 17.4566 9.11822 21.1922C11.2797 23.9256 13.41 25.8151 13.4994 25.8941C13.7837 26.1447 14.213 26.1481 14.5012 25.8941C14.5906 25.8151 16.7209 23.9256 18.8824 21.1922C21.8362 17.4566 23.3337 14.0947 23.3337 11.2C23.3337 6.05353 19.1468 1.8667 14.0003 1.8667ZM10.1077 16.0183C8.61402 14.8269 7.75698 13.0475 7.75698 11.1371C7.75698 7.6943 10.5575 4.89378 14.0003 4.89378C17.4432 4.89378 20.2437 7.6943 20.2437 11.1371C20.2437 13.0489 19.387 14.869 17.7889 16.0996C15.5159 17.8372 12.3411 17.8009 10.1077 16.0183Z" fill="white"/>
<path d="M14.0004 11.326C14.6273 11.326 15.1355 10.8177 15.1355 10.1908C15.1355 9.56389 14.6273 9.05566 14.0004 9.05566C13.3735 9.05566 12.8652 9.56389 12.8652 10.1908C12.8652 10.8177 13.3735 11.326 14.0004 11.326Z" fill="white"/>
<path d="M11.7454 12.006C11.8554 11.9334 11.8813 11.784 11.8068 11.6752C10.6362 9.9644 11.8461 7.54236 14.0003 7.54236C16.1567 7.54236 17.3633 9.96568 16.1938 11.6752C16.1194 11.7841 16.1451 11.9335 16.2553 12.0061C16.8535 12.4006 17.3256 12.9404 17.6411 13.5605C17.7251 13.7255 17.958 13.7366 18.0537 13.5781C18.5087 12.8242 18.7478 11.9492 18.7291 11.0379C18.6752 8.40825 16.5171 6.34681 13.8877 6.40858C11.3315 6.46855 9.27051 8.56665 9.27051 11.137C9.27051 12.0119 9.50809 12.8506 9.94588 13.5765C10.0419 13.7358 10.2752 13.726 10.3595 13.5602C10.6745 12.9415 11.146 12.4013 11.7454 12.006Z" fill="white"/>
<path d="M16.4233 15.1996C16.5111 15.1469 16.5549 15.0433 16.5319 14.9435L16.5068 14.8344C16.2358 13.66 15.2052 12.8398 14 12.8398C12.7949 12.8398 11.7642 13.66 11.4932 14.8344L11.468 14.9442C11.4451 15.0436 11.4883 15.1468 11.5755 15.1996C13.0048 16.0658 14.9064 16.1124 16.4233 15.1996Z" fill="white"/>
</svg>
