<svg width="30" height="30" viewBox="0 0 30 30" fill="none" xmlns="http://www.w3.org/2000/svg">
<path d="M15 2C9.48589 2 5 6.48589 5 12C5 15.1014 6.60442 18.7035 9.76917 22.7059C12.0851 25.6345 14.3676 27.659 14.4633 27.7437C14.768 28.0121 15.2278 28.0158 15.5367 27.7437C15.6324 27.659 17.9149 25.6345 20.2308 22.7059C23.3956 18.7035 25 15.1014 25 12C25 6.48589 20.5141 2 15 2ZM10.8293 17.1624C9.22896 15.8859 8.3107 13.9794 8.3107 11.9326C8.3107 8.24386 11.3113 5.2433 15 5.2433C18.6887 5.2433 21.6893 8.24386 21.6893 11.9326C21.6893 13.9809 20.7714 15.931 19.0592 17.2496C16.6238 19.1112 13.2222 19.0723 10.8293 17.1624Z" fill="#727272"/>
<path d="M15.0004 12.1351C15.6721 12.1351 16.2167 11.5906 16.2167 10.9189C16.2167 10.2472 15.6721 9.70264 15.0004 9.70264C14.3287 9.70264 13.7842 10.2472 13.7842 10.9189C13.7842 11.5906 14.3287 12.1351 15.0004 12.1351Z" fill="#727272"/>
<path d="M12.5843 12.8635C12.7022 12.7857 12.7299 12.6256 12.65 12.509C11.3959 10.676 12.6922 8.08096 15.0003 8.08096C17.3107 8.08096 18.6035 10.6774 17.3504 12.509C17.2707 12.6256 17.2983 12.7857 17.4163 12.8635C18.0573 13.2863 18.5631 13.8646 18.9011 14.5289C18.9911 14.7058 19.2407 14.7177 19.3432 14.5478C19.8307 13.7401 20.0868 12.8025 20.0668 11.8262C20.0091 9.0087 17.6969 6.80001 14.8796 6.8662C12.1408 6.93045 9.93262 9.17841 9.93262 11.9324C9.93262 12.8697 10.1872 13.7684 10.6562 14.5461C10.7592 14.7168 11.0091 14.7063 11.0994 14.5287C11.4369 13.8657 11.9421 13.287 12.5843 12.8635Z" fill="#727272"/>
<path d="M17.5961 16.2852C17.6901 16.2286 17.7371 16.1177 17.7124 16.0107L17.6855 15.8939C17.3952 14.6356 16.2909 13.7568 14.9997 13.7568C13.7084 13.7568 12.6042 14.6356 12.3138 15.8939L12.2868 16.0115C12.2623 16.118 12.3085 16.2286 12.4019 16.2852C13.9334 17.2132 15.9708 17.2631 17.5961 16.2852Z" fill="#727272"/>
</svg>
