<svg width="28" height="28" viewBox="0 0 28 28" fill="none" xmlns="http://www.w3.org/2000/svg">
<path fill-rule="evenodd" clip-rule="evenodd" d="M21.9401 24.0277C21.9401 28.4127 6.06009 28.4127 6.06009 24.0277C6.06009 19.6428 9.61538 16.0879 14.0004 16.0879C18.3854 16.0879 21.9401 19.6427 21.9401 24.0277ZM1.74306 4.74813C3.02045 5.06669 4.02599 6.07228 4.34455 7.34967C4.35685 7.39905 4.39984 7.43263 4.4507 7.43263C4.50155 7.43258 4.54443 7.39906 4.55673 7.34973C4.87529 6.07228 5.88083 5.06669 7.15827 4.74819C7.2076 4.73588 7.24123 4.69295 7.24118 4.64204C7.24113 4.59118 7.2076 4.5483 7.15827 4.536C5.88083 4.21745 4.87523 3.21185 4.55668 1.93435C4.54437 1.88502 4.50145 1.85145 4.45064 1.85145C4.39978 1.85145 4.35691 1.88502 4.3446 1.93435C4.0261 3.2118 3.02051 4.21739 1.74306 4.53595C1.69373 4.54825 1.66016 4.59118 1.66016 4.64204C1.66016 4.6929 1.69373 4.73583 1.74306 4.74813ZM4.4507 18.5723C3.67244 18.5723 3.0414 17.9412 3.0414 17.163C3.0414 16.3847 3.67244 15.7537 4.4507 15.7537C5.22895 15.7537 5.85999 16.3847 5.85999 17.163C5.85994 17.9412 5.22895 18.5723 4.4507 18.5723ZM23.5495 0.683594C24.3277 0.683594 24.9588 1.31463 24.9588 2.09289C24.9588 2.87115 24.3277 3.50219 23.5495 3.50219C22.7712 3.50219 22.1402 2.87115 22.1402 2.09289C22.1402 1.31463 22.7713 0.683594 23.5495 0.683594ZM20.842 14.7199C22.1194 15.0385 23.1249 16.0441 23.4434 17.3214C23.4557 17.3708 23.4987 17.4044 23.5496 17.4044C23.6005 17.4044 23.6433 17.3708 23.6556 17.3214C23.9742 16.044 24.9797 15.0384 26.2572 14.7199C26.3066 14.7076 26.3401 14.6646 26.3401 14.6138C26.3401 14.5629 26.3066 14.52 26.2572 14.5077C24.9798 14.1892 23.9742 13.1836 23.6556 11.9061C23.6433 11.8567 23.6004 11.8232 23.5496 11.8232C23.4987 11.8232 23.4559 11.8567 23.4436 11.9061C23.1251 13.1835 22.1195 14.1891 20.8421 14.5077C20.7927 14.52 20.7592 14.5629 20.7592 14.6138C20.7591 14.6647 20.7926 14.7076 20.842 14.7199ZM10.3306 10.3033C10.3306 12.3302 11.9735 13.9731 14.0003 13.9731C16.0272 13.9731 17.6701 12.3302 17.6701 10.3033C17.6701 8.27712 16.0272 6.63414 14.0003 6.63414C11.9736 6.63414 10.3306 8.27712 10.3306 10.3033Z" fill="white"/>
</svg>
