<svg width="18" height="18" viewBox="0 0 18 18" fill="none" xmlns="http://www.w3.org/2000/svg">
<path fill-rule="evenodd" clip-rule="evenodd" d="M6.29997 12.5996C7.56821 12.5996 8.7487 12.2246 9.7372 11.5796C9.96257 11.4326 10.2521 11.4629 10.4422 11.6531L12.2178 13.4287C12.2621 13.3578 12.3153 13.2903 12.3768 13.2288L13.2292 12.3764C13.2907 12.3146 13.3582 12.2617 13.4291 12.2174L11.6534 10.4418C11.4633 10.2517 11.4333 9.96182 11.5799 9.73682C12.2249 8.74833 12.5996 7.56784 12.5996 6.29959C12.5996 5.60097 12.4859 4.92935 12.2759 4.3016L11.0756 5.11647C11.1693 5.4956 11.2188 5.89197 11.2188 6.29997C11.2188 9.01645 9.01645 11.2192 6.29959 11.2192C3.58273 11.2192 1.38074 9.01645 1.38074 6.29997C1.38074 3.58348 3.58311 1.38074 6.29997 1.38074C8.19783 1.38074 9.91757 2.46899 10.7358 4.17073L11.8882 3.38886C10.8371 1.37512 8.7292 0 6.30034 0C2.82036 0 0 2.82036 0 6.29997C0 9.77957 2.82036 12.5999 6.29997 12.5999V12.5996ZM17.6054 17.6054C17.0793 18.1315 16.2187 18.1315 15.6925 17.6054L12.6419 14.5548C12.3498 14.2627 12.3498 13.7864 12.6419 13.4943L13.4943 12.6419C13.7864 12.3498 14.2631 12.3498 14.5548 12.6419L17.6054 15.6925C18.1315 16.2187 18.1315 17.0793 17.6054 17.6054ZM1.76774 6.63184L1.75687 6.19309L3.55161 7.23446C3.67236 7.11896 3.83623 7.04809 4.01623 7.04809C4.10398 7.04809 4.18798 7.06496 4.26485 7.09571L5.65835 5.30435C5.57772 5.19335 5.53047 5.05722 5.53047 4.90985C5.53047 4.5386 5.83159 4.23748 6.20284 4.23748C6.59509 4.23748 6.90409 4.5716 6.87296 4.96347L8.43296 5.55372C8.55558 5.39022 8.75095 5.28485 8.97108 5.28485C9.13458 5.28485 9.2842 5.34297 9.40083 5.4401L12.8666 3.08773C12.8452 3.02211 12.8336 2.95198 12.8336 2.87923C12.8336 2.50799 13.1347 2.20686 13.5059 2.20686C13.8772 2.20686 14.1783 2.50799 14.1783 2.87923C14.1783 3.25048 13.8772 3.55161 13.5059 3.55161C13.3424 3.55161 13.1928 3.49348 13.0762 3.39636L9.61045 5.74872C9.63182 5.81434 9.64345 5.88447 9.64345 5.95722C9.64345 6.32847 9.34233 6.62959 8.97108 6.62959C8.57883 6.62959 8.26983 6.29547 8.30096 5.90359L6.74096 5.31335C6.61834 5.47685 6.42297 5.58222 6.20284 5.58222C6.11509 5.58222 6.03109 5.56535 5.95422 5.5346L4.56073 7.32596C4.64135 7.43696 4.6886 7.57309 4.6886 7.72046C4.6886 8.09171 4.38748 8.39283 4.01623 8.39283C3.64498 8.39283 3.34386 8.09171 3.34386 7.72046C3.34386 7.66459 3.35061 7.61021 3.36373 7.55809L1.76774 6.63222V6.63184Z" fill="#0B7AB2"/>
</svg>
