<svg width="28" height="28" viewBox="0 0 28 28" fill="none" xmlns="http://www.w3.org/2000/svg">
<path d="M13.9998 2.7998C7.8118 2.7998 2.7998 7.8118 2.7998 13.9998C2.7998 16.4638 3.5838 18.7318 4.9278 20.5798L3.3878 24.6398L7.8398 23.3518C9.6038 24.5278 11.7318 25.1998 13.9998 25.1998C20.1878 25.1998 25.1998 20.1878 25.1998 13.9998C25.1998 7.8118 20.1878 2.7998 13.9998 2.7998ZM19.9638 18.6478L18.7598 19.8238C17.4998 21.0838 14.1678 19.7118 11.2278 16.7438C8.2878 13.8038 6.9718 10.4718 8.1478 9.2398L9.3518 8.0358C9.7998 7.5878 10.5558 7.5878 11.0318 8.0358L12.7958 9.7998C13.4118 10.4158 13.1598 11.4798 12.3478 11.7318C11.7878 11.9278 11.3958 12.5438 11.5918 13.1038C11.8998 14.4198 13.6078 16.0438 14.8678 16.3518C15.4278 16.4918 16.0718 16.1558 16.2398 15.5958C16.4918 14.7838 17.5558 14.5318 18.1718 15.1478L19.9358 16.9118C20.3838 17.3878 20.3838 18.1438 19.9638 18.6478Z" fill="#0B7AB2"/>
</svg>
