<svg width="16" height="16" viewBox="0 0 16 16" fill="none" xmlns="http://www.w3.org/2000/svg">
<g clip-path="url(#clip0_22926_10333)">
<path d="M5.37503 14.3533H6.99453V11.1509H6.26694C5.99056 11.1509 5.75219 10.9659 5.68362 10.6982C5.62162 10.456 5.7145 10.2066 5.91212 10.0629V8.86375L6.58594 8.75984V9.6875L7.26841 9.31356V8.65316L8.02766 8.53587V8.89759L8.56478 8.60331V0.382812L5.37503 1.74634V14.3533ZM8.02769 7.71372L7.26844 7.85663V6.47422L8.02769 6.28688V7.71372ZM8.02769 5.46475L7.26844 5.67772V4.29425L8.02769 4.03678V5.46475ZM8.02769 1.87725V3.21578L7.26844 3.49881L7.26822 2.20309L8.02769 1.87725ZM5.91216 2.78419L6.58637 2.49519L6.58616 3.75344L5.91212 4.00341L5.91216 2.78419ZM5.91216 4.75419L6.58619 4.52591V5.87047L5.91216 6.05928V4.75422V4.75419ZM5.91216 6.80797L6.58619 6.64184V7.98641L5.91216 8.11306V6.808V6.80797ZM12.317 1.8265V8.42728L11.0671 7.74247C10.7718 7.58066 10.4312 7.58066 10.1359 7.74247L8.93978 8.39784V0.382812L12.317 1.8265ZM1.86037 5.56966V14.3533H5.00003V4.22753L1.86037 5.56966ZM3.20159 12.2128H2.6535V11.1612L3.20172 11.1077L3.20159 12.2128ZM3.20191 10.4789L2.6535 10.554V9.49834L3.20191 9.38569V10.4789ZM3.20191 8.75822L2.6535 8.89309V7.83744L3.20191 7.66503V8.75822ZM3.20209 7.03691L2.65353 7.23088V6.24494L3.20228 6.01381L3.20209 7.03691ZM4.39447 12.2128H3.76287V11.0526L4.39447 10.9908V12.2128ZM4.39447 10.3142L3.76287 10.4013V9.27075L4.39447 9.14041V10.3142ZM4.39447 8.46378L3.76287 8.61937V7.48816L4.39447 7.28856V8.46378ZM4.39447 6.61263L3.76269 6.8375V5.77813L4.39447 5.51041V6.61263ZM15.0453 10.3497L10.887 8.07134C10.7039 7.97103 10.4993 7.97103 10.3162 8.07134L6.15784 10.3497C6.06566 10.4002 6.02087 10.5033 6.04697 10.6052C6.07303 10.707 6.16187 10.776 6.267 10.776H7.36959V14.3533H8.21262V12.1218H7.97844C7.87487 12.1218 7.79094 12.0379 7.79094 11.9343C7.79094 11.8307 7.87487 11.7468 7.97844 11.7468H10.0595C10.1631 11.7468 10.247 11.8307 10.247 11.9343C10.247 12.0379 10.1631 12.1218 10.0595 12.1218H9.82534V14.3533H13.8336V10.776H14.9362C15.0413 10.776 15.1301 10.707 15.1562 10.6052C15.1822 10.5033 15.1375 10.4002 15.0453 10.3497ZM10.0146 9.56169C10.0146 9.2375 10.2774 8.97469 10.6016 8.97469C10.9257 8.97469 11.1886 9.2375 11.1886 9.56169C11.1886 9.88587 10.9257 10.1487 10.6016 10.1487C10.2774 10.1487 10.0146 9.88587 10.0146 9.56169ZM11.7888 11.6828H10.9622V10.776H11.7888V11.6828ZM12.9905 11.6828H12.1638V10.776H12.9905V11.6828ZM0.835938 15.3806V14.9629C0.835938 14.8339 0.9415 14.7283 1.0705 14.7283H14.6472C14.7762 14.7283 14.8817 14.8339 14.8817 14.9629V15.3806C14.8817 15.5096 14.7762 15.6152 14.6472 15.6152H1.0705C0.9415 15.6152 0.835938 15.5096 0.835938 15.3806Z" fill="#005D8C"/>
</g>
<defs>
<clipPath id="clip0_22926_10333">
<rect width="16" height="16" fill="white"/>
</clipPath>
</defs>
</svg>
