<svg width="16" height="16" viewBox="0 0 16 16" fill="none" xmlns="http://www.w3.org/2000/svg">
<path d="M9.69544 8.70103C8.83463 8.6991 8.00955 8.35666 7.40035 7.74849C7.42535 7.84599 7.45535 7.94349 7.49035 8.04099L3.95022 11.5811C3.90478 11.6262 3.87876 11.6872 3.87771 11.7512L3.84771 13.0462C3.84703 13.08 3.85314 13.1136 3.86568 13.145C3.87822 13.1764 3.89694 13.2049 3.92073 13.2289C3.94451 13.2529 3.97287 13.2719 4.00414 13.2848C4.0354 13.2976 4.06892 13.3041 4.10272 13.3037L5.39777 13.2737C5.53523 13.297 5.82198 12.926 5.94781 12.8212C6.06921 12.7344 6.00578 12.3157 6.0203 12.1337H6.53033C6.56319 12.1338 6.59575 12.1274 6.62613 12.1149C6.65651 12.1023 6.68412 12.0839 6.70735 12.0607C6.73059 12.0375 6.749 12.0099 6.76152 11.9795C6.77405 11.9491 6.78044 11.9165 6.78033 11.8837V11.6286H7.03532C7.10157 11.6284 7.16504 11.602 7.21188 11.5552C7.25872 11.5084 7.28513 11.4449 7.28532 11.3786V10.8711C7.49141 10.8559 7.87975 10.9221 7.97035 10.7961L9.11039 9.65859C9.57116 9.83033 10.0695 9.87552 10.5537 9.78946C11.0378 9.70341 11.4901 9.48924 11.8634 9.16922C12.2368 8.84921 12.5176 8.43503 12.6767 7.96974C12.8358 7.50445 12.8673 7.00505 12.7681 6.52344C12.5441 7.15966 12.1283 7.71075 11.578 8.10076C11.0277 8.49077 10.3699 8.70049 9.69544 8.70103Z" fill="#005D8C"/>
<path d="M12.6524 4.36038C12.5116 4.36038 12.3706 4.36767 12.231 4.37877C12.0235 3.88611 11.677 3.46456 11.2339 3.16564C10.7907 2.86672 10.2701 2.70339 9.73556 2.6956C9.20107 2.68782 8.67588 2.83592 8.2242 3.1218C7.77252 3.40768 7.41391 3.81896 7.1922 4.30537H2.1845C2.12019 4.30592 2.05851 4.33095 2.012 4.37537L1.07697 5.26792C1.05262 5.29141 1.03326 5.31957 1.02004 5.35071C1.00681 5.38185 1 5.41533 1 5.44917C1 5.483 1.00681 5.51648 1.02004 5.54762C1.03326 5.57876 1.05262 5.60692 1.07697 5.63042L2.012 6.52546C2.05875 6.56918 2.12048 6.59334 2.1845 6.59296H2.72201C2.78842 6.59315 2.85222 6.56709 2.89951 6.52046L3.25702 6.16046L3.61704 6.52046C3.66424 6.56729 3.72804 6.59358 3.79454 6.59358C3.86103 6.59358 3.92484 6.56729 3.97204 6.52046L4.15205 6.34046L4.33205 6.52046C4.37925 6.5673 4.44306 6.59358 4.50955 6.59358C4.57605 6.59358 4.63985 6.5673 4.68705 6.52046L5.04707 6.16046C5.20825 6.29981 5.42944 6.61407 5.58209 6.59296H7.19216C7.45602 7.17138 7.91198 7.64062 8.48259 7.92097C9.05321 8.20132 9.70328 8.27549 10.3224 8.13087C10.9415 7.98626 11.4914 7.63178 11.8788 7.12766C12.2662 6.62354 12.4671 6.00086 12.4474 5.3654C12.1435 5.37397 11.8416 5.41674 11.5473 5.4929C11.4647 6.77136 9.59064 6.7329 9.55976 5.45037C9.56045 5.18668 9.66551 4.934 9.85196 4.74755C10.0384 4.5611 10.2911 4.45605 10.5548 4.45537C10.7464 4.45549 10.9338 4.51154 11.0941 4.61664C10.6241 4.79942 10.3048 5.07856 10.3048 5.45039C10.3048 5.5167 10.3311 5.58029 10.378 5.62718C10.4249 5.67406 10.4885 5.7004 10.5548 5.7004C10.6211 5.7004 10.6847 5.67406 10.7316 5.62718C10.7785 5.58029 10.8048 5.5167 10.8048 5.45039C10.8048 5.28883 11.2377 5.00212 12.0381 4.89997C12.242 4.87629 12.4471 4.86308 12.6524 4.86037C13.8474 4.86037 14.4999 5.25039 14.4999 5.45039C14.4999 5.62039 14.0249 5.93039 13.1424 6.01542C13.1983 6.17412 13.2409 6.33718 13.2699 6.50294C14.2 6.39545 15 6.03793 15 5.45042C15 4.73539 13.8175 4.36038 12.6524 4.36038Z" fill="#005D8C"/>
</svg>
