<svg width="28" height="28" viewBox="0 0 28 28" fill="none" xmlns="http://www.w3.org/2000/svg">
<path d="M25.375 21H22.75V18.375C22.75 18.1429 22.6578 17.9204 22.4937 17.7563C22.3296 17.5922 22.1071 17.5 21.875 17.5C21.6429 17.5 21.4204 17.5922 21.2563 17.7563C21.0922 17.9204 21 18.1429 21 18.375V21H18.375C18.1429 21 17.9204 21.0922 17.7563 21.2563C17.5922 21.4204 17.5 21.6429 17.5 21.875C17.5 22.1071 17.5922 22.3296 17.7563 22.4937C17.9204 22.6578 18.1429 22.75 18.375 22.75H21V25.375C21 25.6071 21.0922 25.8296 21.2563 25.9937C21.4204 26.1578 21.6429 26.25 21.875 26.25C22.1071 26.25 22.3296 26.1578 22.4937 25.9937C22.6578 25.8296 22.75 25.6071 22.75 25.375V22.75H25.375C25.6071 22.75 25.8296 22.6578 25.9937 22.4937C26.1578 22.3296 26.25 22.1071 26.25 21.875C26.25 21.6429 26.1578 21.4204 25.9937 21.2563C25.8296 21.0922 25.6071 21 25.375 21Z" fill="white"/>
<path d="M11.8711 14C15.2538 14 17.9961 11.2577 17.9961 7.875C17.9961 4.49226 15.2538 1.75 11.8711 1.75C8.48835 1.75 5.74609 4.49226 5.74609 7.875C5.74609 11.2577 8.48835 14 11.8711 14Z" fill="white"/>
<path d="M19.2502 24.5001H18.3752C17.679 24.5001 17.0113 24.2235 16.519 23.7312C16.0267 23.2389 15.7502 22.5713 15.7502 21.8751C15.7502 21.1789 16.0267 20.5112 16.519 20.0189C17.0113 19.5266 17.679 19.2501 18.3752 19.2501H19.2502V18.3751C19.2508 18.1718 19.2743 17.9693 19.3202 17.7713C17.8888 16.5603 16.1831 15.7175 14.3515 15.3165C12.52 14.9154 10.6181 14.9682 8.81167 15.4703C7.0052 15.9724 5.34888 16.9085 3.98695 18.1972C2.62503 19.4858 1.5988 21.0879 0.997651 22.8638C0.8733 23.2483 0.842568 23.6569 0.908012 24.0557C0.973455 24.4544 1.13318 24.8318 1.3739 25.1563C1.61947 25.495 1.94176 25.7706 2.31438 25.9607C2.68699 26.1509 3.09934 26.25 3.51765 26.2501H19.4077C19.3017 25.9706 19.2483 25.674 19.2502 25.3751V24.5001Z" fill="white"/>
</svg>
