<svg width="28" height="28" viewBox="0 0 28 28" fill="none" xmlns="http://www.w3.org/2000/svg">
<path fill-rule="evenodd" clip-rule="evenodd" d="M5.25 0C3.80026 0 2.625 1.17526 2.625 2.625V25.375C2.625 26.8248 3.80025 28 5.25 28H22.75C24.1998 28 25.375 26.8248 25.375 25.375V2.625C25.375 1.17526 24.1998 0 22.75 0H5.25ZM11.0762 3.71649C11.4398 4.03472 11.4768 4.58751 11.1585 4.95119L8.09601 8.45119C7.92985 8.64108 7.68982 8.75 7.4375 8.75C7.18518 8.75 6.94515 8.64108 6.77899 8.45119L5.46649 6.95119C5.14827 6.58751 5.18513 6.03472 5.54881 5.7165C5.91249 5.39828 6.46528 5.43512 6.78351 5.79881L7.4375 6.54623L9.84148 3.79881C10.1597 3.43513 10.7125 3.39827 11.0762 3.71649ZM14 4.375C13.5167 4.375 13.125 4.76676 13.125 5.25C13.125 5.73324 13.5167 6.125 14 6.125H17.5C17.9833 6.125 18.375 5.73324 18.375 5.25C18.375 4.76676 17.9833 4.375 17.5 4.375H14ZM13.125 12.25C13.125 11.7667 13.5167 11.375 14 11.375H17.5C17.9833 11.375 18.375 11.7667 18.375 12.25C18.375 12.7333 17.9833 13.125 17.5 13.125H14C13.5167 13.125 13.125 12.7333 13.125 12.25ZM14 19.25C13.5167 19.25 13.125 19.6417 13.125 20.125C13.125 20.6083 13.5167 21 14 21H17.5C17.9833 21 18.375 20.6083 18.375 20.125C18.375 19.6417 17.9833 19.25 17.5 19.25H14ZM13.125 14.875C13.125 14.3917 13.5167 14 14 14H21C21.4833 14 21.875 14.3917 21.875 14.875C21.875 15.3583 21.4833 15.75 21 15.75H14C13.5167 15.75 13.125 15.3583 13.125 14.875ZM14 21.875C13.5167 21.875 13.125 22.2667 13.125 22.75C13.125 23.2333 13.5167 23.625 14 23.625H21C21.4833 23.625 21.875 23.2333 21.875 22.75C21.875 22.2667 21.4833 21.875 21 21.875H14ZM13.125 7.875C13.125 7.39175 13.5167 7 14 7H21C21.4833 7 21.875 7.39175 21.875 7.875C21.875 8.35825 21.4833 8.75 21 8.75H14C13.5167 8.75 13.125 8.35825 13.125 7.875ZM6.125 12.25C6.125 11.7667 6.51676 11.375 7 11.375H9.625C10.1083 11.375 10.5 11.7667 10.5 12.25V14.875C10.5 15.3583 10.1083 15.75 9.625 15.75H7C6.51676 15.75 6.125 15.3583 6.125 14.875V12.25ZM6.125 20.125C6.125 19.6417 6.51676 19.25 7 19.25H9.625C10.1083 19.25 10.5 19.6417 10.5 20.125V22.75C10.5 23.2333 10.1083 23.625 9.625 23.625H7C6.51676 23.625 6.125 23.2333 6.125 22.75V20.125Z" fill="white"/>
</svg>
