<svg width="80" height="40" viewBox="0 0 80 40" fill="none" xmlns="http://www.w3.org/2000/svg">
<path d="M49.75 20.5H47.5V18.25C47.5 18.0511 47.421 17.8603 47.2803 17.7197C47.1397 17.579 46.9489 17.5 46.75 17.5C46.5511 17.5 46.3603 17.579 46.2197 17.7197C46.079 17.8603 46 18.0511 46 18.25V20.5H43.75C43.5511 20.5 43.3603 20.579 43.2197 20.7197C43.079 20.8603 43 21.0511 43 21.25C43 21.4489 43.079 21.6397 43.2197 21.7803C43.3603 21.921 43.5511 22 43.75 22H46V24.25C46 24.4489 46.079 24.6397 46.2197 24.7803C46.3603 24.921 46.5511 25 46.75 25C46.9489 25 47.1397 24.921 47.2803 24.7803C47.421 24.6397 47.5 24.4489 47.5 24.25V22H49.75C49.9489 22 50.1397 21.921 50.2803 21.7803C50.421 21.6397 50.5 21.4489 50.5 21.25C50.5 21.0511 50.421 20.8603 50.2803 20.7197C50.1397 20.579 49.9489 20.5 49.75 20.5Z" fill="#0B7AB2"/>
<path d="M38.1797 14.5C41.0792 14.5 43.4297 12.1495 43.4297 9.25C43.4297 6.35051 41.0792 4 38.1797 4C35.2802 4 32.9297 6.35051 32.9297 9.25C32.9297 12.1495 35.2802 14.5 38.1797 14.5Z" fill="#0B7AB2"/>
<path d="M44.5005 23.4982H43.7505C43.1538 23.4982 42.5815 23.2612 42.1596 22.8392C41.7376 22.4173 41.5005 21.845 41.5005 21.2482C41.5005 20.6515 41.7376 20.0792 42.1596 19.6573C42.5815 19.2353 43.1538 18.9982 43.7505 18.9982H44.5005V18.2482C44.5011 18.074 44.5212 17.9005 44.5605 17.7307C43.3337 16.6927 41.8716 15.9703 40.3017 15.6266C38.7318 15.2828 37.1017 15.3281 35.5533 15.7585C34.0049 16.1888 32.5852 16.9912 31.4178 18.0958C30.2504 19.2003 29.3708 20.5735 28.8555 22.0957C28.749 22.4253 28.7226 22.7755 28.7787 23.1173C28.8348 23.4591 28.9717 23.7826 29.178 24.0607C29.3885 24.351 29.6648 24.5873 29.9842 24.7503C30.3036 24.9132 30.657 24.9982 31.0155 24.9982H44.6355C44.5447 24.7587 44.499 24.5044 44.5005 24.2482V23.4982Z" fill="#0B7AB2"/>
<path d="M21.39 35.95H18.35L17.79 37.5H16.83L19.35 30.57H20.4L22.91 37.5H21.95L21.39 35.95ZM21.13 35.21L19.87 31.69L18.61 35.21H21.13ZM23.6683 34.74C23.6683 34.18 23.7816 33.69 24.0083 33.27C24.2349 32.8433 24.5449 32.5133 24.9383 32.28C25.3383 32.0467 25.7849 31.93 26.2783 31.93C26.7049 31.93 27.1016 32.03 27.4683 32.23C27.8349 32.4233 28.1149 32.68 28.3083 33V30.1H29.2283V37.5H28.3083V36.47C28.1283 36.7967 27.8616 37.0667 27.5083 37.28C27.1549 37.4867 26.7416 37.59 26.2683 37.59C25.7816 37.59 25.3383 37.47 24.9383 37.23C24.5449 36.99 24.2349 36.6533 24.0083 36.22C23.7816 35.7867 23.6683 35.2933 23.6683 34.74ZM28.3083 34.75C28.3083 34.3367 28.2249 33.9767 28.0583 33.67C27.8916 33.3633 27.6649 33.13 27.3783 32.97C27.0983 32.8033 26.7883 32.72 26.4483 32.72C26.1083 32.72 25.7983 32.8 25.5183 32.96C25.2383 33.12 25.0149 33.3533 24.8483 33.66C24.6816 33.9667 24.5983 34.3267 24.5983 34.74C24.5983 35.16 24.6816 35.5267 24.8483 35.84C25.0149 36.1467 25.2383 36.3833 25.5183 36.55C25.7983 36.71 26.1083 36.79 26.4483 36.79C26.7883 36.79 27.0983 36.71 27.3783 36.55C27.6649 36.3833 27.8916 36.1467 28.0583 35.84C28.2249 35.5267 28.3083 35.1633 28.3083 34.75ZM30.4261 34.74C30.4261 34.18 30.5394 33.69 30.7661 33.27C30.9928 32.8433 31.3028 32.5133 31.6961 32.28C32.0961 32.0467 32.5428 31.93 33.0361 31.93C33.4628 31.93 33.8594 32.03 34.2261 32.23C34.5928 32.4233 34.8728 32.68 35.0661 33V30.1H35.9861V37.5H35.0661V36.47C34.8861 36.7967 34.6194 37.0667 34.2661 37.28C33.9128 37.4867 33.4994 37.59 33.0261 37.59C32.5394 37.59 32.0961 37.47 31.6961 37.23C31.3028 36.99 30.9928 36.6533 30.7661 36.22C30.5394 35.7867 30.4261 35.2933 30.4261 34.74ZM35.0661 34.75C35.0661 34.3367 34.9828 33.9767 34.8161 33.67C34.6494 33.3633 34.4228 33.13 34.1361 32.97C33.8561 32.8033 33.5461 32.72 33.2061 32.72C32.8661 32.72 32.5561 32.8 32.2761 32.96C31.9961 33.12 31.7728 33.3533 31.6061 33.66C31.4394 33.9667 31.3561 34.3267 31.3561 34.74C31.3561 35.16 31.4394 35.5267 31.6061 35.84C31.7728 36.1467 31.9961 36.3833 32.2761 36.55C32.5561 36.71 32.8661 36.79 33.2061 36.79C33.5461 36.79 33.8561 36.71 34.1361 36.55C34.4228 36.3833 34.6494 36.1467 34.8161 35.84C34.9828 35.5267 35.0661 35.1633 35.0661 34.75ZM41.0999 36.76H43.5399V37.5H40.1899V30.53H41.0999V36.76ZM49.5063 34.55C49.5063 34.7233 49.4963 34.9067 49.4763 35.1H45.0963C45.1297 35.64 45.313 36.0633 45.6463 36.37C45.9863 36.67 46.3963 36.82 46.8763 36.82C47.2697 36.82 47.5963 36.73 47.8563 36.55C48.123 36.3633 48.3097 36.1167 48.4163 35.81H49.3963C49.2497 36.3367 48.9563 36.7667 48.5163 37.1C48.0763 37.4267 47.5297 37.59 46.8763 37.59C46.3563 37.59 45.8897 37.4733 45.4763 37.24C45.0697 37.0067 44.7497 36.6767 44.5163 36.25C44.283 35.8167 44.1663 35.3167 44.1663 34.75C44.1663 34.1833 44.2797 33.6867 44.5063 33.26C44.733 32.8333 45.0497 32.5067 45.4563 32.28C45.8697 32.0467 46.343 31.93 46.8763 31.93C47.3963 31.93 47.8563 32.0433 48.2563 32.27C48.6563 32.4967 48.963 32.81 49.1763 33.21C49.3963 33.6033 49.5063 34.05 49.5063 34.55ZM48.5663 34.36C48.5663 34.0133 48.4897 33.7167 48.3363 33.47C48.183 33.2167 47.973 33.0267 47.7063 32.9C47.4463 32.7667 47.1563 32.7 46.8363 32.7C46.3763 32.7 45.983 32.8467 45.6563 33.14C45.3363 33.4333 45.153 33.84 45.1063 34.36H48.5663ZM50.3675 34.74C50.3675 34.18 50.4808 33.69 50.7075 33.27C50.9342 32.8433 51.2442 32.5133 51.6375 32.28C52.0375 32.0467 52.4808 31.93 52.9675 31.93C53.4475 31.93 53.8642 32.0333 54.2175 32.24C54.5708 32.4467 54.8342 32.7067 55.0075 33.02V32.02H55.9275V37.5H55.0075V36.48C54.8275 36.8 54.5575 37.0667 54.1975 37.28C53.8442 37.4867 53.4308 37.59 52.9575 37.59C52.4708 37.59 52.0308 37.47 51.6375 37.23C51.2442 36.99 50.9342 36.6533 50.7075 36.22C50.4808 35.7867 50.3675 35.2933 50.3675 34.74ZM55.0075 34.75C55.0075 34.3367 54.9242 33.9767 54.7575 33.67C54.5908 33.3633 54.3642 33.13 54.0775 32.97C53.7975 32.8033 53.4875 32.72 53.1475 32.72C52.8075 32.72 52.4975 32.8 52.2175 32.96C51.9375 33.12 51.7142 33.3533 51.5475 33.66C51.3808 33.9667 51.2975 34.3267 51.2975 34.74C51.2975 35.16 51.3808 35.5267 51.5475 35.84C51.7142 36.1467 51.9375 36.3833 52.2175 36.55C52.4975 36.71 52.8075 36.79 53.1475 36.79C53.4875 36.79 53.7975 36.71 54.0775 36.55C54.3642 36.3833 54.5908 36.1467 54.7575 35.84C54.9242 35.5267 55.0075 35.1633 55.0075 34.75ZM57.1253 34.74C57.1253 34.18 57.2386 33.69 57.4653 33.27C57.692 32.8433 58.002 32.5133 58.3953 32.28C58.7953 32.0467 59.242 31.93 59.7353 31.93C60.162 31.93 60.5586 32.03 60.9253 32.23C61.292 32.4233 61.572 32.68 61.7653 33V30.1H62.6853V37.5H61.7653V36.47C61.5853 36.7967 61.3186 37.0667 60.9653 37.28C60.612 37.4867 60.1986 37.59 59.7253 37.59C59.2386 37.59 58.7953 37.47 58.3953 37.23C58.002 36.99 57.692 36.6533 57.4653 36.22C57.2386 35.7867 57.1253 35.2933 57.1253 34.74ZM61.7653 34.75C61.7653 34.3367 61.682 33.9767 61.5153 33.67C61.3486 33.3633 61.122 33.13 60.8353 32.97C60.5553 32.8033 60.2453 32.72 59.9053 32.72C59.5653 32.72 59.2553 32.8 58.9753 32.96C58.6953 33.12 58.472 33.3533 58.3053 33.66C58.1386 33.9667 58.0553 34.3267 58.0553 34.74C58.0553 35.16 58.1386 35.5267 58.3053 35.84C58.472 36.1467 58.6953 36.3833 58.9753 36.55C59.2553 36.71 59.5653 36.79 59.9053 36.79C60.2453 36.79 60.5553 36.71 60.8353 36.55C61.122 36.3833 61.3486 36.1467 61.5153 35.84C61.682 35.5267 61.7653 35.1633 61.7653 34.75Z" fill="#0B7AB2"/>
</svg>
