<svg width="30" height="30" viewBox="0 0 30 30" fill="none" xmlns="http://www.w3.org/2000/svg">
<path fill-rule="evenodd" clip-rule="evenodd" d="M4.57112 10.405C4 11.4484 4 12.707 4 15.2243V16.8975C4 21.1884 4 23.3339 5.28873 24.6669C6.57747 26 8.65164 26 12.8 26H17.2C21.3483 26 23.4226 26 24.7112 24.6669C26 23.3339 26 21.1884 26 16.8975V15.2243C26 12.707 26 11.4484 25.4289 10.405C24.8578 9.36163 23.8144 8.71406 21.7276 7.41893L19.5276 6.05356C17.3217 4.68452 16.2187 4 15 4C13.7813 4 12.6783 4.68452 10.4724 6.05356L8.27243 7.41894C6.18564 8.71406 5.14224 9.36163 4.57112 10.405ZM15.825 13.9C15.825 13.4444 15.4556 13.075 15 13.075C14.5444 13.075 14.175 13.4444 14.175 13.9V16.375H11.7C11.2444 16.375 10.875 16.7444 10.875 17.2C10.875 17.6556 11.2444 18.025 11.7 18.025H14.175V20.5C14.175 20.9556 14.5444 21.325 15 21.325C15.4556 21.325 15.825 20.9556 15.825 20.5V18.025H18.3C18.7556 18.025 19.125 17.6556 19.125 17.2C19.125 16.7444 18.7556 16.375 18.3 16.375H15.825V13.9Z" fill="#727272"/>
</svg>
