<svg width="56" height="56" viewBox="0 0 56 56" fill="none" xmlns="http://www.w3.org/2000/svg">
<g filter="url(#filter0_d_23014_11716)">
<rect x="8" y="8" width="40" height="40" rx="8" fill="#0B7AB2"/>
<rect x="8.5" y="8.5" width="39" height="39" rx="7.5" stroke="#0B7AB2"/>
<g clip-path="url(#clip0_23014_11716)">
<path d="M39 27H29V17C29 16.4477 28.5523 16 28 16C27.4477 16 27 16.4477 27 17V27H17C16.4477 27 16 27.4477 16 28C16 28.5523 16.4477 29 17 29H27V39C27 39.5522 27.4477 40 28 40C28.5522 40 28.9999 39.5522 28.9999 39V29H38.9999C39.5522 29 39.9999 28.5523 39.9999 28C40 27.4477 39.5523 27 39 27Z" fill="white"/>
</g>
</g>
<defs>
<filter id="filter0_d_23014_11716" x="0" y="0" width="56" height="56" filterUnits="userSpaceOnUse" color-interpolation-filters="sRGB">
<feFlood flood-opacity="0" result="BackgroundImageFix"/>
<feColorMatrix in="SourceAlpha" type="matrix" values="0 0 0 0 0 0 0 0 0 0 0 0 0 0 0 0 0 0 127 0" result="hardAlpha"/>
<feOffset/>
<feGaussianBlur stdDeviation="4"/>
<feColorMatrix type="matrix" values="0 0 0 0 0 0 0 0 0 0 0 0 0 0 0 0 0 0 0.24 0"/>
<feBlend mode="normal" in2="BackgroundImageFix" result="effect1_dropShadow_23014_11716"/>
<feBlend mode="normal" in="SourceGraphic" in2="effect1_dropShadow_23014_11716" result="shape"/>
</filter>
<clipPath id="clip0_23014_11716">
<rect width="24" height="24" fill="white" transform="translate(16 16)"/>
</clipPath>
</defs>
</svg>
