<svg width="28" height="28" viewBox="0 0 28 28" fill="none" xmlns="http://www.w3.org/2000/svg">
<path d="M25.375 21H22.75V18.375C22.75 18.1429 22.6578 17.9204 22.4937 17.7563C22.3296 17.5922 22.1071 17.5 21.875 17.5C21.6429 17.5 21.4204 17.5922 21.2563 17.7563C21.0922 17.9204 21 18.1429 21 18.375V21H18.375C18.1429 21 17.9204 21.0922 17.7563 21.2563C17.5922 21.4204 17.5 21.6429 17.5 21.875C17.5 22.1071 17.5922 22.3296 17.7563 22.4937C17.9204 22.6578 18.1429 22.75 18.375 22.75H21V25.375C21 25.6071 21.0922 25.8296 21.2563 25.9937C21.4204 26.1578 21.6429 26.25 21.875 26.25C22.1071 26.25 22.3296 26.1578 22.4937 25.9937C22.6578 25.8296 22.75 25.6071 22.75 25.375V22.75H25.375C25.6071 22.75 25.8296 22.6578 25.9937 22.4937C26.1578 22.3296 26.25 22.1071 26.25 21.875C26.25 21.6429 26.1578 21.4204 25.9937 21.2563C25.8296 21.0922 25.6071 21 25.375 21Z" fill="#727272"/>
<path d="M11.8711 14C15.2538 14 17.9961 11.2577 17.9961 7.875C17.9961 4.49226 15.2538 1.75 11.8711 1.75C8.48835 1.75 5.74609 4.49226 5.74609 7.875C5.74609 11.2577 8.48835 14 11.8711 14Z" fill="#727272"/>
<path d="M19.2497 24.5001H18.3747C17.6785 24.5001 17.0108 24.2235 16.5185 23.7312C16.0262 23.2389 15.7497 22.5713 15.7497 21.8751C15.7497 21.1789 16.0262 20.5112 16.5185 20.0189C17.0108 19.5266 17.6785 19.2501 18.3747 19.2501H19.2497V18.3751C19.2503 18.1718 19.2738 17.9693 19.3197 17.7713C17.8883 16.5603 16.1826 15.7175 14.351 15.3165C12.5195 14.9154 10.6177 14.9682 8.81118 15.4703C7.00472 15.9724 5.34839 16.9085 3.98646 18.1972C2.62454 19.4858 1.59831 21.0879 0.997163 22.8638C0.872812 23.2483 0.84208 23.6569 0.907524 24.0557C0.972967 24.4544 1.13269 24.8318 1.37341 25.1563C1.61898 25.495 1.94127 25.7706 2.31389 25.9607C2.6865 26.1509 3.09885 26.25 3.51716 26.2501H19.4072C19.3012 25.9706 19.2478 25.674 19.2497 25.3751V24.5001Z" fill="#727272"/>
</svg>
