<svg width="42" height="42" viewBox="0 0 42 42" fill="none" xmlns="http://www.w3.org/2000/svg">
<rect width="42" height="42" rx="21" fill="url(#paint0_linear_22940_1928)"/>
<g clip-path="url(#clip0_22940_1928)">
<path d="M12.5186 24.4531C14.1943 24.4531 15.5527 23.0947 15.5527 21.4189C15.5527 19.7432 14.1943 18.3848 12.5186 18.3848C10.8428 18.3848 9.48438 19.7432 9.48438 21.4189C9.48438 23.0947 10.8428 24.4531 12.5186 24.4531Z" fill="#0074AE"/>
<path d="M29.3779 24.4531C31.0537 24.4531 32.4121 23.0947 32.4121 21.4189C32.4121 19.7432 31.0537 18.3848 29.3779 18.3848C27.7022 18.3848 26.3438 19.7432 26.3438 21.4189C26.3438 23.0947 27.7022 24.4531 29.3779 24.4531Z" fill="#0074AE"/>
<path d="M27.4199 24.9254C28.1784 26.1093 28.6186 27.5157 28.6186 29.0231V32.07H33.2397C33.6603 32.07 34.0014 31.7289 34.0014 31.3083V29.0231C34.0014 25.6207 30.4077 23.4348 27.4199 24.9254Z" fill="#0074AE"/>
<path d="M8 29.0819V31.3087C8 31.7294 8.34105 32.0705 8.76172 32.0705H13.3828V29.0236C13.3828 27.5144 13.824 26.1064 14.5841 24.9216C11.5466 23.4243 8 25.6691 8 29.0819Z" fill="#0074AE"/>
<path d="M21 22.9297C17.6345 22.9297 14.9062 25.658 14.9062 29.0234V32.0703C14.9062 32.491 15.2473 32.832 15.668 32.832H26.332C26.7527 32.832 27.0938 32.491 27.0938 32.0703V29.0234C27.0938 25.658 24.3655 22.9297 21 22.9297Z" fill="#0074AE"/>
<path d="M19.7251 13.5152C20.0225 13.8127 20.5049 13.8127 20.8023 13.5152L23.8492 10.4683C24.1467 10.1708 24.1467 9.68855 23.8492 9.39108C23.5518 9.0936 23.0695 9.0936 22.772 9.39108L20.2637 11.8993L19.2281 10.8637C18.9306 10.5663 18.4483 10.5663 18.1508 10.8637C17.8534 11.1612 17.8534 11.6435 18.1508 11.941L19.7251 13.5152Z" fill="#0074AE"/>
<path d="M21 22.9297C23.1034 22.9297 24.8086 21.2245 24.8086 19.1211C24.8086 17.0177 23.1034 15.3125 21 15.3125C18.8966 15.3125 17.1914 17.0177 17.1914 19.1211C17.1914 21.2245 18.8966 22.9297 21 22.9297Z" fill="#0074AE"/>
</g>
<defs>
<linearGradient id="paint0_linear_22940_1928" x1="21" y1="0" x2="21" y2="42" gradientUnits="userSpaceOnUse">
<stop stop-color="#EEF9FF"/>
<stop offset="1" stop-color="#D0EFFF"/>
</linearGradient>
<clipPath id="clip0_22940_1928">
<rect width="26" height="26" fill="white" transform="translate(8 8)"/>
</clipPath>
</defs>
</svg>
