<svg width="14" height="14" viewBox="0 0 14 14" fill="none" xmlns="http://www.w3.org/2000/svg">
<g clip-path="url(#clip0_22926_10748)">
<path d="M8.75 3.5C8.75 1.56975 7.18025 0 5.25 0C3.31975 0 1.75 1.56975 1.75 3.5C1.75 5.43025 3.31975 7 5.25 7C7.18025 7 8.75 5.43025 8.75 3.5ZM5.25 6.41667C3.64175 6.41667 2.33333 5.10825 2.33333 3.5C2.33333 1.89175 3.64175 0.583333 5.25 0.583333C6.85825 0.583333 8.16667 1.89175 8.16667 3.5C8.16667 5.10825 6.85825 6.41667 5.25 6.41667ZM5.24883 8.43383C5.26225 8.59367 5.14325 8.73542 4.98283 8.74883C2.51592 8.95825 0.583333 11.0728 0.583333 13.5625V13.7083C0.583333 13.8693 0.452667 14 0.291667 14C0.130667 14 0 13.8693 0 13.7083V13.5625C0 10.7724 2.16708 8.40292 4.93383 8.16783C5.09542 8.15558 5.23483 8.27342 5.24883 8.43383ZM10.2083 6.41667C8.11767 6.41667 6.41667 8.11767 6.41667 10.2083C6.41667 12.299 8.11767 14 10.2083 14C12.299 14 14 12.299 14 10.2083C14 8.11767 12.299 6.41667 10.2083 6.41667ZM10.5 13.4021V12.5417C10.5 12.3807 10.3693 12.25 10.2083 12.25C10.0473 12.25 9.91667 12.3807 9.91667 12.5417V13.4021C8.38017 13.2627 7.154 12.0365 7.01458 10.5H7.875C8.036 10.5 8.16667 10.3693 8.16667 10.2083C8.16667 10.0473 8.036 9.91667 7.875 9.91667H7.01458C7.154 8.38017 8.38017 7.154 9.91667 7.01458V7.875C9.91667 8.036 10.0473 8.16667 10.2083 8.16667C10.3693 8.16667 10.5 8.036 10.5 7.875V7.01458C12.0365 7.154 13.2627 8.38017 13.4021 9.91667H12.5417C12.3807 9.91667 12.25 10.0473 12.25 10.2083C12.25 10.3693 12.3807 10.5 12.5417 10.5H13.4021C13.2627 12.0365 12.0365 13.2627 10.5 13.4021Z" fill="white"/>
</g>
<defs>
<clipPath id="clip0_22926_10748">
<rect width="14" height="14" fill="white"/>
</clipPath>
</defs>
</svg>
