<svg width="28" height="28" viewBox="0 0 28 28" fill="none" xmlns="http://www.w3.org/2000/svg">
<g clip-path="url(#clip0_23313_8074)">
<path d="M20.484 3.75963H20.0962V3.27394C20.0962 2.87163 19.77 2.54541 19.3677 2.54541C18.9654 2.54541 18.6392 2.87163 18.6392 3.27394V3.75963H9.36091V3.27394C9.36091 2.87163 9.03469 2.54541 8.63238 2.54541C8.23007 2.54541 7.90385 2.87163 7.90385 3.27394V3.75963H7.5161C4.77521 3.75963 2.5459 5.98894 2.5459 8.72984V11.1664V21.6977C2.5459 24.4386 4.77521 26.6679 7.5161 26.6679H20.484C23.2249 26.6679 25.455 24.4386 25.455 21.6977V11.1664V8.72984C25.4542 5.98894 23.2249 3.75963 20.484 3.75963ZM14.7286 22.3283C14.7286 22.7306 14.4024 23.0568 14 23.0568C13.5977 23.0568 13.2715 22.7306 13.2715 22.3283V21.7487C13.2715 21.3464 13.5977 21.0202 14 21.0202C14.4024 21.0202 14.7286 21.3464 14.7286 21.7487V22.3283ZM14.7286 18.9827C14.7286 19.385 14.4024 19.7112 14 19.7112C13.5977 19.7112 13.2715 19.385 13.2715 18.9827V14.775C13.2715 14.3727 13.5977 14.0465 14 14.0465C14.4024 14.0465 14.7286 14.3727 14.7286 14.775V18.9827ZM23.9971 10.4378H4.00296V8.72984C4.00296 6.79275 5.57902 5.21669 7.5161 5.21669H7.90385V5.70076C7.90385 6.10307 8.23007 6.42929 8.63238 6.42929C9.03469 6.42929 9.36091 6.10307 9.36091 5.70076V5.21669H18.6384V5.70076C18.6384 6.10307 18.9646 6.42929 19.3669 6.42929C19.7692 6.42929 20.0954 6.10307 20.0954 5.70076V5.21669H20.4832C22.4211 5.21669 23.9963 6.79275 23.9963 8.72984L23.9971 10.4378Z" fill="#0B7AB2"/>
</g>
<defs>
<clipPath id="clip0_23313_8074">
<rect width="28" height="28" fill="white"/>
</clipPath>
</defs>
</svg>
