<svg width="30" height="30" viewBox="0 0 30 30" fill="none" xmlns="http://www.w3.org/2000/svg">
<path d="M15.0011 16.1818C18.9173 16.1818 22.092 13.0071 22.092 9.0909C22.092 5.1747 18.9173 2 15.0011 2C11.0849 2 7.91016 5.1747 7.91016 9.0909C7.91016 13.0071 11.0849 16.1818 15.0011 16.1818Z" fill="#727272"/>
<path d="M25.0916 20.0287C23.9744 19.4556 22.1947 18.6518 20.0666 18.0776C19.7711 17.9945 19.4595 18.159 19.3567 18.4487L16.9347 25.2057L16.2014 21.5383L17.3336 18.1417C17.3936 17.9616 17.3637 17.7631 17.2517 17.609C17.1409 17.455 16.9632 17.3638 16.7727 17.3638H13.2273C13.0368 17.3638 12.8591 17.455 12.7483 17.609C12.6363 17.7631 12.6063 17.9616 12.6664 18.1417L13.7986 21.5383L13.0653 25.2057L10.6433 18.4487C10.5405 18.159 10.2278 17.9951 9.93344 18.0776C7.80523 18.6518 6.02558 19.4556 4.90843 20.0287C3.11488 20.9497 2 22.7674 2 24.7715V25.6365C2 26.9401 3.06064 28.0002 4.36365 28.0002H13.2273H16.7727H25.6363C26.9394 28.0002 28 26.9401 28 25.6365V24.7715C27.9999 22.7674 26.8851 20.9497 25.0916 20.0287Z" fill="#727272"/>
</svg>
