<svg width="16" height="16" viewBox="0 0 16 16" fill="none" xmlns="http://www.w3.org/2000/svg">
<path d="M15.4626 8.17438C15.5401 7.98688 15.4951 7.77187 15.3476 7.62688L8.3426 0.916877C8.15009 0.734381 7.8476 0.736884 7.6551 0.919379L0.655099 7.62688C0.507608 7.76688 0.460123 7.98188 0.535104 8.17188C0.610086 8.35938 0.792581 8.48188 0.997598 8.48188H2.1226V14.9669C2.1226 15.1044 2.23509 15.2169 2.3726 15.2169H13.6251C13.7626 15.2169 13.8751 15.1044 13.8751 14.9669V8.48188H15.0076C15.2076 8.48188 15.3851 8.36188 15.4626 8.17438ZM6.2451 8.21688C6.2451 7.24938 7.0326 6.46187 8.0001 6.46187C8.9676 6.46187 9.75511 7.24938 9.75511 8.21688C9.75511 9.18438 8.9676 9.97188 8.0001 9.97188C7.0326 9.97188 6.2451 9.18438 6.2451 8.21688ZM4.22511 14.7169V13.7419C4.22511 11.9369 5.69261 10.4719 7.4976 10.4719H8.5026C10.3076 10.4719 11.7751 11.9369 11.7751 13.7419V14.7169H4.22511Z" fill="#767676"/>
</svg>
