<svg width="14" height="14" viewBox="0 0 14 14" fill="none" xmlns="http://www.w3.org/2000/svg">
<g clip-path="url(#clip0_22926_10592)">
<path d="M10.7917 9.04167C10.1482 9.04167 9.625 9.56492 9.625 10.2083C9.625 10.8517 10.1482 11.375 10.7917 11.375C11.4351 11.375 11.9583 10.8517 11.9583 10.2083C11.9583 9.56492 11.4351 9.04167 10.7917 9.04167ZM10.7917 10.7917C10.4702 10.7917 10.2083 10.5297 10.2083 10.2083C10.2083 9.88692 10.4702 9.625 10.7917 9.625C11.1131 9.625 11.375 9.88692 11.375 10.2083C11.375 10.5297 11.1131 10.7917 10.7917 10.7917ZM13.0597 7.93567C12.4536 7.3325 11.6486 7 10.7917 7C9.93475 7 9.12917 7.33192 8.52308 7.93567C7.917 8.53942 7.58333 9.34208 7.58333 10.1961C7.58333 11.0501 7.917 11.8522 8.53183 12.4641L9.68158 13.5217C9.98025 13.8122 10.3746 13.972 10.7917 13.972C11.2087 13.972 11.6031 13.8122 11.8953 13.5275L13.0597 12.4559C13.6657 11.8522 13.9994 11.0495 13.9994 10.1955C13.9994 9.3415 13.6657 8.53883 13.0597 7.93508V7.93567ZM12.6566 12.0347L11.4946 13.104C11.1172 13.4721 10.4726 13.4779 10.0823 13.0982L8.93492 12.0423C8.43908 11.5488 8.16667 10.8932 8.16667 10.1955C8.16667 9.49783 8.43967 8.84217 8.93492 8.34867C9.43075 7.85517 10.0899 7.58333 10.7917 7.58333C11.4934 7.58333 12.1526 7.85517 12.6478 8.34867C13.1437 8.84217 13.4161 9.49783 13.4161 10.1955C13.4161 10.8932 13.1431 11.5488 12.656 12.0342L12.6566 12.0347ZM7.58333 13.7089C7.58333 13.8699 7.45267 14.0006 7.29167 14.0006H2.625C1.17775 14.0006 0 12.8228 0 11.3756V2.625C0 1.17775 1.17775 0 2.625 0H6.70833C8.15558 0 9.33333 1.17775 9.33333 2.625V6.125C9.33333 6.286 9.20267 6.41667 9.04167 6.41667C8.88067 6.41667 8.75 6.286 8.75 6.125V2.625C8.75 1.49917 7.83417 0.583333 6.70833 0.583333H2.625C1.49917 0.583333 0.583333 1.49917 0.583333 2.625V11.375C0.583333 12.5008 1.49917 13.4167 2.625 13.4167H7.29167C7.45267 13.4167 7.58333 13.5479 7.58333 13.7089ZM4.08333 7.87558C4.08333 8.03658 3.95267 8.16725 3.79167 8.16725H2.625C2.464 8.16725 2.33333 8.03658 2.33333 7.87558C2.33333 7.71458 2.464 7.58392 2.625 7.58392H3.79167C3.95267 7.58392 4.08333 7.71458 4.08333 7.87558ZM7 7.87558C7 8.03658 6.86933 8.16725 6.70833 8.16725H5.54167C5.38067 8.16725 5.25 8.03658 5.25 7.87558C5.25 7.71458 5.38067 7.58392 5.54167 7.58392H6.70833C6.86933 7.58392 7 7.71458 7 7.87558ZM4.08333 10.2089C4.08333 10.3699 3.95267 10.5006 3.79167 10.5006H2.625C2.464 10.5006 2.33333 10.3699 2.33333 10.2089C2.33333 10.0479 2.464 9.91725 2.625 9.91725H3.79167C3.95267 9.91725 4.08333 10.0479 4.08333 10.2089ZM7 10.2089C7 10.3699 6.86933 10.5006 6.70833 10.5006H5.54167C5.38067 10.5006 5.25 10.3699 5.25 10.2089C5.25 10.0479 5.38067 9.91725 5.54167 9.91725H6.70833C6.86933 9.91725 7 10.0479 7 10.2089ZM4.08333 3.20833C4.08333 3.36933 3.95267 3.5 3.79167 3.5H2.625C2.464 3.5 2.33333 3.36933 2.33333 3.20833C2.33333 3.04733 2.464 2.91667 2.625 2.91667H3.79167C3.95267 2.91667 4.08333 3.04733 4.08333 3.20833ZM7 3.20833C7 3.36933 6.86933 3.5 6.70833 3.5H5.54167C5.38067 3.5 5.25 3.36933 5.25 3.20833C5.25 3.04733 5.38067 2.91667 5.54167 2.91667H6.70833C6.86933 2.91667 7 3.04733 7 3.20833ZM4.08333 5.54167C4.08333 5.70267 3.95267 5.83333 3.79167 5.83333H2.625C2.464 5.83333 2.33333 5.70267 2.33333 5.54167C2.33333 5.38067 2.464 5.25 2.625 5.25H3.79167C3.95267 5.25 4.08333 5.38067 4.08333 5.54167ZM7 5.54167C7 5.70267 6.86933 5.83333 6.70833 5.83333H5.54167C5.38067 5.83333 5.25 5.70267 5.25 5.54167C5.25 5.38067 5.38067 5.25 5.54167 5.25H6.70833C6.86933 5.25 7 5.38067 7 5.54167Z" fill="white"/>
</g>
<defs>
<clipPath id="clip0_22926_10592">
<rect width="14" height="14" fill="white"/>
</clipPath>
</defs>
</svg>
